<svg xmlns="http://www.w3.org/2000/svg" xmlns:xlink="http://www.w3.org/1999/xlink" width="980" height="738.14"><rect width="980" height="738.14" rx="0" ry="0" class="a"/><svg height="738.14" viewBox="0 0 98 73.814" width="980" xmlns="http://www.w3.org/2000/svg" xmlns:xlink="http://www.w3.org/1999/xlink"><style>@keyframes n{0%{transform:translateX(0)}.04%{transform:translateX(-98px)}1.1%{transform:translateX(-196px)}2.06%{transform:translateX(-294px)}2.74%{transform:translateX(-392px)}3.16%{transform:translateX(-490px)}3.44%{transform:translateX(-588px)}4.56%{transform:translateX(-686px)}5.06%{transform:translateX(-784px)}5.92%{transform:translateX(-882px)}7.72%{transform:translateX(-980px)}9.6%{transform:translateX(-1078px)}13.49%{transform:translateX(-1176px)}14.06%{transform:translateX(-1274px)}15.1%{transform:translateX(-1372px)}15.64%{transform:translateX(-1470px)}16.84%{transform:translateX(-1568px)}17.74%{transform:translateX(-1666px)}19.31%{transform:translateX(-1764px)}20.29%{transform:translateX(-1960px)}20.3%{transform:translateX(-2058px)}20.32%{transform:translateX(-2254px)}20.51%{transform:translateX(-2352px)}36.72%{transform:translateX(-2450px)}37.7%{transform:translateX(-2548px)}38.25%{transform:translateX(-2646px)}39.04%{transform:translateX(-2744px)}39.22%{transform:translateX(-2842px)}40.2%{transform:translateX(-2940px)}40.67%{transform:translateX(-3038px)}41.71%{transform:translateX(-3136px)}45.58%{transform:translateX(-3234px)}47.53%{transform:translateX(-3332px)}48.42%{transform:translateX(-3430px)}49.14%{transform:translateX(-3528px)}49.4%{transform:translateX(-3626px)}49.89%{transform:translateX(-3724px)}51.6%{transform:translateX(-3822px)}52.56%{transform:translateX(-3920px)}52.93%{transform:translateX(-4018px)}54.04%{transform:translateX(-4116px)}56.78%{transform:translateX(-4214px)}58.27%{transform:translateX(-4508px)}58.28%{transform:translateX(-4606px)}60.17%{transform:translateX(-4802px)}61.81%{transform:translateX(-4998px)}62.62%{transform:translateX(-5096px)}62.93%{transform:translateX(-5194px)}to{transform:translateX(-5292px)}}.a{fill:#282d35}.c{fill:#b9c0cb;white-space:pre}.d,.e{font-weight:700}.d{fill:#dbab79;white-space:pre}.e{fill:#b9c0cb}.e,.f,.g,.j,.k{white-space:pre}.f{fill:#66c2cd;font-weight:700}.g,.j,.k{fill:#d290e4}.j,.k{fill:#a8cc8c}.k{font-weight:700}</style><g font-family="Monaco,Consolas,Menlo,'Bitstream Vera Sans Mono','Powerline Symbols',monospace" font-size="1.67"><defs><symbol id="1"><text y="1.67" class="c">$</text></symbol><symbol id="2"><text y="1.67" class="c">$</text><text x="2.004" y="1.67" class="c">e</text></symbol><symbol id="3"><text y="1.67" class="c">$</text><text x="2.004" y="1.67" class="c">ex</text></symbol><symbol id="4"><text y="1.67" class="c">$</text><text x="2.004" y="1.67" class="c">ext</text></symbol><symbol id="5"><text y="1.67" class="c">$</text><text x="2.004" y="1.67" class="c">exte</text></symbol><symbol id="6"><text y="1.67" class="c">$</text><text x="2.004" y="1.67" class="c">exter</text></symbol><symbol id="7"><text y="1.67" class="c">$</text><text x="2.004" y="1.67" class="c">extern</text></symbol><symbol id="8"><text y="1.67" class="c">$</text><text x="2.004" y="1.67" class="c">externa</text></symbol><symbol id="9"><text y="1.67" class="c">$</text><text x="2.004" y="1.67" class="c">external-issue-checker</text></symbol><symbol id="10"><text y="1.67" class="c">$</text><text x="2.004" y="1.67" class="c">external-issue-checker</text><text x="25.05" y="1.67" class="c">--help</text></symbol><symbol id="11"><text x="1.002" y="1.67" class="d">Usage:</text><text x="8.016" y="1.67" class="e">external-issue-checker</text><text x="31.062" y="1.67" class="e">[OPTIONS]</text><text x="41.082" y="1.67" class="e">[PATH]</text></symbol><symbol id="12"><text x="1.002" y="1.67" class="c">Scans</text><text x="7.014" y="1.67" class="c">the</text><text x="11.022" y="1.67" class="c">commits</text><text x="19.038" y="1.67" class="c">of</text><text x="22.044" y="1.67" class="c">a</text><text x="24.048" y="1.67" class="c">Git</text><text x="28.056" y="1.67" class="c">repository</text><text x="39.078" y="1.67" class="c">and</text><text x="43.086" y="1.67" class="c">detects</text><text x="51.102" y="1.67" class="c">references</text><text x="62.124" y="1.67" class="c">to</text><text x="65.13" y="1.67" class="c">external</text><text x="74.148" y="1.67" class="c">issues</text><text x="81.162" y="1.67" class="c">or</text><text x="84.168" y="1.67" class="c">pull</text></symbol><symbol id="13"><text x="1.002" y="1.67" class="c">requests.</text></symbol><symbol id="14"><text x="1.002" y="1.67" class="c">For</text><text x="5.01" y="1.67" class="c">each</text><text x="10.02" y="1.67" class="c">reference</text><text x="20.04" y="1.67" class="c">found,</text><text x="27.054" y="1.67" class="c">queries</text><text x="35.07" y="1.67" class="c">the</text><text x="39.078" y="1.67" class="c">GitHub</text><text x="46.092" y="1.67" class="c">API</text><text x="50.1" y="1.67" class="c">or</text><text x="53.106" y="1.67" class="c">GitLab</text><text x="60.12" y="1.67" class="c">API</text><text x="64.128" y="1.67" class="c">to</text><text x="67.134" y="1.67" class="c">display</text><text x="75.15" y="1.67" class="c">the</text><text x="79.158" y="1.67" class="c">current</text><text x="87.174" y="1.67" class="c">status</text><text x="94.188" y="1.67" class="c">of</text></symbol><symbol id="15"><text x="1.002" y="1.67" class="c">the</text><text x="5.01" y="1.67" class="c">issue</text><text x="11.022" y="1.67" class="c">or</text><text x="14.028" y="1.67" class="c">pull</text><text x="19.038" y="1.67" class="c">request.</text></symbol><symbol id="16"><text y="1.67" class="c">╭─</text><text x="3.006" y="1.67" class="c">Arguments</text><text x="13.026" y="1.67" class="c">────────────────────────────────────────────────────────────────────────────────────╮</text></symbol><symbol id="17"><text y="1.67" class="c">│</text><text x="4.008" y="1.67" class="c">path</text><text x="14.028" y="1.67" class="d">[PATH]</text><text x="22.044" y="1.67" class="c">Path</text><text x="27.054" y="1.67" class="c">to</text><text x="30.06" y="1.67" class="c">the</text><text x="34.068" y="1.67" class="c">local</text><text x="40.08" y="1.67" class="c">Git</text><text x="44.088" y="1.67" class="c">repository</text><text x="55.11" y="1.67" class="c">to</text><text x="58.116" y="1.67" class="c">analyze</text><text x="66.132" y="1.67" class="c">[default:</text><text x="76.152" y="1.67" class="c">.]</text><text x="97.194" y="1.67" class="c">│</text></symbol><symbol id="18"><text y="1.67" class="c">╰────────────────────────────────────────────────────────────────────────────────────────────────╯</text></symbol><symbol id="19"><text y="1.67" class="c">╭─</text><text x="3.006" y="1.67" class="c">Options</text><text x="11.022" y="1.67" class="c">──────────────────────────────────────────────────────────────────────────────────────╮</text></symbol><symbol id="20"><text y="1.67" class="c">│</text><text x="2.004" y="1.67" class="f">--gh-token</text><text x="30.06" y="1.67" class="d">TEXT</text><text x="36.072" y="1.67" class="c">Personal</text><text x="45.09" y="1.67" class="c">GitHub</text><text x="52.104" y="1.67" class="c">token</text><text x="58.116" y="1.67" class="c">to</text><text x="61.122" y="1.67" class="c">avoid</text><text x="67.134" y="1.67" class="c">API</text><text x="71.142" y="1.67" class="c">limitations</text><text x="83.166" y="1.67" class="c">or</text><text x="86.172" y="1.67" class="c">access</text><text x="97.194" y="1.67" class="c">│</text></symbol><symbol id="21"><text y="1.67" class="c">│</text><text x="36.072" y="1.67" class="c">private</text><text x="44.088" y="1.67" class="c">repositories.</text><text x="97.194" y="1.67" class="c">│</text></symbol><symbol id="22"><text y="1.67" class="c">│</text><text x="36.072" y="1.67" class="c">[default:</text><text x="46.092" y="1.67" class="c">None]</text><text x="97.194" y="1.67" class="c">│</text></symbol><symbol id="23"><text y="1.67" class="c">│</text><text x="2.004" y="1.67" class="f">--gl-token</text><text x="30.06" y="1.67" class="d">TEXT</text><text x="36.072" y="1.67" class="c">Personal</text><text x="45.09" y="1.67" class="c">GitLab</text><text x="52.104" y="1.67" class="c">token</text><text x="58.116" y="1.67" class="c">to</text><text x="61.122" y="1.67" class="c">avoid</text><text x="67.134" y="1.67" class="c">API</text><text x="71.142" y="1.67" class="c">limitations</text><text x="83.166" y="1.67" class="c">or</text><text x="86.172" y="1.67" class="c">access</text><text x="97.194" y="1.67" class="c">│</text></symbol><symbol id="24"><text y="1.67" class="c">│</text><text x="2.004" y="1.67" class="f">--install-completion</text><text x="36.072" y="1.67" class="c">Install</text><text x="44.088" y="1.67" class="c">completion</text><text x="55.11" y="1.67" class="c">for</text><text x="59.118" y="1.67" class="c">the</text><text x="63.126" y="1.67" class="c">current</text><text x="71.142" y="1.67" class="c">shell.</text><text x="97.194" y="1.67" class="c">│</text></symbol><symbol id="25"><text y="1.67" class="c">│</text><text x="2.004" y="1.67" class="f">--show-completion</text><text x="36.072" y="1.67" class="c">Show</text><text x="41.082" y="1.67" class="c">completion</text><text x="52.104" y="1.67" class="c">for</text><text x="56.112" y="1.67" class="c">the</text><text x="60.12" y="1.67" class="c">current</text><text x="68.136" y="1.67" class="c">shell,</text><text x="75.15" y="1.67" class="c">to</text><text x="78.156" y="1.67" class="c">copy</text><text x="83.166" y="1.67" class="c">it</text><text x="86.172" y="1.67" class="c">or</text><text x="97.194" y="1.67" class="c">│</text></symbol><symbol id="26"><text y="1.67" class="c">│</text><text x="36.072" y="1.67" class="c">customize</text><text x="46.092" y="1.67" class="c">the</text><text x="50.1" y="1.67" class="c">installation.</text><text x="97.194" y="1.67" class="c">│</text></symbol><symbol id="27"><text y="1.67" class="c">│</text><text x="2.004" y="1.67" class="f">--help</text><text x="36.072" y="1.67" class="c">Show</text><text x="41.082" y="1.67" class="c">this</text><text x="46.092" y="1.67" class="c">message</text><text x="54.108" y="1.67" class="c">and</text><text x="58.116" y="1.67" class="c">exit.</text><text x="97.194" y="1.67" class="c">│</text></symbol><symbol id="28"><text y="1.67" class="c">$</text><text x="2.004" y="1.67" class="c">external-issue-checker</text><text x="25.05" y="1.67" class="c">~/code/magrit</text></symbol><symbol id="29"><text y="1.67" class="e">Analyzing</text><text x="10.02" y="1.67" class="e">repository</text><text x="21.042" y="1.67" class="e">at</text><text x="24.048" y="1.67" class="g">/home/mthh/code/</text><text x="40.08" y="1.67" style="white-space:pre" fill="#d290e3">magrit</text></symbol><symbol id="30"><text y="1.67" class="e">Remote</text><text x="7.014" y="1.67" class="e">URL:</text><text x="12.024" y="1.67" style="white-space:pre" fill="#73bef3" text-decoration="underline">https://github.com/riatelab/magrit</text></symbol><symbol id="31"><text y="1.67" class="e">Current</text><text x="8.016" y="1.67" class="e">branch:</text><text x="16.032" y="1.67" class="c">dev</text></symbol><symbol id="32"><text y="1.67" class="f">be3b6b3</text><text x="8.016" y="1.67" class="c">-</text><text x="10.02" y="1.67" class="c">Fix</text><text x="14.028" y="1.67" class="c">launching</text><text x="24.048" y="1.67" class="c">of</text><text x="27.054" y="1.67" class="c">electron</text><text x="36.072" y="1.67" class="c">version</text><text x="44.088" y="1.67" class="c">on</text><text x="47.094" y="1.67" class="c">Linux</text></symbol><symbol id="33"><text x="2.004" y="1.67" class="j">✔</text><text x="4.008" y="1.67" class="j">electron/electron#</text><text x="22.044" y="1.67" class="k">46538</text><text x="28.056" y="1.67" class="c">→</text><text x="30.06" y="1.67" class="e">OPEN</text><text x="35.07" y="1.67" class="c">-</text><text x="37.074" y="1.67" class="c">Electron</text><text x="46.092" y="1.67" class="f">36</text><text x="49.098" y="1.67" class="c">fails</text><text x="55.11" y="1.67" class="c">to</text><text x="58.116" y="1.67" class="c">launch</text><text x="65.13" y="1.67" class="c">because</text><text x="73.146" y="1.67" class="j">&quot;Using</text><text x="80.16" y="1.67" class="j">GTK</text><text x="84.168" y="1.67" class="j">2/3</text><text x="88.176" y="1.67" class="j">and</text><text x="92.184" y="1.67" class="j">GTK</text><text x="96.192" y="1.67" class="j">4</text></symbol><symbol id="34"><text y="1.67" class="j">in</text><text x="3.006" y="1.67" class="j">the</text><text x="7.014" y="1.67" class="j">same</text><text x="12.024" y="1.67" class="j">process</text><text x="20.04" y="1.67" class="j">is</text><text x="23.046" y="1.67" class="j">not</text><text x="27.054" y="1.67" class="j">supported&quot;</text></symbol><symbol id="35"><text y="1.67" class="f">63f943c</text><text x="8.016" y="1.67" class="c">-</text><text x="10.02" y="1.67" class="c">Revert</text><text x="17.034" y="1.67" class="c">temporary</text><text x="27.054" y="1.67" class="c">workaround</text><text x="38.076" y="1.67" class="c">with</text><text x="43.086" y="1.67" class="c">qemu</text><text x="48.096" y="1.67" class="c">version</text><text x="56.112" y="1.67" class="c">for</text><text x="60.12" y="1.67" class="c">ARM</text><text x="64.128" y="1.67" class="c">builds</text></symbol><symbol id="36"><text x="2.004" y="1.67" class="j">✔</text><text x="4.008" y="1.67" class="j">docker/setup-qemu-action#</text><text x="29.058" y="1.67" class="k">198</text><text x="33.066" y="1.67" class="c">→</text><text x="35.07" y="1.67" class="e">CLOSED</text><text x="42.084" y="1.67" class="c">-</text><text x="44.088" y="1.67" class="c">`tonistiigi/binfmt:latest`</text><text x="71.142" y="1.67" class="e">(</text><text x="72.144" y="1.67" class="c">qemu</text><text x="77.154" y="1.67" class="f">9.2</text><text x="80.16" y="1.67" class="c">.</text><text x="81.162" y="1.67" class="f">0</text><text x="82.164" y="1.67" class="e">)</text><text x="84.168" y="1.67" class="c">segfault</text><text x="93.186" y="1.67" class="c">on</text></symbol><symbol id="37"><text y="1.67" class="c">ubuntu-</text><text x="7.014" y="1.67" class="f">24.04</text><text x="13.026" y="1.67" class="g">/</text><text x="15.03" y="1.67" class="c">ubuntu-latest</text></symbol><symbol id="38"><text y="1.67" class="f">43e5fec</text><text x="8.016" y="1.67" class="c">-</text><text x="10.02" y="1.67" class="c">Pin</text><text x="14.028" y="1.67" class="c">qemu-action</text><text x="26.052" y="1.67" class="c">to</text><text x="29.058" y="1.67" class="c">qemu-v7.</text><text x="37.074" y="1.67" class="f">0.0</text><text x="40.08" y="1.67" class="c">-</text><text x="41.082" y="1.67" class="f">28</text></symbol><symbol id="a"><path fill="transparent" d="M0 0h98v34H0z"/></symbol><symbol id="b"><path fill="#6f7683" d="M0 0h1.102v2.171H0z"/></symbol></defs><path class="a" d="M0 0h98v73.814H0z"/><g style="animation-duration:21.893529s;animation-iteration-count:infinite;animation-name:n;animation-timing-function:steps(1,end)"><svg width="5390"><svg><use xlink:href="#a"/><use xlink:href="#b" x="-.004"/></svg><svg x="98"><use xlink:href="#a"/><use xlink:href="#b" x="1.996"/><use xlink:href="#1"/></svg><svg x="196"><use xlink:href="#a"/><use xlink:href="#b" x="2.996"/><use xlink:href="#2"/></svg><svg x="294"><use xlink:href="#a"/><use xlink:href="#b" x="3.996"/><use xlink:href="#3"/></svg><svg x="392"><use xlink:href="#a"/><use xlink:href="#b" x="4.996"/><use xlink:href="#4"/></svg><svg x="490"><use xlink:href="#a"/><use xlink:href="#b" x="5.996"/><use xlink:href="#5"/></svg><svg x="588"><use xlink:href="#a"/><use xlink:href="#b" x="6.996"/><use xlink:href="#6"/></svg><svg x="686"><use xlink:href="#a"/><use xlink:href="#b" x="7.996"/><use xlink:href="#7"/></svg><svg x="784"><use xlink:href="#a"/><use xlink:href="#b" x="8.996"/><use xlink:href="#8"/></svg><svg x="882"><use xlink:href="#a"/><use xlink:href="#b" x="9.996"/><text y="1.67" class="c">$</text><text x="2.004" y="1.67" class="c">external</text></svg><svg x="980"><use xlink:href="#a"/><use xlink:href="#b" x="10.996"/><text y="1.67" class="c">$</text><text x="2.004" y="1.67" class="c">external-</text></svg><svg x="1078"><use xlink:href="#a"/><use xlink:href="#b" x="24.996"/><use xlink:href="#9"/></svg><svg x="1176"><use xlink:href="#a"/><use xlink:href="#b" x="25.996"/><text y="1.67" class="c">$</text><text x="2.004" y="1.67" class="c">external-issue-checker</text><text x="25.05" y="1.67" class="c">-</text></svg><svg x="1274"><use xlink:href="#a"/><use xlink:href="#b" x="26.996"/><text y="1.67" class="c">$</text><text x="2.004" y="1.67" class="c">external-issue-checker</text><text x="25.05" y="1.67" class="c">--</text></svg><svg x="1372"><use xlink:href="#a"/><use xlink:href="#b" x="27.996"/><text y="1.67" class="c">$</text><text x="2.004" y="1.67" class="c">external-issue-checker</text><text x="25.05" y="1.67" class="c">--h</text></svg><svg x="1470"><use xlink:href="#a"/><use xlink:href="#b" x="28.996"/><text y="1.67" class="c">$</text><text x="2.004" y="1.67" class="c">external-issue-checker</text><text x="25.05" y="1.67" class="c">--he</text></svg><svg x="1568"><use xlink:href="#a"/><use xlink:href="#b" x="29.996"/><text y="1.67" class="c">$</text><text x="2.004" y="1.67" class="c">external-issue-checker</text><text x="25.05" y="1.67" class="c">--hel</text></svg><svg x="1666"><use xlink:href="#a"/><use xlink:href="#b" x="30.996"/><use xlink:href="#10"/></svg><svg x="1764"><use xlink:href="#a"/><use xlink:href="#b" x="-.004" y="2.146"/><use xlink:href="#10"/></svg><svg x="1862"><use xlink:href="#a"/><use xlink:href="#b" x="-.004" y="8.659"/><use xlink:href="#10"/><use xlink:href="#11" y="4.342"/></svg><svg x="1960"><use xlink:href="#a"/><use xlink:href="#b" x="-.004" y="21.685"/><use xlink:href="#10"/><use xlink:href="#11" y="4.342"/><use xlink:href="#12" y="8.684"/><use xlink:href="#13" y="10.855"/><use xlink:href="#14" y="15.197"/><use xlink:href="#15" y="17.368"/></svg><svg x="2058"><use xlink:href="#a"/><use xlink:href="#b" x="-.004" y="28.198"/><use xlink:href="#10"/><use xlink:href="#11" y="4.342"/><use xlink:href="#12" y="8.684"/><use xlink:href="#13" y="10.855"/><use xlink:href="#14" y="15.197"/><use xlink:href="#15" y="17.368"/><use xlink:href="#16" y="21.71"/><use xlink:href="#17" y="23.881"/><use xlink:href="#18" y="26.052"/></svg><svg x="2156"><use xlink:href="#a"/><use xlink:href="#b" x="-.004" y="54.25"/><use xlink:href="#10"/><use xlink:href="#11" y="4.342"/><use xlink:href="#12" y="8.684"/><use xlink:href="#13" y="10.855"/><use xlink:href="#14" y="15.197"/><use xlink:href="#15" y="17.368"/><use xlink:href="#16" y="21.71"/><use xlink:href="#17" y="23.881"/><use xlink:href="#18" y="26.052"/><use xlink:href="#19" y="28.223"/><use xlink:href="#20" y="30.394"/><use xlink:href="#21" y="32.565"/><use xlink:href="#22" y="34.736"/><use xlink:href="#23" y="36.907"/><use xlink:href="#21" y="39.078"/><use xlink:href="#22" y="41.249"/><use xlink:href="#24" y="43.42"/><use xlink:href="#25" y="45.591"/><use xlink:href="#26" y="47.762"/><use xlink:href="#27" y="49.933"/><use xlink:href="#18" y="52.104"/></svg><svg x="2254"><use xlink:href="#a"/><use xlink:href="#b" x="-.004" y="56.421"/><use xlink:href="#10"/><use xlink:href="#11" y="4.342"/><use xlink:href="#12" y="8.684"/><use xlink:href="#13" y="10.855"/><use xlink:href="#14" y="15.197"/><use xlink:href="#15" y="17.368"/><use xlink:href="#16" y="21.71"/><use xlink:href="#17" y="23.881"/><use xlink:href="#18" y="26.052"/><use xlink:href="#19" y="28.223"/><use xlink:href="#20" y="30.394"/><use xlink:href="#21" y="32.565"/><use xlink:href="#22" y="34.736"/><use xlink:href="#23" y="36.907"/><use xlink:href="#21" y="39.078"/><use xlink:href="#22" y="41.249"/><use xlink:href="#24" y="43.42"/><use xlink:href="#25" y="45.591"/><use xlink:href="#26" y="47.762"/><use xlink:href="#27" y="49.933"/><use xlink:href="#18" y="52.104"/></svg><svg x="2352"><use xlink:href="#a"/><use xlink:href="#b" x="1.996" y="56.421"/><use xlink:href="#10"/><use xlink:href="#11" y="4.342"/><use xlink:href="#12" y="8.684"/><use xlink:href="#13" y="10.855"/><use xlink:href="#14" y="15.197"/><use xlink:href="#15" y="17.368"/><use xlink:href="#16" y="21.71"/><use xlink:href="#17" y="23.881"/><use xlink:href="#18" y="26.052"/><use xlink:href="#19" y="28.223"/><use xlink:href="#20" y="30.394"/><use xlink:href="#21" y="32.565"/><use xlink:href="#22" y="34.736"/><use xlink:href="#23" y="36.907"/><use xlink:href="#21" y="39.078"/><use xlink:href="#22" y="41.249"/><use xlink:href="#24" y="43.42"/><use xlink:href="#25" y="45.591"/><use xlink:href="#26" y="47.762"/><use xlink:href="#27" y="49.933"/><use xlink:href="#18" y="52.104"/><use xlink:href="#1" y="56.446"/></svg><svg x="2450"><use xlink:href="#a"/><use xlink:href="#b" x="2.996" y="56.421"/><use xlink:href="#10"/><use xlink:href="#11" y="4.342"/><use xlink:href="#12" y="8.684"/><use xlink:href="#13" y="10.855"/><use xlink:href="#14" y="15.197"/><use xlink:href="#15" y="17.368"/><use xlink:href="#16" y="21.71"/><use xlink:href="#17" y="23.881"/><use xlink:href="#18" y="26.052"/><use xlink:href="#19" y="28.223"/><use xlink:href="#20" y="30.394"/><use xlink:href="#21" y="32.565"/><use xlink:href="#22" y="34.736"/><use xlink:href="#23" y="36.907"/><use xlink:href="#21" y="39.078"/><use xlink:href="#22" y="41.249"/><use xlink:href="#24" y="43.42"/><use xlink:href="#25" y="45.591"/><use xlink:href="#26" y="47.762"/><use xlink:href="#27" y="49.933"/><use xlink:href="#18" y="52.104"/><use xlink:href="#2" y="56.446"/></svg><svg x="2548"><use xlink:href="#a"/><use xlink:href="#b" x="3.996" y="56.421"/><use xlink:href="#10"/><use xlink:href="#11" y="4.342"/><use xlink:href="#12" y="8.684"/><use xlink:href="#13" y="10.855"/><use xlink:href="#14" y="15.197"/><use xlink:href="#15" y="17.368"/><use xlink:href="#16" y="21.71"/><use xlink:href="#17" y="23.881"/><use xlink:href="#18" y="26.052"/><use xlink:href="#19" y="28.223"/><use xlink:href="#20" y="30.394"/><use xlink:href="#21" y="32.565"/><use xlink:href="#22" y="34.736"/><use xlink:href="#23" y="36.907"/><use xlink:href="#21" y="39.078"/><use xlink:href="#22" y="41.249"/><use xlink:href="#24" y="43.42"/><use xlink:href="#25" y="45.591"/><use xlink:href="#26" y="47.762"/><use xlink:href="#27" y="49.933"/><use xlink:href="#18" y="52.104"/><use xlink:href="#3" y="56.446"/></svg><svg x="2646"><use xlink:href="#a"/><use xlink:href="#b" x="4.996" y="56.421"/><use xlink:href="#10"/><use xlink:href="#11" y="4.342"/><use xlink:href="#12" y="8.684"/><use xlink:href="#13" y="10.855"/><use xlink:href="#14" y="15.197"/><use xlink:href="#15" y="17.368"/><use xlink:href="#16" y="21.71"/><use xlink:href="#17" y="23.881"/><use xlink:href="#18" y="26.052"/><use xlink:href="#19" y="28.223"/><use xlink:href="#20" y="30.394"/><use xlink:href="#21" y="32.565"/><use xlink:href="#22" y="34.736"/><use xlink:href="#23" y="36.907"/><use xlink:href="#21" y="39.078"/><use xlink:href="#22" y="41.249"/><use xlink:href="#24" y="43.42"/><use xlink:href="#25" y="45.591"/><use xlink:href="#26" y="47.762"/><use xlink:href="#27" y="49.933"/><use xlink:href="#18" y="52.104"/><use xlink:href="#4" y="56.446"/></svg><svg x="2744"><use xlink:href="#a"/><use xlink:href="#b" x="5.996" y="56.421"/><use xlink:href="#10"/><use xlink:href="#11" y="4.342"/><use xlink:href="#12" y="8.684"/><use xlink:href="#13" y="10.855"/><use xlink:href="#14" y="15.197"/><use xlink:href="#15" y="17.368"/><use xlink:href="#16" y="21.71"/><use xlink:href="#17" y="23.881"/><use xlink:href="#18" y="26.052"/><use xlink:href="#19" y="28.223"/><use xlink:href="#20" y="30.394"/><use xlink:href="#21" y="32.565"/><use xlink:href="#22" y="34.736"/><use xlink:href="#23" y="36.907"/><use xlink:href="#21" y="39.078"/><use xlink:href="#22" y="41.249"/><use xlink:href="#24" y="43.42"/><use xlink:href="#25" y="45.591"/><use xlink:href="#26" y="47.762"/><use xlink:href="#27" y="49.933"/><use xlink:href="#18" y="52.104"/><use xlink:href="#5" y="56.446"/></svg><svg x="2842"><use xlink:href="#a"/><use xlink:href="#b" x="6.996" y="56.421"/><use xlink:href="#10"/><use xlink:href="#11" y="4.342"/><use xlink:href="#12" y="8.684"/><use xlink:href="#13" y="10.855"/><use xlink:href="#14" y="15.197"/><use xlink:href="#15" y="17.368"/><use xlink:href="#16" y="21.71"/><use xlink:href="#17" y="23.881"/><use xlink:href="#18" y="26.052"/><use xlink:href="#19" y="28.223"/><use xlink:href="#20" y="30.394"/><use xlink:href="#21" y="32.565"/><use xlink:href="#22" y="34.736"/><use xlink:href="#23" y="36.907"/><use xlink:href="#21" y="39.078"/><use xlink:href="#22" y="41.249"/><use xlink:href="#24" y="43.42"/><use xlink:href="#25" y="45.591"/><use xlink:href="#26" y="47.762"/><use xlink:href="#27" y="49.933"/><use xlink:href="#18" y="52.104"/><use xlink:href="#6" y="56.446"/></svg><svg x="2940"><use xlink:href="#a"/><use xlink:href="#b" x="7.996" y="56.421"/><use xlink:href="#10"/><use xlink:href="#11" y="4.342"/><use xlink:href="#12" y="8.684"/><use xlink:href="#13" y="10.855"/><use xlink:href="#14" y="15.197"/><use xlink:href="#15" y="17.368"/><use xlink:href="#16" y="21.71"/><use xlink:href="#17" y="23.881"/><use xlink:href="#18" y="26.052"/><use xlink:href="#19" y="28.223"/><use xlink:href="#20" y="30.394"/><use xlink:href="#21" y="32.565"/><use xlink:href="#22" y="34.736"/><use xlink:href="#23" y="36.907"/><use xlink:href="#21" y="39.078"/><use xlink:href="#22" y="41.249"/><use xlink:href="#24" y="43.42"/><use xlink:href="#25" y="45.591"/><use xlink:href="#26" y="47.762"/><use xlink:href="#27" y="49.933"/><use xlink:href="#18" y="52.104"/><use xlink:href="#7" y="56.446"/></svg><svg x="3038"><use xlink:href="#a"/><use xlink:href="#b" x="8.996" y="56.421"/><use xlink:href="#10"/><use xlink:href="#11" y="4.342"/><use xlink:href="#12" y="8.684"/><use xlink:href="#13" y="10.855"/><use xlink:href="#14" y="15.197"/><use xlink:href="#15" y="17.368"/><use xlink:href="#16" y="21.71"/><use xlink:href="#17" y="23.881"/><use xlink:href="#18" y="26.052"/><use xlink:href="#19" y="28.223"/><use xlink:href="#20" y="30.394"/><use xlink:href="#21" y="32.565"/><use xlink:href="#22" y="34.736"/><use xlink:href="#23" y="36.907"/><use xlink:href="#21" y="39.078"/><use xlink:href="#22" y="41.249"/><use xlink:href="#24" y="43.42"/><use xlink:href="#25" y="45.591"/><use xlink:href="#26" y="47.762"/><use xlink:href="#27" y="49.933"/><use xlink:href="#18" y="52.104"/><use xlink:href="#8" y="56.446"/></svg><svg x="3136"><use xlink:href="#a"/><use xlink:href="#b" x="24.996" y="56.421"/><use xlink:href="#10"/><use xlink:href="#11" y="4.342"/><use xlink:href="#12" y="8.684"/><use xlink:href="#13" y="10.855"/><use xlink:href="#14" y="15.197"/><use xlink:href="#15" y="17.368"/><use xlink:href="#16" y="21.71"/><use xlink:href="#17" y="23.881"/><use xlink:href="#18" y="26.052"/><use xlink:href="#19" y="28.223"/><use xlink:href="#20" y="30.394"/><use xlink:href="#21" y="32.565"/><use xlink:href="#22" y="34.736"/><use xlink:href="#23" y="36.907"/><use xlink:href="#21" y="39.078"/><use xlink:href="#22" y="41.249"/><use xlink:href="#24" y="43.42"/><use xlink:href="#25" y="45.591"/><use xlink:href="#26" y="47.762"/><use xlink:href="#27" y="49.933"/><use xlink:href="#18" y="52.104"/><use xlink:href="#9" y="56.446"/></svg><svg x="3234"><use xlink:href="#a"/><use xlink:href="#b" x="25.996" y="56.421"/><use xlink:href="#10"/><use xlink:href="#11" y="4.342"/><use xlink:href="#12" y="8.684"/><use xlink:href="#13" y="10.855"/><use xlink:href="#14" y="15.197"/><use xlink:href="#15" y="17.368"/><use xlink:href="#16" y="21.71"/><use xlink:href="#17" y="23.881"/><use xlink:href="#18" y="26.052"/><use xlink:href="#19" y="28.223"/><use xlink:href="#20" y="30.394"/><use xlink:href="#21" y="32.565"/><use xlink:href="#22" y="34.736"/><use xlink:href="#23" y="36.907"/><use xlink:href="#21" y="39.078"/><use xlink:href="#22" y="41.249"/><use xlink:href="#24" y="43.42"/><use xlink:href="#25" y="45.591"/><use xlink:href="#26" y="47.762"/><use xlink:href="#27" y="49.933"/><use xlink:href="#18" y="52.104"/><text y="58.116" class="c">$</text><text x="2.004" y="58.116" class="c">external-issue-checker</text><text x="25.05" y="58.116" class="c">~</text></svg><svg x="3332"><use xlink:href="#a"/><use xlink:href="#b" x="26.996" y="56.421"/><use xlink:href="#10"/><use xlink:href="#11" y="4.342"/><use xlink:href="#12" y="8.684"/><use xlink:href="#13" y="10.855"/><use xlink:href="#14" y="15.197"/><use xlink:href="#15" y="17.368"/><use xlink:href="#16" y="21.71"/><use xlink:href="#17" y="23.881"/><use xlink:href="#18" y="26.052"/><use xlink:href="#19" y="28.223"/><use xlink:href="#20" y="30.394"/><use xlink:href="#21" y="32.565"/><use xlink:href="#22" y="34.736"/><use xlink:href="#23" y="36.907"/><use xlink:href="#21" y="39.078"/><use xlink:href="#22" y="41.249"/><use xlink:href="#24" y="43.42"/><use xlink:href="#25" y="45.591"/><use xlink:href="#26" y="47.762"/><use xlink:href="#27" y="49.933"/><use xlink:href="#18" y="52.104"/><text y="58.116" class="c">$</text><text x="2.004" y="58.116" class="c">external-issue-checker</text><text x="25.05" y="58.116" class="c">~/</text></svg><svg x="3430"><use xlink:href="#a"/><use xlink:href="#b" x="27.996" y="56.421"/><use xlink:href="#10"/><use xlink:href="#11" y="4.342"/><use xlink:href="#12" y="8.684"/><use xlink:href="#13" y="10.855"/><use xlink:href="#14" y="15.197"/><use xlink:href="#15" y="17.368"/><use xlink:href="#16" y="21.71"/><use xlink:href="#17" y="23.881"/><use xlink:href="#18" y="26.052"/><use xlink:href="#19" y="28.223"/><use xlink:href="#20" y="30.394"/><use xlink:href="#21" y="32.565"/><use xlink:href="#22" y="34.736"/><use xlink:href="#23" y="36.907"/><use xlink:href="#21" y="39.078"/><use xlink:href="#22" y="41.249"/><use xlink:href="#24" y="43.42"/><use xlink:href="#25" y="45.591"/><use xlink:href="#26" y="47.762"/><use xlink:href="#27" y="49.933"/><use xlink:href="#18" y="52.104"/><text y="58.116" class="c">$</text><text x="2.004" y="58.116" class="c">external-issue-checker</text><text x="25.05" y="58.116" class="c">~/c</text></svg><svg x="3528"><use xlink:href="#a"/><use xlink:href="#b" x="28.996" y="56.421"/><use xlink:href="#10"/><use xlink:href="#11" y="4.342"/><use xlink:href="#12" y="8.684"/><use xlink:href="#13" y="10.855"/><use xlink:href="#14" y="15.197"/><use xlink:href="#15" y="17.368"/><use xlink:href="#16" y="21.71"/><use xlink:href="#17" y="23.881"/><use xlink:href="#18" y="26.052"/><use xlink:href="#19" y="28.223"/><use xlink:href="#20" y="30.394"/><use xlink:href="#21" y="32.565"/><use xlink:href="#22" y="34.736"/><use xlink:href="#23" y="36.907"/><use xlink:href="#21" y="39.078"/><use xlink:href="#22" y="41.249"/><use xlink:href="#24" y="43.42"/><use xlink:href="#25" y="45.591"/><use xlink:href="#26" y="47.762"/><use xlink:href="#27" y="49.933"/><use xlink:href="#18" y="52.104"/><text y="58.116" class="c">$</text><text x="2.004" y="58.116" class="c">external-issue-checker</text><text x="25.05" y="58.116" class="c">~/co</text></svg><svg x="3626"><use xlink:href="#a"/><use xlink:href="#b" x="29.996" y="56.421"/><use xlink:href="#10"/><use xlink:href="#11" y="4.342"/><use xlink:href="#12" y="8.684"/><use xlink:href="#13" y="10.855"/><use xlink:href="#14" y="15.197"/><use xlink:href="#15" y="17.368"/><use xlink:href="#16" y="21.71"/><use xlink:href="#17" y="23.881"/><use xlink:href="#18" y="26.052"/><use xlink:href="#19" y="28.223"/><use xlink:href="#20" y="30.394"/><use xlink:href="#21" y="32.565"/><use xlink:href="#22" y="34.736"/><use xlink:href="#23" y="36.907"/><use xlink:href="#21" y="39.078"/><use xlink:href="#22" y="41.249"/><use xlink:href="#24" y="43.42"/><use xlink:href="#25" y="45.591"/><use xlink:href="#26" y="47.762"/><use xlink:href="#27" y="49.933"/><use xlink:href="#18" y="52.104"/><text y="58.116" class="c">$</text><text x="2.004" y="58.116" class="c">external-issue-checker</text><text x="25.05" y="58.116" class="c">~/cod</text></svg><svg x="3724"><use xlink:href="#a"/><use xlink:href="#b" x="30.996" y="56.421"/><use xlink:href="#10"/><use xlink:href="#11" y="4.342"/><use xlink:href="#12" y="8.684"/><use xlink:href="#13" y="10.855"/><use xlink:href="#14" y="15.197"/><use xlink:href="#15" y="17.368"/><use xlink:href="#16" y="21.71"/><use xlink:href="#17" y="23.881"/><use xlink:href="#18" y="26.052"/><use xlink:href="#19" y="28.223"/><use xlink:href="#20" y="30.394"/><use xlink:href="#21" y="32.565"/><use xlink:href="#22" y="34.736"/><use xlink:href="#23" y="36.907"/><use xlink:href="#21" y="39.078"/><use xlink:href="#22" y="41.249"/><use xlink:href="#24" y="43.42"/><use xlink:href="#25" y="45.591"/><use xlink:href="#26" y="47.762"/><use xlink:href="#27" y="49.933"/><use xlink:href="#18" y="52.104"/><text y="58.116" class="c">$</text><text x="2.004" y="58.116" class="c">external-issue-checker</text><text x="25.05" y="58.116" class="c">~/code</text></svg><svg x="3822"><use xlink:href="#a"/><use xlink:href="#b" x="31.996" y="56.421"/><use xlink:href="#10"/><use xlink:href="#11" y="4.342"/><use xlink:href="#12" y="8.684"/><use xlink:href="#13" y="10.855"/><use xlink:href="#14" y="15.197"/><use xlink:href="#15" y="17.368"/><use xlink:href="#16" y="21.71"/><use xlink:href="#17" y="23.881"/><use xlink:href="#18" y="26.052"/><use xlink:href="#19" y="28.223"/><use xlink:href="#20" y="30.394"/><use xlink:href="#21" y="32.565"/><use xlink:href="#22" y="34.736"/><use xlink:href="#23" y="36.907"/><use xlink:href="#21" y="39.078"/><use xlink:href="#22" y="41.249"/><use xlink:href="#24" y="43.42"/><use xlink:href="#25" y="45.591"/><use xlink:href="#26" y="47.762"/><use xlink:href="#27" y="49.933"/><use xlink:href="#18" y="52.104"/><text y="58.116" class="c">$</text><text x="2.004" y="58.116" class="c">external-issue-checker</text><text x="25.05" y="58.116" class="c">~/code/</text></svg><svg x="3920"><use xlink:href="#a"/><use xlink:href="#b" x="32.996" y="56.421"/><use xlink:href="#10"/><use xlink:href="#11" y="4.342"/><use xlink:href="#12" y="8.684"/><use xlink:href="#13" y="10.855"/><use xlink:href="#14" y="15.197"/><use xlink:href="#15" y="17.368"/><use xlink:href="#16" y="21.71"/><use xlink:href="#17" y="23.881"/><use xlink:href="#18" y="26.052"/><use xlink:href="#19" y="28.223"/><use xlink:href="#20" y="30.394"/><use xlink:href="#21" y="32.565"/><use xlink:href="#22" y="34.736"/><use xlink:href="#23" y="36.907"/><use xlink:href="#21" y="39.078"/><use xlink:href="#22" y="41.249"/><use xlink:href="#24" y="43.42"/><use xlink:href="#25" y="45.591"/><use xlink:href="#26" y="47.762"/><use xlink:href="#27" y="49.933"/><use xlink:href="#18" y="52.104"/><text y="58.116" class="c">$</text><text x="2.004" y="58.116" class="c">external-issue-checker</text><text x="25.05" y="58.116" class="c">~/code/m</text></svg><svg x="4018"><use xlink:href="#a"/><use xlink:href="#b" x="33.996" y="56.421"/><use xlink:href="#10"/><use xlink:href="#11" y="4.342"/><use xlink:href="#12" y="8.684"/><use xlink:href="#13" y="10.855"/><use xlink:href="#14" y="15.197"/><use xlink:href="#15" y="17.368"/><use xlink:href="#16" y="21.71"/><use xlink:href="#17" y="23.881"/><use xlink:href="#18" y="26.052"/><use xlink:href="#19" y="28.223"/><use xlink:href="#20" y="30.394"/><use xlink:href="#21" y="32.565"/><use xlink:href="#22" y="34.736"/><use xlink:href="#23" y="36.907"/><use xlink:href="#21" y="39.078"/><use xlink:href="#22" y="41.249"/><use xlink:href="#24" y="43.42"/><use xlink:href="#25" y="45.591"/><use xlink:href="#26" y="47.762"/><use xlink:href="#27" y="49.933"/><use xlink:href="#18" y="52.104"/><text y="58.116" class="c">$</text><text x="2.004" y="58.116" class="c">external-issue-checker</text><text x="25.05" y="58.116" class="c">~/code/ma</text></svg><svg x="4116"><use xlink:href="#a"/><use xlink:href="#b" x="37.996" y="56.421"/><use xlink:href="#10"/><use xlink:href="#11" y="4.342"/><use xlink:href="#12" y="8.684"/><use xlink:href="#13" y="10.855"/><use xlink:href="#14" y="15.197"/><use xlink:href="#15" y="17.368"/><use xlink:href="#16" y="21.71"/><use xlink:href="#17" y="23.881"/><use xlink:href="#18" y="26.052"/><use xlink:href="#19" y="28.223"/><use xlink:href="#20" y="30.394"/><use xlink:href="#21" y="32.565"/><use xlink:href="#22" y="34.736"/><use xlink:href="#23" y="36.907"/><use xlink:href="#21" y="39.078"/><use xlink:href="#22" y="41.249"/><use xlink:href="#24" y="43.42"/><use xlink:href="#25" y="45.591"/><use xlink:href="#26" y="47.762"/><use xlink:href="#27" y="49.933"/><use xlink:href="#18" y="52.104"/><use xlink:href="#28" y="56.446"/></svg><svg x="4214"><use xlink:href="#a"/><use xlink:href="#b" x="-.004" y="58.592"/><use xlink:href="#10"/><use xlink:href="#11" y="4.342"/><use xlink:href="#12" y="8.684"/><use xlink:href="#13" y="10.855"/><use xlink:href="#14" y="15.197"/><use xlink:href="#15" y="17.368"/><use xlink:href="#16" y="21.71"/><use xlink:href="#17" y="23.881"/><use xlink:href="#18" y="26.052"/><use xlink:href="#19" y="28.223"/><use xlink:href="#20" y="30.394"/><use xlink:href="#21" y="32.565"/><use xlink:href="#22" y="34.736"/><use xlink:href="#23" y="36.907"/><use xlink:href="#21" y="39.078"/><use xlink:href="#22" y="41.249"/><use xlink:href="#24" y="43.42"/><use xlink:href="#25" y="45.591"/><use xlink:href="#26" y="47.762"/><use xlink:href="#27" y="49.933"/><use xlink:href="#18" y="52.104"/><use xlink:href="#28" y="56.446"/></svg><svg x="4312"><use xlink:href="#a"/><use xlink:href="#b" x="-.004" y="60.763"/><use xlink:href="#10"/><use xlink:href="#11" y="4.342"/><use xlink:href="#12" y="8.684"/><use xlink:href="#13" y="10.855"/><use xlink:href="#14" y="15.197"/><use xlink:href="#15" y="17.368"/><use xlink:href="#16" y="21.71"/><use xlink:href="#17" y="23.881"/><use xlink:href="#18" y="26.052"/><use xlink:href="#19" y="28.223"/><use xlink:href="#20" y="30.394"/><use xlink:href="#21" y="32.565"/><use xlink:href="#22" y="34.736"/><use xlink:href="#23" y="36.907"/><use xlink:href="#21" y="39.078"/><use xlink:href="#22" y="41.249"/><use xlink:href="#24" y="43.42"/><use xlink:href="#25" y="45.591"/><use xlink:href="#26" y="47.762"/><use xlink:href="#27" y="49.933"/><use xlink:href="#18" y="52.104"/><use xlink:href="#28" y="56.446"/><use xlink:href="#29" y="58.617"/></svg><svg x="4410"><use xlink:href="#a"/><use xlink:href="#b" x="-.004" y="62.934"/><use xlink:href="#10"/><use xlink:href="#11" y="4.342"/><use xlink:href="#12" y="8.684"/><use xlink:href="#13" y="10.855"/><use xlink:href="#14" y="15.197"/><use xlink:href="#15" y="17.368"/><use xlink:href="#16" y="21.71"/><use xlink:href="#17" y="23.881"/><use xlink:href="#18" y="26.052"/><use xlink:href="#19" y="28.223"/><use xlink:href="#20" y="30.394"/><use xlink:href="#21" y="32.565"/><use xlink:href="#22" y="34.736"/><use xlink:href="#23" y="36.907"/><use xlink:href="#21" y="39.078"/><use xlink:href="#22" y="41.249"/><use xlink:href="#24" y="43.42"/><use xlink:href="#25" y="45.591"/><use xlink:href="#26" y="47.762"/><use xlink:href="#27" y="49.933"/><use xlink:href="#18" y="52.104"/><use xlink:href="#28" y="56.446"/><use xlink:href="#29" y="58.617"/><use xlink:href="#30" y="60.788"/></svg><svg x="4508"><use xlink:href="#a"/><use xlink:href="#b" x="-.004" y="65.105"/><use xlink:href="#10"/><use xlink:href="#11" y="4.342"/><use xlink:href="#12" y="8.684"/><use xlink:href="#13" y="10.855"/><use xlink:href="#14" y="15.197"/><use xlink:href="#15" y="17.368"/><use xlink:href="#16" y="21.71"/><use xlink:href="#17" y="23.881"/><use xlink:href="#18" y="26.052"/><use xlink:href="#19" y="28.223"/><use xlink:href="#20" y="30.394"/><use xlink:href="#21" y="32.565"/><use xlink:href="#22" y="34.736"/><use xlink:href="#23" y="36.907"/><use xlink:href="#21" y="39.078"/><use xlink:href="#22" y="41.249"/><use xlink:href="#24" y="43.42"/><use xlink:href="#25" y="45.591"/><use xlink:href="#26" y="47.762"/><use xlink:href="#27" y="49.933"/><use xlink:href="#18" y="52.104"/><use xlink:href="#28" y="56.446"/><use xlink:href="#29" y="58.617"/><use xlink:href="#30" y="60.788"/><use xlink:href="#31" y="62.959"/></svg><svg x="4606"><use xlink:href="#a"/><use xlink:href="#b" x="-.004" y="69.447"/><use xlink:href="#10"/><use xlink:href="#11" y="4.342"/><use xlink:href="#12" y="8.684"/><use xlink:href="#13" y="10.855"/><use xlink:href="#14" y="15.197"/><use xlink:href="#15" y="17.368"/><use xlink:href="#16" y="21.71"/><use xlink:href="#17" y="23.881"/><use xlink:href="#18" y="26.052"/><use xlink:href="#19" y="28.223"/><use xlink:href="#20" y="30.394"/><use xlink:href="#21" y="32.565"/><use xlink:href="#22" y="34.736"/><use xlink:href="#23" y="36.907"/><use xlink:href="#21" y="39.078"/><use xlink:href="#22" y="41.249"/><use xlink:href="#24" y="43.42"/><use xlink:href="#25" y="45.591"/><use xlink:href="#26" y="47.762"/><use xlink:href="#27" y="49.933"/><use xlink:href="#18" y="52.104"/><use xlink:href="#28" y="56.446"/><use xlink:href="#29" y="58.617"/><use xlink:href="#30" y="60.788"/><use xlink:href="#31" y="62.959"/><use xlink:href="#32" y="67.301"/></svg><svg x="4704"><use xlink:href="#a"/><use xlink:href="#b" x="-.004" y="71.618"/><use xlink:href="#11" y="2.171"/><use xlink:href="#12" y="6.513"/><use xlink:href="#13" y="8.684"/><use xlink:href="#14" y="13.026"/><use xlink:href="#15" y="15.197"/><use xlink:href="#16" y="19.539"/><use xlink:href="#17" y="21.71"/><use xlink:href="#18" y="23.881"/><use xlink:href="#19" y="26.052"/><use xlink:href="#20" y="28.223"/><use xlink:href="#21" y="30.394"/><use xlink:href="#22" y="32.565"/><use xlink:href="#23" y="34.736"/><use xlink:href="#21" y="36.907"/><use xlink:href="#22" y="39.078"/><use xlink:href="#24" y="41.249"/><use xlink:href="#25" y="43.42"/><use xlink:href="#26" y="45.591"/><use xlink:href="#27" y="47.762"/><use xlink:href="#18" y="49.933"/><use xlink:href="#28" y="54.275"/><use xlink:href="#29" y="56.446"/><use xlink:href="#30" y="58.617"/><use xlink:href="#31" y="60.788"/><use xlink:href="#32" y="65.13"/><use xlink:href="#33" y="67.301"/><use xlink:href="#34" y="69.472"/></svg><svg x="4802"><use xlink:href="#a"/><use xlink:href="#b" x="-.004" y="71.618"/><use xlink:href="#12" y="2.171"/><use xlink:href="#13" y="4.342"/><use xlink:href="#14" y="8.684"/><use xlink:href="#15" y="10.855"/><use xlink:href="#16" y="15.197"/><use xlink:href="#17" y="17.368"/><use xlink:href="#18" y="19.539"/><use xlink:href="#19" y="21.71"/><use xlink:href="#20" y="23.881"/><use xlink:href="#21" y="26.052"/><use xlink:href="#22" y="28.223"/><use xlink:href="#23" y="30.394"/><use xlink:href="#21" y="32.565"/><use xlink:href="#22" y="34.736"/><use xlink:href="#24" y="36.907"/><use xlink:href="#25" y="39.078"/><use xlink:href="#26" y="41.249"/><use xlink:href="#27" y="43.42"/><use xlink:href="#18" y="45.591"/><use xlink:href="#28" y="49.933"/><use xlink:href="#29" y="52.104"/><use xlink:href="#30" y="54.275"/><use xlink:href="#31" y="56.446"/><use xlink:href="#32" y="60.788"/><use xlink:href="#33" y="62.959"/><use xlink:href="#34" y="65.13"/><use xlink:href="#35" y="69.472"/></svg><svg x="4900"><use xlink:href="#a"/><use xlink:href="#b" x="-.004" y="71.618"/><use xlink:href="#13"/><use xlink:href="#14" y="4.342"/><use xlink:href="#15" y="6.513"/><use xlink:href="#16" y="10.855"/><use xlink:href="#17" y="13.026"/><use xlink:href="#18" y="15.197"/><use xlink:href="#19" y="17.368"/><use xlink:href="#20" y="19.539"/><use xlink:href="#21" y="21.71"/><use xlink:href="#22" y="23.881"/><use xlink:href="#23" y="26.052"/><use xlink:href="#21" y="28.223"/><use xlink:href="#22" y="30.394"/><use xlink:href="#24" y="32.565"/><use xlink:href="#25" y="34.736"/><use xlink:href="#26" y="36.907"/><use xlink:href="#27" y="39.078"/><use xlink:href="#18" y="41.249"/><use xlink:href="#28" y="45.591"/><use xlink:href="#29" y="47.762"/><use xlink:href="#30" y="49.933"/><use xlink:href="#31" y="52.104"/><use xlink:href="#32" y="56.446"/><use xlink:href="#33" y="58.617"/><use xlink:href="#34" y="60.788"/><use xlink:href="#35" y="65.13"/><use xlink:href="#36" y="67.301"/><use xlink:href="#37" y="69.472"/></svg><svg x="4998"><use xlink:href="#a"/><use xlink:href="#b" x="-.004" y="71.618"/><use xlink:href="#14"/><use xlink:href="#15" y="2.171"/><use xlink:href="#16" y="6.513"/><use xlink:href="#17" y="8.684"/><use xlink:href="#18" y="10.855"/><use xlink:href="#19" y="13.026"/><use xlink:href="#20" y="15.197"/><use xlink:href="#21" y="17.368"/><use xlink:href="#22" y="19.539"/><use xlink:href="#23" y="21.71"/><use xlink:href="#21" y="23.881"/><use xlink:href="#22" y="26.052"/><use xlink:href="#24" y="28.223"/><use xlink:href="#25" y="30.394"/><use xlink:href="#26" y="32.565"/><use xlink:href="#27" y="34.736"/><use xlink:href="#18" y="36.907"/><use xlink:href="#28" y="41.249"/><use xlink:href="#29" y="43.42"/><use xlink:href="#30" y="45.591"/><use xlink:href="#31" y="47.762"/><use xlink:href="#32" y="52.104"/><use xlink:href="#33" y="54.275"/><use xlink:href="#34" y="56.446"/><use xlink:href="#35" y="60.788"/><use xlink:href="#36" y="62.959"/><use xlink:href="#37" y="65.13"/><use xlink:href="#38" y="69.472"/></svg><svg x="5096"><use xlink:href="#a"/><use xlink:href="#b" x="-.004" y="71.618"/><use xlink:href="#16" y="2.171"/><use xlink:href="#17" y="4.342"/><use xlink:href="#18" y="6.513"/><use xlink:href="#19" y="8.684"/><use xlink:href="#20" y="10.855"/><use xlink:href="#21" y="13.026"/><use xlink:href="#22" y="15.197"/><use xlink:href="#23" y="17.368"/><use xlink:href="#21" y="19.539"/><use xlink:href="#22" y="21.71"/><use xlink:href="#24" y="23.881"/><use xlink:href="#25" y="26.052"/><use xlink:href="#26" y="28.223"/><use xlink:href="#27" y="30.394"/><use xlink:href="#18" y="32.565"/><use xlink:href="#28" y="36.907"/><use xlink:href="#29" y="39.078"/><use xlink:href="#30" y="41.249"/><use xlink:href="#31" y="43.42"/><use xlink:href="#32" y="47.762"/><use xlink:href="#33" y="49.933"/><use xlink:href="#34" y="52.104"/><use xlink:href="#35" y="56.446"/><use xlink:href="#36" y="58.617"/><use xlink:href="#37" y="60.788"/><use xlink:href="#38" y="65.13"/><use xlink:href="#36" y="67.301"/><use xlink:href="#37" y="69.472"/></svg><svg x="5194"><use xlink:href="#a"/><use xlink:href="#b" x="1.996" y="71.618"/><use xlink:href="#16" y="2.171"/><use xlink:href="#17" y="4.342"/><use xlink:href="#18" y="6.513"/><use xlink:href="#19" y="8.684"/><use xlink:href="#20" y="10.855"/><use xlink:href="#21" y="13.026"/><use xlink:href="#22" y="15.197"/><use xlink:href="#23" y="17.368"/><use xlink:href="#21" y="19.539"/><use xlink:href="#22" y="21.71"/><use xlink:href="#24" y="23.881"/><use xlink:href="#25" y="26.052"/><use xlink:href="#26" y="28.223"/><use xlink:href="#27" y="30.394"/><use xlink:href="#18" y="32.565"/><use xlink:href="#28" y="36.907"/><use xlink:href="#29" y="39.078"/><use xlink:href="#30" y="41.249"/><use xlink:href="#31" y="43.42"/><use xlink:href="#32" y="47.762"/><use xlink:href="#33" y="49.933"/><use xlink:href="#34" y="52.104"/><use xlink:href="#35" y="56.446"/><use xlink:href="#36" y="58.617"/><use xlink:href="#37" y="60.788"/><use xlink:href="#38" y="65.13"/><use xlink:href="#36" y="67.301"/><use xlink:href="#37" y="69.472"/><use xlink:href="#1" y="71.643"/></svg><svg x="5292"><use xlink:href="#a"/><use xlink:href="#b" x="-.004" y="71.618"/><use xlink:href="#17"/><use xlink:href="#18" y="2.171"/><use xlink:href="#19" y="4.342"/><use xlink:href="#20" y="6.513"/><use xlink:href="#21" y="8.684"/><use xlink:href="#22" y="10.855"/><use xlink:href="#23" y="13.026"/><use xlink:href="#21" y="15.197"/><use xlink:href="#22" y="17.368"/><use xlink:href="#24" y="19.539"/><use xlink:href="#25" y="21.71"/><use xlink:href="#26" y="23.881"/><use xlink:href="#27" y="26.052"/><use xlink:href="#18" y="28.223"/><use xlink:href="#28" y="32.565"/><use xlink:href="#29" y="34.736"/><use xlink:href="#30" y="36.907"/><use xlink:href="#31" y="39.078"/><use xlink:href="#32" y="43.42"/><use xlink:href="#33" y="45.591"/><use xlink:href="#34" y="47.762"/><use xlink:href="#35" y="52.104"/><use xlink:href="#36" y="54.275"/><use xlink:href="#37" y="56.446"/><use xlink:href="#38" y="60.788"/><use xlink:href="#36" y="62.959"/><use xlink:href="#37" y="65.13"/><use xlink:href="#1" y="67.301"/><text y="71.142" class="c">exit</text></svg></svg></g></g></svg></svg>