<svg xmlns="http://www.w3.org/2000/svg" xmlns:xlink="http://www.w3.org/1999/xlink" width="1070" height="629.59"><rect width="1070" height="629.59" rx="0" ry="0" class="a"/><svg height="629.59" viewBox="0 0 107 62.959" width="1070" xmlns="http://www.w3.org/2000/svg" xmlns:xlink="http://www.w3.org/1999/xlink"><style>@keyframes n{0%{transform:translateX(0)}.04%{transform:translateX(-107px)}7.05%{transform:translateX(-214px)}8.12%{transform:translateX(-321px)}9.25%{transform:translateX(-428px)}10.17%{transform:translateX(-535px)}10.44%{transform:translateX(-642px)}11.54%{transform:translateX(-749px)}12.24%{transform:translateX(-856px)}14.19%{transform:translateX(-963px)}20.24%{transform:translateX(-1070px)}21.06%{transform:translateX(-1177px)}21.96%{transform:translateX(-1284px)}22.47%{transform:translateX(-1391px)}23.41%{transform:translateX(-1498px)}24.64%{transform:translateX(-1605px)}27.19%{transform:translateX(-1712px)}28.21%{transform:translateX(-1926px)}28.22%{transform:translateX(-2033px)}28.23%{transform:translateX(-2140px)}28.38%{transform:translateX(-2247px)}35.81%{transform:translateX(-2354px)}37.13%{transform:translateX(-2461px)}38.27%{transform:translateX(-2568px)}39.07%{transform:translateX(-2675px)}39.39%{transform:translateX(-2782px)}40.41%{transform:translateX(-2889px)}41.46%{transform:translateX(-2996px)}43.34%{transform:translateX(-3103px)}49.03%{transform:translateX(-3210px)}51.27%{transform:translateX(-3317px)}52.4%{transform:translateX(-3424px)}52.9%{transform:translateX(-3531px)}53.41%{transform:translateX(-3638px)}53.81%{transform:translateX(-3745px)}57.69%{transform:translateX(-3852px)}58.81%{transform:translateX(-3959px)}59.12%{transform:translateX(-4066px)}60.18%{transform:translateX(-4173px)}60.43%{transform:translateX(-4280px)}61.19%{transform:translateX(-4387px)}61.62%{transform:translateX(-4494px)}65.96%{transform:translateX(-4601px)}66.85%{transform:translateX(-4708px)}67.53%{transform:translateX(-4815px)}70.9%{transform:translateX(-5029px)}72.64%{transform:translateX(-5243px)}73.42%{transform:translateX(-5350px)}73.66%{transform:translateX(-5457px)}to{transform:translateX(-5564px)}}.a{fill:#282d35}.c{fill:#b9c0cb;white-space:pre}.d{fill:#dbab79;font-weight:700}.d,.e,.f{white-space:pre}.e{fill:#b9c0cb;font-weight:700}.f{fill:#e88388}.g{fill:#66c2cd;font-weight:700}.g,.h,.i,.k{white-space:pre}.h{fill:#a8cc8c;font-weight:700}.i,.k{fill:#d290e4}.k{fill:#a8cc8c}</style><g font-family="Monaco,Consolas,Menlo,'Bitstream Vera Sans Mono','Powerline Symbols',monospace" font-size="1.67"><defs><symbol id="1"><text y="1.67" class="c">$</text></symbol><symbol id="2"><text y="1.67" class="c">$</text><text x="2.004" y="1.67" class="c">e</text></symbol><symbol id="3"><text y="1.67" class="c">$</text><text x="2.004" y="1.67" class="c">ex</text></symbol><symbol id="4"><text y="1.67" class="c">$</text><text x="2.004" y="1.67" class="c">ext</text></symbol><symbol id="5"><text y="1.67" class="c">$</text><text x="2.004" y="1.67" class="c">exte</text></symbol><symbol id="6"><text y="1.67" class="c">$</text><text x="2.004" y="1.67" class="c">exter</text></symbol><symbol id="7"><text y="1.67" class="c">$</text><text x="2.004" y="1.67" class="c">extern</text></symbol><symbol id="8"><text y="1.67" class="c">$</text><text x="2.004" y="1.67" class="c">externa</text></symbol><symbol id="9"><text y="1.67" class="c">$</text><text x="2.004" y="1.67" class="c">external-issue-checker</text></symbol><symbol id="10"><text y="1.67" class="c">$</text><text x="2.004" y="1.67" class="c">external-issue-checker</text><text x="25.05" y="1.67" class="c">--help</text></symbol><symbol id="11"><text x="1.002" y="1.67" class="d">Usage:</text><text x="8.016" y="1.67" class="e">external-issue-checker</text><text x="31.062" y="1.67" class="e">[OPTIONS]</text><text x="41.082" y="1.67" class="e">PATH</text></symbol><symbol id="12"><text x="1.002" y="1.67" class="c">Scans</text><text x="7.014" y="1.67" class="c">the</text><text x="11.022" y="1.67" class="c">commits</text><text x="19.038" y="1.67" class="c">of</text><text x="22.044" y="1.67" class="c">a</text><text x="24.048" y="1.67" class="c">Git</text><text x="28.056" y="1.67" class="c">repository</text><text x="39.078" y="1.67" class="c">and</text><text x="43.086" y="1.67" class="c">detects</text><text x="51.102" y="1.67" class="c">references</text><text x="62.124" y="1.67" class="c">to</text><text x="65.13" y="1.67" class="c">external</text><text x="74.148" y="1.67" class="c">GitHub</text><text x="81.162" y="1.67" class="c">issues.</text></symbol><symbol id="13"><text x="1.002" y="1.67" class="c">For</text><text x="5.01" y="1.67" class="c">each</text><text x="10.02" y="1.67" class="c">reference</text><text x="20.04" y="1.67" class="c">found,</text><text x="27.054" y="1.67" class="c">queries</text><text x="35.07" y="1.67" class="c">the</text><text x="39.078" y="1.67" class="c">GitHub</text><text x="46.092" y="1.67" class="c">API</text><text x="50.1" y="1.67" class="c">to</text><text x="53.106" y="1.67" class="c">display</text><text x="61.122" y="1.67" class="c">the</text><text x="65.13" y="1.67" class="c">current</text><text x="73.146" y="1.67" class="c">status</text><text x="80.16" y="1.67" class="c">of</text><text x="83.166" y="1.67" class="c">the</text><text x="87.174" y="1.67" class="c">issue.</text></symbol><symbol id="14"><text y="1.67" class="c">╭─</text><text x="3.006" y="1.67" class="c">Arguments</text><text x="13.026" y="1.67" class="c">─────────────────────────────────────────────────────────────────────────────────────────────╮</text></symbol><symbol id="15"><text y="1.67" class="c">│</text><text x="2.004" y="1.67" class="f">*</text><text x="7.014" y="1.67" class="c">path</text><text x="17.034" y="1.67" class="d">TEXT</text><text x="23.046" y="1.67" class="c">Path</text><text x="28.056" y="1.67" class="c">to</text><text x="31.062" y="1.67" class="c">the</text><text x="35.07" y="1.67" class="c">local</text><text x="41.082" y="1.67" class="c">Git</text><text x="45.09" y="1.67" class="c">repository</text><text x="56.112" y="1.67" class="c">to</text><text x="59.118" y="1.67" class="c">analyze</text><text x="67.134" y="1.67" class="c">[default:</text><text x="77.154" y="1.67" class="c">None]</text><text x="83.166" y="1.67" class="f">[required]</text><text x="106.212" y="1.67" class="c">│</text></symbol><symbol id="16"><text y="1.67" class="c">╰─────────────────────────────────────────────────────────────────────────────────────────────────────────╯</text></symbol><symbol id="17"><text y="1.67" class="c">╭─</text><text x="3.006" y="1.67" class="c">Options</text><text x="11.022" y="1.67" class="c">───────────────────────────────────────────────────────────────────────────────────────────────╮</text></symbol><symbol id="18"><text y="1.67" class="c">│</text><text x="2.004" y="1.67" class="g">--token</text><text x="24.048" y="1.67" class="h">-t</text><text x="32.064" y="1.67" class="d">TEXT</text><text x="38.076" y="1.67" class="c">Personal</text><text x="47.094" y="1.67" class="c">GitHub</text><text x="54.108" y="1.67" class="c">token</text><text x="60.12" y="1.67" class="c">to</text><text x="63.126" y="1.67" class="c">avoid</text><text x="69.138" y="1.67" class="c">API</text><text x="73.146" y="1.67" class="c">limitations.</text><text x="86.172" y="1.67" class="c">[default:</text><text x="96.192" y="1.67" class="c">None]</text><text x="106.212" y="1.67" class="c">│</text></symbol><symbol id="19"><text y="1.67" class="c">│</text><text x="2.004" y="1.67" class="g">--install-completion</text><text x="38.076" y="1.67" class="c">Install</text><text x="46.092" y="1.67" class="c">completion</text><text x="57.114" y="1.67" class="c">for</text><text x="61.122" y="1.67" class="c">the</text><text x="65.13" y="1.67" class="c">current</text><text x="73.146" y="1.67" class="c">shell.</text><text x="106.212" y="1.67" class="c">│</text></symbol><symbol id="20"><text y="1.67" class="c">│</text><text x="2.004" y="1.67" class="g">--show-completion</text><text x="38.076" y="1.67" class="c">Show</text><text x="43.086" y="1.67" class="c">completion</text><text x="54.108" y="1.67" class="c">for</text><text x="58.116" y="1.67" class="c">the</text><text x="62.124" y="1.67" class="c">current</text><text x="70.14" y="1.67" class="c">shell,</text><text x="77.154" y="1.67" class="c">to</text><text x="80.16" y="1.67" class="c">copy</text><text x="85.17" y="1.67" class="c">it</text><text x="88.176" y="1.67" class="c">or</text><text x="91.182" y="1.67" class="c">customize</text><text x="101.202" y="1.67" class="c">the</text><text x="106.212" y="1.67" class="c">│</text></symbol><symbol id="21"><text y="1.67" class="c">│</text><text x="38.076" y="1.67" class="c">installation.</text><text x="106.212" y="1.67" class="c">│</text></symbol><symbol id="22"><text y="1.67" class="c">│</text><text x="2.004" y="1.67" class="g">--help</text><text x="38.076" y="1.67" class="c">Show</text><text x="43.086" y="1.67" class="c">this</text><text x="48.096" y="1.67" class="c">message</text><text x="56.112" y="1.67" class="c">and</text><text x="60.12" y="1.67" class="c">exit.</text><text x="106.212" y="1.67" class="c">│</text></symbol><symbol id="23"><text y="1.67" class="c">$</text><text x="2.004" y="1.67" class="c">external-issue-checker</text><text x="25.05" y="1.67" class="c">~/code/magrit</text></symbol><symbol id="24"><text y="1.67" class="e">Analyzing</text><text x="10.02" y="1.67" class="e">repository:</text><text x="22.044" y="1.67" class="i">/home/mthh/code/</text><text x="38.076" y="1.67" style="white-space:pre" fill="#d290e3">magrit</text></symbol><symbol id="25"><text y="1.67" class="g">be3b6b3</text><text x="8.016" y="1.67" class="c">-</text><text x="10.02" y="1.67" class="c">Fix</text><text x="14.028" y="1.67" class="c">launching</text><text x="24.048" y="1.67" class="c">of</text><text x="27.054" y="1.67" class="c">electron</text><text x="36.072" y="1.67" class="c">version</text><text x="44.088" y="1.67" class="c">on</text><text x="47.094" y="1.67" class="c">Linux</text></symbol><symbol id="26"><text x="2.004" y="1.67" class="k">✔</text><text x="4.008" y="1.67" class="k">electron/electron#</text><text x="22.044" y="1.67" class="h">46538</text><text x="28.056" y="1.67" class="c">→</text><text x="30.06" y="1.67" class="e">OPEN</text><text x="35.07" y="1.67" class="c">-</text><text x="37.074" y="1.67" class="c">Electron</text><text x="46.092" y="1.67" class="g">36</text><text x="49.098" y="1.67" class="c">fails</text><text x="55.11" y="1.67" class="c">to</text><text x="58.116" y="1.67" class="c">launch</text><text x="65.13" y="1.67" class="c">because</text><text x="73.146" y="1.67" class="k">&quot;Using</text><text x="80.16" y="1.67" class="k">GTK</text><text x="84.168" y="1.67" class="k">2/3</text><text x="88.176" y="1.67" class="k">and</text><text x="92.184" y="1.67" class="k">GTK</text><text x="96.192" y="1.67" class="k">4</text><text x="98.196" y="1.67" class="k">in</text><text x="101.202" y="1.67" class="k">the</text></symbol><symbol id="27"><text y="1.67" class="k">same</text><text x="5.01" y="1.67" class="k">process</text><text x="13.026" y="1.67" class="k">is</text><text x="16.032" y="1.67" class="k">not</text><text x="20.04" y="1.67" class="k">supported&quot;</text></symbol><symbol id="28"><text y="1.67" class="g">63f943c</text><text x="8.016" y="1.67" class="c">-</text><text x="10.02" y="1.67" class="c">Revert</text><text x="17.034" y="1.67" class="c">temporary</text><text x="27.054" y="1.67" class="c">workaround</text><text x="38.076" y="1.67" class="c">with</text><text x="43.086" y="1.67" class="c">qemu</text><text x="48.096" y="1.67" class="c">version</text><text x="56.112" y="1.67" class="c">for</text><text x="60.12" y="1.67" class="c">ARM</text><text x="64.128" y="1.67" class="c">builds</text></symbol><symbol id="29"><text x="2.004" y="1.67" class="k">✔</text><text x="4.008" y="1.67" class="k">docker/setup-qemu-action#</text><text x="29.058" y="1.67" class="h">198</text><text x="33.066" y="1.67" class="c">→</text><text x="35.07" y="1.67" class="e">CLOSED</text><text x="42.084" y="1.67" class="c">-</text><text x="44.088" y="1.67" class="c">`tonistiigi/binfmt:latest`</text><text x="71.142" y="1.67" class="e">(</text><text x="72.144" y="1.67" class="c">qemu</text><text x="77.154" y="1.67" class="g">9.2</text><text x="80.16" y="1.67" class="c">.</text><text x="81.162" y="1.67" class="g">0</text><text x="82.164" y="1.67" class="e">)</text><text x="84.168" y="1.67" class="c">segfault</text><text x="93.186" y="1.67" class="c">on</text></symbol><symbol id="30"><text y="1.67" class="c">ubuntu-</text><text x="7.014" y="1.67" class="g">24.04</text><text x="13.026" y="1.67" class="i">/</text><text x="15.03" y="1.67" class="c">ubuntu-latest</text></symbol><symbol id="31"><text y="1.67" class="g">43e5fec</text><text x="8.016" y="1.67" class="c">-</text><text x="10.02" y="1.67" class="c">Pin</text><text x="14.028" y="1.67" class="c">qemu-action</text><text x="26.052" y="1.67" class="c">to</text><text x="29.058" y="1.67" class="c">qemu-v7.</text><text x="37.074" y="1.67" class="g">0.0</text><text x="40.08" y="1.67" class="c">-</text><text x="41.082" y="1.67" class="g">28</text></symbol><symbol id="a"><path fill="transparent" d="M0 0h107v29H0z"/></symbol><symbol id="b"><path fill="#6f7683" d="M0 0h1.102v2.171H0z"/></symbol></defs><path class="a" d="M0 0h107v62.959H0z"/><g style="animation-duration:20.342317s;animation-iteration-count:infinite;animation-name:n;animation-timing-function:steps(1,end)"><svg width="5671"><svg><use xlink:href="#a"/><use xlink:href="#b" x="-.004"/></svg><svg x="107"><use xlink:href="#a"/><use xlink:href="#b" x="1.996"/><use xlink:href="#1"/></svg><svg x="214"><use xlink:href="#a"/><use xlink:href="#b" x="2.996"/><use xlink:href="#2"/></svg><svg x="321"><use xlink:href="#a"/><use xlink:href="#b" x="3.996"/><use xlink:href="#3"/></svg><svg x="428"><use xlink:href="#a"/><use xlink:href="#b" x="4.996"/><use xlink:href="#4"/></svg><svg x="535"><use xlink:href="#a"/><use xlink:href="#b" x="5.996"/><use xlink:href="#5"/></svg><svg x="642"><use xlink:href="#a"/><use xlink:href="#b" x="6.996"/><use xlink:href="#6"/></svg><svg x="749"><use xlink:href="#a"/><use xlink:href="#b" x="7.996"/><use xlink:href="#7"/></svg><svg x="856"><use xlink:href="#a"/><use xlink:href="#b" x="8.996"/><use xlink:href="#8"/></svg><svg x="963"><use xlink:href="#a"/><use xlink:href="#b" x="24.996"/><use xlink:href="#9"/></svg><svg x="1070"><use xlink:href="#a"/><use xlink:href="#b" x="25.996"/><text y="1.67" class="c">$</text><text x="2.004" y="1.67" class="c">external-issue-checker</text><text x="25.05" y="1.67" class="c">-</text></svg><svg x="1177"><use xlink:href="#a"/><use xlink:href="#b" x="26.996"/><text y="1.67" class="c">$</text><text x="2.004" y="1.67" class="c">external-issue-checker</text><text x="25.05" y="1.67" class="c">--</text></svg><svg x="1284"><use xlink:href="#a"/><use xlink:href="#b" x="27.996"/><text y="1.67" class="c">$</text><text x="2.004" y="1.67" class="c">external-issue-checker</text><text x="25.05" y="1.67" class="c">--h</text></svg><svg x="1391"><use xlink:href="#a"/><use xlink:href="#b" x="28.996"/><text y="1.67" class="c">$</text><text x="2.004" y="1.67" class="c">external-issue-checker</text><text x="25.05" y="1.67" class="c">--he</text></svg><svg x="1498"><use xlink:href="#a"/><use xlink:href="#b" x="29.996"/><text y="1.67" class="c">$</text><text x="2.004" y="1.67" class="c">external-issue-checker</text><text x="25.05" y="1.67" class="c">--hel</text></svg><svg x="1605"><use xlink:href="#a"/><use xlink:href="#b" x="30.996"/><use xlink:href="#10"/></svg><svg x="1712"><use xlink:href="#a"/><use xlink:href="#b" x="-.004" y="2.146"/><use xlink:href="#10"/></svg><svg x="1819"><use xlink:href="#a"/><use xlink:href="#b" x="-.004" y="8.659"/><use xlink:href="#10"/><use xlink:href="#11" y="4.342"/></svg><svg x="1926"><use xlink:href="#a"/><use xlink:href="#b" x="-.004" y="17.343"/><use xlink:href="#10"/><use xlink:href="#11" y="4.342"/><use xlink:href="#12" y="8.684"/><use xlink:href="#13" y="13.026"/></svg><svg x="2033"><use xlink:href="#a"/><use xlink:href="#b" x="-.004" y="23.856"/><use xlink:href="#10"/><use xlink:href="#11" y="4.342"/><use xlink:href="#12" y="8.684"/><use xlink:href="#13" y="13.026"/><use xlink:href="#14" y="17.368"/><use xlink:href="#15" y="19.539"/><use xlink:href="#16" y="21.71"/></svg><svg x="2140"><use xlink:href="#a"/><use xlink:href="#b" x="-.004" y="41.224"/><use xlink:href="#10"/><use xlink:href="#11" y="4.342"/><use xlink:href="#12" y="8.684"/><use xlink:href="#13" y="13.026"/><use xlink:href="#14" y="17.368"/><use xlink:href="#15" y="19.539"/><use xlink:href="#16" y="21.71"/><use xlink:href="#17" y="23.881"/><use xlink:href="#18" y="26.052"/><use xlink:href="#19" y="28.223"/><use xlink:href="#20" y="30.394"/><use xlink:href="#21" y="32.565"/><use xlink:href="#22" y="34.736"/><use xlink:href="#16" y="36.907"/></svg><svg x="2247"><use xlink:href="#a"/><use xlink:href="#b" x="1.996" y="41.224"/><use xlink:href="#10"/><use xlink:href="#11" y="4.342"/><use xlink:href="#12" y="8.684"/><use xlink:href="#13" y="13.026"/><use xlink:href="#14" y="17.368"/><use xlink:href="#15" y="19.539"/><use xlink:href="#16" y="21.71"/><use xlink:href="#17" y="23.881"/><use xlink:href="#18" y="26.052"/><use xlink:href="#19" y="28.223"/><use xlink:href="#20" y="30.394"/><use xlink:href="#21" y="32.565"/><use xlink:href="#22" y="34.736"/><use xlink:href="#16" y="36.907"/><use xlink:href="#1" y="41.249"/></svg><svg x="2354"><use xlink:href="#a"/><use xlink:href="#b" x="2.996" y="41.224"/><use xlink:href="#10"/><use xlink:href="#11" y="4.342"/><use xlink:href="#12" y="8.684"/><use xlink:href="#13" y="13.026"/><use xlink:href="#14" y="17.368"/><use xlink:href="#15" y="19.539"/><use xlink:href="#16" y="21.71"/><use xlink:href="#17" y="23.881"/><use xlink:href="#18" y="26.052"/><use xlink:href="#19" y="28.223"/><use xlink:href="#20" y="30.394"/><use xlink:href="#21" y="32.565"/><use xlink:href="#22" y="34.736"/><use xlink:href="#16" y="36.907"/><use xlink:href="#2" y="41.249"/></svg><svg x="2461"><use xlink:href="#a"/><use xlink:href="#b" x="3.996" y="41.224"/><use xlink:href="#10"/><use xlink:href="#11" y="4.342"/><use xlink:href="#12" y="8.684"/><use xlink:href="#13" y="13.026"/><use xlink:href="#14" y="17.368"/><use xlink:href="#15" y="19.539"/><use xlink:href="#16" y="21.71"/><use xlink:href="#17" y="23.881"/><use xlink:href="#18" y="26.052"/><use xlink:href="#19" y="28.223"/><use xlink:href="#20" y="30.394"/><use xlink:href="#21" y="32.565"/><use xlink:href="#22" y="34.736"/><use xlink:href="#16" y="36.907"/><use xlink:href="#3" y="41.249"/></svg><svg x="2568"><use xlink:href="#a"/><use xlink:href="#b" x="4.996" y="41.224"/><use xlink:href="#10"/><use xlink:href="#11" y="4.342"/><use xlink:href="#12" y="8.684"/><use xlink:href="#13" y="13.026"/><use xlink:href="#14" y="17.368"/><use xlink:href="#15" y="19.539"/><use xlink:href="#16" y="21.71"/><use xlink:href="#17" y="23.881"/><use xlink:href="#18" y="26.052"/><use xlink:href="#19" y="28.223"/><use xlink:href="#20" y="30.394"/><use xlink:href="#21" y="32.565"/><use xlink:href="#22" y="34.736"/><use xlink:href="#16" y="36.907"/><use xlink:href="#4" y="41.249"/></svg><svg x="2675"><use xlink:href="#a"/><use xlink:href="#b" x="5.996" y="41.224"/><use xlink:href="#10"/><use xlink:href="#11" y="4.342"/><use xlink:href="#12" y="8.684"/><use xlink:href="#13" y="13.026"/><use xlink:href="#14" y="17.368"/><use xlink:href="#15" y="19.539"/><use xlink:href="#16" y="21.71"/><use xlink:href="#17" y="23.881"/><use xlink:href="#18" y="26.052"/><use xlink:href="#19" y="28.223"/><use xlink:href="#20" y="30.394"/><use xlink:href="#21" y="32.565"/><use xlink:href="#22" y="34.736"/><use xlink:href="#16" y="36.907"/><use xlink:href="#5" y="41.249"/></svg><svg x="2782"><use xlink:href="#a"/><use xlink:href="#b" x="6.996" y="41.224"/><use xlink:href="#10"/><use xlink:href="#11" y="4.342"/><use xlink:href="#12" y="8.684"/><use xlink:href="#13" y="13.026"/><use xlink:href="#14" y="17.368"/><use xlink:href="#15" y="19.539"/><use xlink:href="#16" y="21.71"/><use xlink:href="#17" y="23.881"/><use xlink:href="#18" y="26.052"/><use xlink:href="#19" y="28.223"/><use xlink:href="#20" y="30.394"/><use xlink:href="#21" y="32.565"/><use xlink:href="#22" y="34.736"/><use xlink:href="#16" y="36.907"/><use xlink:href="#6" y="41.249"/></svg><svg x="2889"><use xlink:href="#a"/><use xlink:href="#b" x="7.996" y="41.224"/><use xlink:href="#10"/><use xlink:href="#11" y="4.342"/><use xlink:href="#12" y="8.684"/><use xlink:href="#13" y="13.026"/><use xlink:href="#14" y="17.368"/><use xlink:href="#15" y="19.539"/><use xlink:href="#16" y="21.71"/><use xlink:href="#17" y="23.881"/><use xlink:href="#18" y="26.052"/><use xlink:href="#19" y="28.223"/><use xlink:href="#20" y="30.394"/><use xlink:href="#21" y="32.565"/><use xlink:href="#22" y="34.736"/><use xlink:href="#16" y="36.907"/><use xlink:href="#7" y="41.249"/></svg><svg x="2996"><use xlink:href="#a"/><use xlink:href="#b" x="8.996" y="41.224"/><use xlink:href="#10"/><use xlink:href="#11" y="4.342"/><use xlink:href="#12" y="8.684"/><use xlink:href="#13" y="13.026"/><use xlink:href="#14" y="17.368"/><use xlink:href="#15" y="19.539"/><use xlink:href="#16" y="21.71"/><use xlink:href="#17" y="23.881"/><use xlink:href="#18" y="26.052"/><use xlink:href="#19" y="28.223"/><use xlink:href="#20" y="30.394"/><use xlink:href="#21" y="32.565"/><use xlink:href="#22" y="34.736"/><use xlink:href="#16" y="36.907"/><use xlink:href="#8" y="41.249"/></svg><svg x="3103"><use xlink:href="#a"/><use xlink:href="#b" x="24.996" y="41.224"/><use xlink:href="#10"/><use xlink:href="#11" y="4.342"/><use xlink:href="#12" y="8.684"/><use xlink:href="#13" y="13.026"/><use xlink:href="#14" y="17.368"/><use xlink:href="#15" y="19.539"/><use xlink:href="#16" y="21.71"/><use xlink:href="#17" y="23.881"/><use xlink:href="#18" y="26.052"/><use xlink:href="#19" y="28.223"/><use xlink:href="#20" y="30.394"/><use xlink:href="#21" y="32.565"/><use xlink:href="#22" y="34.736"/><use xlink:href="#16" y="36.907"/><use xlink:href="#9" y="41.249"/></svg><svg x="3210"><use xlink:href="#a"/><use xlink:href="#b" x="25.996" y="41.224"/><use xlink:href="#10"/><use xlink:href="#11" y="4.342"/><use xlink:href="#12" y="8.684"/><use xlink:href="#13" y="13.026"/><use xlink:href="#14" y="17.368"/><use xlink:href="#15" y="19.539"/><use xlink:href="#16" y="21.71"/><use xlink:href="#17" y="23.881"/><use xlink:href="#18" y="26.052"/><use xlink:href="#19" y="28.223"/><use xlink:href="#20" y="30.394"/><use xlink:href="#21" y="32.565"/><use xlink:href="#22" y="34.736"/><use xlink:href="#16" y="36.907"/><text y="42.919" class="c">$</text><text x="2.004" y="42.919" class="c">external-issue-checker</text><text x="25.05" y="42.919" class="c">~</text></svg><svg x="3317"><use xlink:href="#a"/><use xlink:href="#b" x="26.996" y="41.224"/><use xlink:href="#10"/><use xlink:href="#11" y="4.342"/><use xlink:href="#12" y="8.684"/><use xlink:href="#13" y="13.026"/><use xlink:href="#14" y="17.368"/><use xlink:href="#15" y="19.539"/><use xlink:href="#16" y="21.71"/><use xlink:href="#17" y="23.881"/><use xlink:href="#18" y="26.052"/><use xlink:href="#19" y="28.223"/><use xlink:href="#20" y="30.394"/><use xlink:href="#21" y="32.565"/><use xlink:href="#22" y="34.736"/><use xlink:href="#16" y="36.907"/><text y="42.919" class="c">$</text><text x="2.004" y="42.919" class="c">external-issue-checker</text><text x="25.05" y="42.919" class="c">~/</text></svg><svg x="3424"><use xlink:href="#a"/><use xlink:href="#b" x="27.996" y="41.224"/><use xlink:href="#10"/><use xlink:href="#11" y="4.342"/><use xlink:href="#12" y="8.684"/><use xlink:href="#13" y="13.026"/><use xlink:href="#14" y="17.368"/><use xlink:href="#15" y="19.539"/><use xlink:href="#16" y="21.71"/><use xlink:href="#17" y="23.881"/><use xlink:href="#18" y="26.052"/><use xlink:href="#19" y="28.223"/><use xlink:href="#20" y="30.394"/><use xlink:href="#21" y="32.565"/><use xlink:href="#22" y="34.736"/><use xlink:href="#16" y="36.907"/><text y="42.919" class="c">$</text><text x="2.004" y="42.919" class="c">external-issue-checker</text><text x="25.05" y="42.919" class="c">~/c</text></svg><svg x="3531"><use xlink:href="#a"/><use xlink:href="#b" x="28.996" y="41.224"/><use xlink:href="#10"/><use xlink:href="#11" y="4.342"/><use xlink:href="#12" y="8.684"/><use xlink:href="#13" y="13.026"/><use xlink:href="#14" y="17.368"/><use xlink:href="#15" y="19.539"/><use xlink:href="#16" y="21.71"/><use xlink:href="#17" y="23.881"/><use xlink:href="#18" y="26.052"/><use xlink:href="#19" y="28.223"/><use xlink:href="#20" y="30.394"/><use xlink:href="#21" y="32.565"/><use xlink:href="#22" y="34.736"/><use xlink:href="#16" y="36.907"/><text y="42.919" class="c">$</text><text x="2.004" y="42.919" class="c">external-issue-checker</text><text x="25.05" y="42.919" class="c">~/co</text></svg><svg x="3638"><use xlink:href="#a"/><use xlink:href="#b" x="29.996" y="41.224"/><use xlink:href="#10"/><use xlink:href="#11" y="4.342"/><use xlink:href="#12" y="8.684"/><use xlink:href="#13" y="13.026"/><use xlink:href="#14" y="17.368"/><use xlink:href="#15" y="19.539"/><use xlink:href="#16" y="21.71"/><use xlink:href="#17" y="23.881"/><use xlink:href="#18" y="26.052"/><use xlink:href="#19" y="28.223"/><use xlink:href="#20" y="30.394"/><use xlink:href="#21" y="32.565"/><use xlink:href="#22" y="34.736"/><use xlink:href="#16" y="36.907"/><text y="42.919" class="c">$</text><text x="2.004" y="42.919" class="c">external-issue-checker</text><text x="25.05" y="42.919" class="c">~/cod</text></svg><svg x="3745"><use xlink:href="#a"/><use xlink:href="#b" x="30.996" y="41.224"/><use xlink:href="#10"/><use xlink:href="#11" y="4.342"/><use xlink:href="#12" y="8.684"/><use xlink:href="#13" y="13.026"/><use xlink:href="#14" y="17.368"/><use xlink:href="#15" y="19.539"/><use xlink:href="#16" y="21.71"/><use xlink:href="#17" y="23.881"/><use xlink:href="#18" y="26.052"/><use xlink:href="#19" y="28.223"/><use xlink:href="#20" y="30.394"/><use xlink:href="#21" y="32.565"/><use xlink:href="#22" y="34.736"/><use xlink:href="#16" y="36.907"/><text y="42.919" class="c">$</text><text x="2.004" y="42.919" class="c">external-issue-checker</text><text x="25.05" y="42.919" class="c">~/code</text></svg><svg x="3852"><use xlink:href="#a"/><use xlink:href="#b" x="31.996" y="41.224"/><use xlink:href="#10"/><use xlink:href="#11" y="4.342"/><use xlink:href="#12" y="8.684"/><use xlink:href="#13" y="13.026"/><use xlink:href="#14" y="17.368"/><use xlink:href="#15" y="19.539"/><use xlink:href="#16" y="21.71"/><use xlink:href="#17" y="23.881"/><use xlink:href="#18" y="26.052"/><use xlink:href="#19" y="28.223"/><use xlink:href="#20" y="30.394"/><use xlink:href="#21" y="32.565"/><use xlink:href="#22" y="34.736"/><use xlink:href="#16" y="36.907"/><text y="42.919" class="c">$</text><text x="2.004" y="42.919" class="c">external-issue-checker</text><text x="25.05" y="42.919" class="c">~/code/</text></svg><svg x="3959"><use xlink:href="#a"/><use xlink:href="#b" x="32.996" y="41.224"/><use xlink:href="#10"/><use xlink:href="#11" y="4.342"/><use xlink:href="#12" y="8.684"/><use xlink:href="#13" y="13.026"/><use xlink:href="#14" y="17.368"/><use xlink:href="#15" y="19.539"/><use xlink:href="#16" y="21.71"/><use xlink:href="#17" y="23.881"/><use xlink:href="#18" y="26.052"/><use xlink:href="#19" y="28.223"/><use xlink:href="#20" y="30.394"/><use xlink:href="#21" y="32.565"/><use xlink:href="#22" y="34.736"/><use xlink:href="#16" y="36.907"/><text y="42.919" class="c">$</text><text x="2.004" y="42.919" class="c">external-issue-checker</text><text x="25.05" y="42.919" class="c">~/code/m</text></svg><svg x="4066"><use xlink:href="#a"/><use xlink:href="#b" x="33.996" y="41.224"/><use xlink:href="#10"/><use xlink:href="#11" y="4.342"/><use xlink:href="#12" y="8.684"/><use xlink:href="#13" y="13.026"/><use xlink:href="#14" y="17.368"/><use xlink:href="#15" y="19.539"/><use xlink:href="#16" y="21.71"/><use xlink:href="#17" y="23.881"/><use xlink:href="#18" y="26.052"/><use xlink:href="#19" y="28.223"/><use xlink:href="#20" y="30.394"/><use xlink:href="#21" y="32.565"/><use xlink:href="#22" y="34.736"/><use xlink:href="#16" y="36.907"/><text y="42.919" class="c">$</text><text x="2.004" y="42.919" class="c">external-issue-checker</text><text x="25.05" y="42.919" class="c">~/code/ma</text></svg><svg x="4173"><use xlink:href="#a"/><use xlink:href="#b" x="34.996" y="41.224"/><use xlink:href="#10"/><use xlink:href="#11" y="4.342"/><use xlink:href="#12" y="8.684"/><use xlink:href="#13" y="13.026"/><use xlink:href="#14" y="17.368"/><use xlink:href="#15" y="19.539"/><use xlink:href="#16" y="21.71"/><use xlink:href="#17" y="23.881"/><use xlink:href="#18" y="26.052"/><use xlink:href="#19" y="28.223"/><use xlink:href="#20" y="30.394"/><use xlink:href="#21" y="32.565"/><use xlink:href="#22" y="34.736"/><use xlink:href="#16" y="36.907"/><text y="42.919" class="c">$</text><text x="2.004" y="42.919" class="c">external-issue-checker</text><text x="25.05" y="42.919" class="c">~/code/mag</text></svg><svg x="4280"><use xlink:href="#a"/><use xlink:href="#b" x="35.996" y="41.224"/><use xlink:href="#10"/><use xlink:href="#11" y="4.342"/><use xlink:href="#12" y="8.684"/><use xlink:href="#13" y="13.026"/><use xlink:href="#14" y="17.368"/><use xlink:href="#15" y="19.539"/><use xlink:href="#16" y="21.71"/><use xlink:href="#17" y="23.881"/><use xlink:href="#18" y="26.052"/><use xlink:href="#19" y="28.223"/><use xlink:href="#20" y="30.394"/><use xlink:href="#21" y="32.565"/><use xlink:href="#22" y="34.736"/><use xlink:href="#16" y="36.907"/><text y="42.919" class="c">$</text><text x="2.004" y="42.919" class="c">external-issue-checker</text><text x="25.05" y="42.919" class="c">~/code/magr</text></svg><svg x="4387"><use xlink:href="#a"/><use xlink:href="#b" x="36.996" y="41.224"/><use xlink:href="#10"/><use xlink:href="#11" y="4.342"/><use xlink:href="#12" y="8.684"/><use xlink:href="#13" y="13.026"/><use xlink:href="#14" y="17.368"/><use xlink:href="#15" y="19.539"/><use xlink:href="#16" y="21.71"/><use xlink:href="#17" y="23.881"/><use xlink:href="#18" y="26.052"/><use xlink:href="#19" y="28.223"/><use xlink:href="#20" y="30.394"/><use xlink:href="#21" y="32.565"/><use xlink:href="#22" y="34.736"/><use xlink:href="#16" y="36.907"/><text y="42.919" class="c">$</text><text x="2.004" y="42.919" class="c">external-issue-checker</text><text x="25.05" y="42.919" class="c">~/code/magri</text></svg><svg x="4494"><use xlink:href="#a"/><use xlink:href="#b" x="37.996" y="41.224"/><use xlink:href="#10"/><use xlink:href="#11" y="4.342"/><use xlink:href="#12" y="8.684"/><use xlink:href="#13" y="13.026"/><use xlink:href="#14" y="17.368"/><use xlink:href="#15" y="19.539"/><use xlink:href="#16" y="21.71"/><use xlink:href="#17" y="23.881"/><use xlink:href="#18" y="26.052"/><use xlink:href="#19" y="28.223"/><use xlink:href="#20" y="30.394"/><use xlink:href="#21" y="32.565"/><use xlink:href="#22" y="34.736"/><use xlink:href="#16" y="36.907"/><use xlink:href="#23" y="41.249"/></svg><svg x="4601"><use xlink:href="#a"/><use xlink:href="#b" x="-.004" y="43.395"/><use xlink:href="#10"/><use xlink:href="#11" y="4.342"/><use xlink:href="#12" y="8.684"/><use xlink:href="#13" y="13.026"/><use xlink:href="#14" y="17.368"/><use xlink:href="#15" y="19.539"/><use xlink:href="#16" y="21.71"/><use xlink:href="#17" y="23.881"/><use xlink:href="#18" y="26.052"/><use xlink:href="#19" y="28.223"/><use xlink:href="#20" y="30.394"/><use xlink:href="#21" y="32.565"/><use xlink:href="#22" y="34.736"/><use xlink:href="#16" y="36.907"/><use xlink:href="#23" y="41.249"/></svg><svg x="4708"><use xlink:href="#a"/><use xlink:href="#b" x="-.004" y="45.566"/><use xlink:href="#10"/><use xlink:href="#11" y="4.342"/><use xlink:href="#12" y="8.684"/><use xlink:href="#13" y="13.026"/><use xlink:href="#14" y="17.368"/><use xlink:href="#15" y="19.539"/><use xlink:href="#16" y="21.71"/><use xlink:href="#17" y="23.881"/><use xlink:href="#18" y="26.052"/><use xlink:href="#19" y="28.223"/><use xlink:href="#20" y="30.394"/><use xlink:href="#21" y="32.565"/><use xlink:href="#22" y="34.736"/><use xlink:href="#16" y="36.907"/><use xlink:href="#23" y="41.249"/><use xlink:href="#24" y="43.42"/></svg><svg x="4815"><use xlink:href="#a"/><use xlink:href="#b" x="-.004" y="49.908"/><use xlink:href="#10"/><use xlink:href="#11" y="4.342"/><use xlink:href="#12" y="8.684"/><use xlink:href="#13" y="13.026"/><use xlink:href="#14" y="17.368"/><use xlink:href="#15" y="19.539"/><use xlink:href="#16" y="21.71"/><use xlink:href="#17" y="23.881"/><use xlink:href="#18" y="26.052"/><use xlink:href="#19" y="28.223"/><use xlink:href="#20" y="30.394"/><use xlink:href="#21" y="32.565"/><use xlink:href="#22" y="34.736"/><use xlink:href="#16" y="36.907"/><use xlink:href="#23" y="41.249"/><use xlink:href="#24" y="43.42"/><use xlink:href="#25" y="47.762"/></svg><svg x="4922"><use xlink:href="#a"/><use xlink:href="#b" x="-.004" y="54.25"/><use xlink:href="#10"/><use xlink:href="#11" y="4.342"/><use xlink:href="#12" y="8.684"/><use xlink:href="#13" y="13.026"/><use xlink:href="#14" y="17.368"/><use xlink:href="#15" y="19.539"/><use xlink:href="#16" y="21.71"/><use xlink:href="#17" y="23.881"/><use xlink:href="#18" y="26.052"/><use xlink:href="#19" y="28.223"/><use xlink:href="#20" y="30.394"/><use xlink:href="#21" y="32.565"/><use xlink:href="#22" y="34.736"/><use xlink:href="#16" y="36.907"/><use xlink:href="#23" y="41.249"/><use xlink:href="#24" y="43.42"/><use xlink:href="#25" y="47.762"/><use xlink:href="#26" y="49.933"/><use xlink:href="#27" y="52.104"/></svg><svg x="5029"><use xlink:href="#a"/><use xlink:href="#b" x="-.004" y="58.592"/><use xlink:href="#10"/><use xlink:href="#11" y="4.342"/><use xlink:href="#12" y="8.684"/><use xlink:href="#13" y="13.026"/><use xlink:href="#14" y="17.368"/><use xlink:href="#15" y="19.539"/><use xlink:href="#16" y="21.71"/><use xlink:href="#17" y="23.881"/><use xlink:href="#18" y="26.052"/><use xlink:href="#19" y="28.223"/><use xlink:href="#20" y="30.394"/><use xlink:href="#21" y="32.565"/><use xlink:href="#22" y="34.736"/><use xlink:href="#16" y="36.907"/><use xlink:href="#23" y="41.249"/><use xlink:href="#24" y="43.42"/><use xlink:href="#25" y="47.762"/><use xlink:href="#26" y="49.933"/><use xlink:href="#27" y="52.104"/><use xlink:href="#28" y="56.446"/></svg><svg x="5136"><use xlink:href="#a"/><use xlink:href="#b" x="-.004" y="60.763"/><use xlink:href="#11" y="2.171"/><use xlink:href="#12" y="6.513"/><use xlink:href="#13" y="10.855"/><use xlink:href="#14" y="15.197"/><use xlink:href="#15" y="17.368"/><use xlink:href="#16" y="19.539"/><use xlink:href="#17" y="21.71"/><use xlink:href="#18" y="23.881"/><use xlink:href="#19" y="26.052"/><use xlink:href="#20" y="28.223"/><use xlink:href="#21" y="30.394"/><use xlink:href="#22" y="32.565"/><use xlink:href="#16" y="34.736"/><use xlink:href="#23" y="39.078"/><use xlink:href="#24" y="41.249"/><use xlink:href="#25" y="45.591"/><use xlink:href="#26" y="47.762"/><use xlink:href="#27" y="49.933"/><use xlink:href="#28" y="54.275"/><use xlink:href="#29" y="56.446"/><use xlink:href="#30" y="58.617"/></svg><svg x="5243"><use xlink:href="#a"/><use xlink:href="#b" x="-.004" y="60.763"/><use xlink:href="#12" y="2.171"/><use xlink:href="#13" y="6.513"/><use xlink:href="#14" y="10.855"/><use xlink:href="#15" y="13.026"/><use xlink:href="#16" y="15.197"/><use xlink:href="#17" y="17.368"/><use xlink:href="#18" y="19.539"/><use xlink:href="#19" y="21.71"/><use xlink:href="#20" y="23.881"/><use xlink:href="#21" y="26.052"/><use xlink:href="#22" y="28.223"/><use xlink:href="#16" y="30.394"/><use xlink:href="#23" y="34.736"/><use xlink:href="#24" y="36.907"/><use xlink:href="#25" y="41.249"/><use xlink:href="#26" y="43.42"/><use xlink:href="#27" y="45.591"/><use xlink:href="#28" y="49.933"/><use xlink:href="#29" y="52.104"/><use xlink:href="#30" y="54.275"/><use xlink:href="#31" y="58.617"/></svg><svg x="5350"><use xlink:href="#a"/><use xlink:href="#b" x="-.004" y="60.763"/><use xlink:href="#13" y="2.171"/><use xlink:href="#14" y="6.513"/><use xlink:href="#15" y="8.684"/><use xlink:href="#16" y="10.855"/><use xlink:href="#17" y="13.026"/><use xlink:href="#18" y="15.197"/><use xlink:href="#19" y="17.368"/><use xlink:href="#20" y="19.539"/><use xlink:href="#21" y="21.71"/><use xlink:href="#22" y="23.881"/><use xlink:href="#16" y="26.052"/><use xlink:href="#23" y="30.394"/><use xlink:href="#24" y="32.565"/><use xlink:href="#25" y="36.907"/><use xlink:href="#26" y="39.078"/><use xlink:href="#27" y="41.249"/><use xlink:href="#28" y="45.591"/><use xlink:href="#29" y="47.762"/><use xlink:href="#30" y="49.933"/><use xlink:href="#31" y="54.275"/><use xlink:href="#29" y="56.446"/><use xlink:href="#30" y="58.617"/></svg><svg x="5457"><use xlink:href="#a"/><use xlink:href="#b" x="1.996" y="60.763"/><use xlink:href="#13" y="2.171"/><use xlink:href="#14" y="6.513"/><use xlink:href="#15" y="8.684"/><use xlink:href="#16" y="10.855"/><use xlink:href="#17" y="13.026"/><use xlink:href="#18" y="15.197"/><use xlink:href="#19" y="17.368"/><use xlink:href="#20" y="19.539"/><use xlink:href="#21" y="21.71"/><use xlink:href="#22" y="23.881"/><use xlink:href="#16" y="26.052"/><use xlink:href="#23" y="30.394"/><use xlink:href="#24" y="32.565"/><use xlink:href="#25" y="36.907"/><use xlink:href="#26" y="39.078"/><use xlink:href="#27" y="41.249"/><use xlink:href="#28" y="45.591"/><use xlink:href="#29" y="47.762"/><use xlink:href="#30" y="49.933"/><use xlink:href="#31" y="54.275"/><use xlink:href="#29" y="56.446"/><use xlink:href="#30" y="58.617"/><use xlink:href="#1" y="60.788"/></svg><svg x="5564"><use xlink:href="#a"/><use xlink:href="#b" x="-.004" y="60.763"/><use xlink:href="#14" y="2.171"/><use xlink:href="#15" y="4.342"/><use xlink:href="#16" y="6.513"/><use xlink:href="#17" y="8.684"/><use xlink:href="#18" y="10.855"/><use xlink:href="#19" y="13.026"/><use xlink:href="#20" y="15.197"/><use xlink:href="#21" y="17.368"/><use xlink:href="#22" y="19.539"/><use xlink:href="#16" y="21.71"/><use xlink:href="#23" y="26.052"/><use xlink:href="#24" y="28.223"/><use xlink:href="#25" y="32.565"/><use xlink:href="#26" y="34.736"/><use xlink:href="#27" y="36.907"/><use xlink:href="#28" y="41.249"/><use xlink:href="#29" y="43.42"/><use xlink:href="#30" y="45.591"/><use xlink:href="#31" y="49.933"/><use xlink:href="#29" y="52.104"/><use xlink:href="#30" y="54.275"/><use xlink:href="#1" y="56.446"/><text y="60.287" class="c">exit</text></svg></svg></g></g></svg></svg>