<svg xmlns="http://www.w3.org/2000/svg" xmlns:xlink="http://www.w3.org/1999/xlink" width="1100" height="781.56"><rect width="1100" height="781.56" rx="0" ry="0" class="a"/><svg height="781.56" viewBox="0 0 110 78.156" width="1100" xmlns="http://www.w3.org/2000/svg" xmlns:xlink="http://www.w3.org/1999/xlink"><style>@keyframes m{0%{transform:translateX(0)}.03%{transform:translateX(-110px)}1.78%{transform:translateX(-220px)}2.92%{transform:translateX(-330px)}4.07%{transform:translateX(-440px)}4.86%{transform:translateX(-550px)}5.2%{transform:translateX(-660px)}6.2%{transform:translateX(-770px)}7.7%{transform:translateX(-880px)}10.49%{transform:translateX(-990px)}11.29%{transform:translateX(-1100px)}12.21%{transform:translateX(-1210px)}12.84%{transform:translateX(-1320px)}13.83%{transform:translateX(-1430px)}14.97%{transform:translateX(-1540px)}16.24%{transform:translateX(-1650px)}17.11%{transform:translateX(-1870px)}17.12%{transform:translateX(-1980px)}17.14%{transform:translateX(-2200px)}17.3%{transform:translateX(-2310px)}26.29%{transform:translateX(-2420px)}27.56%{transform:translateX(-2530px)}28.61%{transform:translateX(-2640px)}29.41%{transform:translateX(-2750px)}29.7%{transform:translateX(-2860px)}31.02%{transform:translateX(-2970px)}32.59%{transform:translateX(-3080px)}37.52%{transform:translateX(-3190px)}40.9%{transform:translateX(-3300px)}43.42%{transform:translateX(-3410px)}43.88%{transform:translateX(-3520px)}44.45%{transform:translateX(-3630px)}44.82%{transform:translateX(-3740px)}46.48%{transform:translateX(-3850px)}47.67%{transform:translateX(-3960px)}47.95%{transform:translateX(-4070px)}49.07%{transform:translateX(-4180px)}49.34%{transform:translateX(-4290px)}49.98%{transform:translateX(-4400px)}50.36%{transform:translateX(-4510px)}52.92%{transform:translateX(-4620px)}54.28%{transform:translateX(-4840px)}56.58%{transform:translateX(-4950px)}56.59%{transform:translateX(-5060px)}58.74%{transform:translateX(-5280px)}59.63%{transform:translateX(-5390px)}59.87%{transform:translateX(-5500px)}to{transform:translateX(-5610px)}}.a{fill:#282d35}.c,.d{fill:#b9c0cb;white-space:pre}.d{fill:#dbab79}.d,.e,.f{font-weight:700}.e{fill:#b9c0cb;white-space:pre}.f{fill:#66c2cd}.f,.g,.h,.j{white-space:pre}.g{fill:#a8cc8c;font-weight:700}.h,.j{fill:#d290e4}.j{fill:#a8cc8c}</style><g font-family="Monaco,Consolas,Menlo,'Bitstream Vera Sans Mono','Powerline Symbols',monospace" font-size="1.67"><defs><symbol id="1"><text y="1.67" class="c">$</text></symbol><symbol id="2"><text y="1.67" class="c">$</text><text x="2.004" y="1.67" class="c">e</text></symbol><symbol id="3"><text y="1.67" class="c">$</text><text x="2.004" y="1.67" class="c">ex</text></symbol><symbol id="4"><text y="1.67" class="c">$</text><text x="2.004" y="1.67" class="c">ext</text></symbol><symbol id="5"><text y="1.67" class="c">$</text><text x="2.004" y="1.67" class="c">exte</text></symbol><symbol id="6"><text y="1.67" class="c">$</text><text x="2.004" y="1.67" class="c">exter</text></symbol><symbol id="7"><text y="1.67" class="c">$</text><text x="2.004" y="1.67" class="c">extern</text></symbol><symbol id="8"><text y="1.67" class="c">$</text><text x="2.004" y="1.67" class="c">external-issue-checker</text></symbol><symbol id="9"><text y="1.67" class="c">$</text><text x="2.004" y="1.67" class="c">external-issue-checker</text><text x="25.05" y="1.67" class="c">--help</text></symbol><symbol id="10"><text x="1.002" y="1.67" class="d">Usage:</text><text x="8.016" y="1.67" class="e">external-issue-checker</text><text x="31.062" y="1.67" class="e">[OPTIONS]</text><text x="41.082" y="1.67" class="e">[PATH]</text></symbol><symbol id="11"><text x="1.002" y="1.67" class="c">Scans</text><text x="7.014" y="1.67" class="c">the</text><text x="11.022" y="1.67" class="c">commits</text><text x="19.038" y="1.67" class="c">of</text><text x="22.044" y="1.67" class="c">a</text><text x="24.048" y="1.67" class="c">Git</text><text x="28.056" y="1.67" class="c">repository</text><text x="39.078" y="1.67" class="c">and</text><text x="43.086" y="1.67" class="c">detects</text><text x="51.102" y="1.67" class="c">references</text><text x="62.124" y="1.67" class="c">to</text><text x="65.13" y="1.67" class="c">external</text><text x="74.148" y="1.67" class="c">GitHub</text><text x="81.162" y="1.67" class="c">issues.</text></symbol><symbol id="12"><text x="1.002" y="1.67" class="c">For</text><text x="5.01" y="1.67" class="c">each</text><text x="10.02" y="1.67" class="c">reference</text><text x="20.04" y="1.67" class="c">found,</text><text x="27.054" y="1.67" class="c">queries</text><text x="35.07" y="1.67" class="c">the</text><text x="39.078" y="1.67" class="c">GitHub</text><text x="46.092" y="1.67" class="c">API</text><text x="50.1" y="1.67" class="c">to</text><text x="53.106" y="1.67" class="c">display</text><text x="61.122" y="1.67" class="c">the</text><text x="65.13" y="1.67" class="c">current</text><text x="73.146" y="1.67" class="c">status</text><text x="80.16" y="1.67" class="c">of</text><text x="83.166" y="1.67" class="c">the</text><text x="87.174" y="1.67" class="c">issue.</text></symbol><symbol id="13"><text y="1.67" class="c">╭─</text><text x="3.006" y="1.67" class="c">Arguments</text><text x="13.026" y="1.67" class="c">────────────────────────────────────────────────────────────────────────────────────────────────╮</text></symbol><symbol id="14"><text y="1.67" class="c">│</text><text x="4.008" y="1.67" class="c">path</text><text x="14.028" y="1.67" class="d">[PATH]</text><text x="22.044" y="1.67" class="c">Path</text><text x="27.054" y="1.67" class="c">to</text><text x="30.06" y="1.67" class="c">the</text><text x="34.068" y="1.67" class="c">local</text><text x="40.08" y="1.67" class="c">Git</text><text x="44.088" y="1.67" class="c">repository</text><text x="55.11" y="1.67" class="c">to</text><text x="58.116" y="1.67" class="c">analyze</text><text x="66.132" y="1.67" class="c">[default:</text><text x="76.152" y="1.67" class="c">.]</text><text x="109.218" y="1.67" class="c">│</text></symbol><symbol id="15"><text y="1.67" class="c">╰────────────────────────────────────────────────────────────────────────────────────────────────────────────╯</text></symbol><symbol id="16"><text y="1.67" class="c">╭─</text><text x="3.006" y="1.67" class="c">Options</text><text x="11.022" y="1.67" class="c">──────────────────────────────────────────────────────────────────────────────────────────────────╮</text></symbol><symbol id="17"><text y="1.67" class="c">│</text><text x="2.004" y="1.67" class="f">--token</text><text x="24.048" y="1.67" class="g">-t</text><text x="32.064" y="1.67" class="d">TEXT</text><text x="38.076" y="1.67" class="c">Personal</text><text x="47.094" y="1.67" class="c">GitHub</text><text x="54.108" y="1.67" class="c">token</text><text x="60.12" y="1.67" class="c">to</text><text x="63.126" y="1.67" class="c">avoid</text><text x="69.138" y="1.67" class="c">API</text><text x="73.146" y="1.67" class="c">limitations.</text><text x="86.172" y="1.67" class="c">[default:</text><text x="96.192" y="1.67" class="c">None]</text><text x="109.218" y="1.67" class="c">│</text></symbol><symbol id="18"><text y="1.67" class="c">│</text><text x="2.004" y="1.67" class="f">--install-completion</text><text x="38.076" y="1.67" class="c">Install</text><text x="46.092" y="1.67" class="c">completion</text><text x="57.114" y="1.67" class="c">for</text><text x="61.122" y="1.67" class="c">the</text><text x="65.13" y="1.67" class="c">current</text><text x="73.146" y="1.67" class="c">shell.</text><text x="109.218" y="1.67" class="c">│</text></symbol><symbol id="19"><text y="1.67" class="c">│</text><text x="2.004" y="1.67" class="f">--show-completion</text><text x="38.076" y="1.67" class="c">Show</text><text x="43.086" y="1.67" class="c">completion</text><text x="54.108" y="1.67" class="c">for</text><text x="58.116" y="1.67" class="c">the</text><text x="62.124" y="1.67" class="c">current</text><text x="70.14" y="1.67" class="c">shell,</text><text x="77.154" y="1.67" class="c">to</text><text x="80.16" y="1.67" class="c">copy</text><text x="85.17" y="1.67" class="c">it</text><text x="88.176" y="1.67" class="c">or</text><text x="91.182" y="1.67" class="c">customize</text><text x="101.202" y="1.67" class="c">the</text><text x="109.218" y="1.67" class="c">│</text></symbol><symbol id="20"><text y="1.67" class="c">│</text><text x="38.076" y="1.67" class="c">installation.</text><text x="109.218" y="1.67" class="c">│</text></symbol><symbol id="21"><text y="1.67" class="c">│</text><text x="2.004" y="1.67" class="f">--help</text><text x="38.076" y="1.67" class="c">Show</text><text x="43.086" y="1.67" class="c">this</text><text x="48.096" y="1.67" class="c">message</text><text x="56.112" y="1.67" class="c">and</text><text x="60.12" y="1.67" class="c">exit.</text><text x="109.218" y="1.67" class="c">│</text></symbol><symbol id="22"><text y="1.67" class="c">$</text><text x="2.004" y="1.67" class="c">external-issue-checker</text><text x="25.05" y="1.67" class="c">~/code/magrit</text></symbol><symbol id="23"><text y="1.67" class="e">Analyzing</text><text x="10.02" y="1.67" class="e">repository:</text><text x="22.044" y="1.67" class="h">/home/mthh/code/</text><text x="38.076" y="1.67" style="white-space:pre" fill="#d290e3">magrit</text></symbol><symbol id="24"><text y="1.67" class="f">be3b6b3</text><text x="8.016" y="1.67" class="c">-</text><text x="10.02" y="1.67" class="c">Fix</text><text x="14.028" y="1.67" class="c">launching</text><text x="24.048" y="1.67" class="c">of</text><text x="27.054" y="1.67" class="c">electron</text><text x="36.072" y="1.67" class="c">version</text><text x="44.088" y="1.67" class="c">on</text><text x="47.094" y="1.67" class="c">Linux</text></symbol><symbol id="25"><text x="2.004" y="1.67" class="j">✔</text><text x="4.008" y="1.67" class="j">electron/electron#</text><text x="22.044" y="1.67" class="g">46538</text><text x="28.056" y="1.67" class="c">→</text><text x="30.06" y="1.67" class="e">OPEN</text><text x="35.07" y="1.67" class="c">-</text><text x="37.074" y="1.67" class="c">Electron</text><text x="46.092" y="1.67" class="f">36</text><text x="49.098" y="1.67" class="c">fails</text><text x="55.11" y="1.67" class="c">to</text><text x="58.116" y="1.67" class="c">launch</text><text x="65.13" y="1.67" class="c">because</text><text x="73.146" y="1.67" class="j">&quot;Using</text><text x="80.16" y="1.67" class="j">GTK</text><text x="84.168" y="1.67" class="j">2/3</text><text x="88.176" y="1.67" class="j">and</text><text x="92.184" y="1.67" class="j">GTK</text><text x="96.192" y="1.67" class="j">4</text><text x="98.196" y="1.67" class="j">in</text><text x="101.202" y="1.67" class="j">the</text><text x="105.21" y="1.67" class="j">same</text></symbol><symbol id="26"><text y="1.67" class="j">process</text><text x="8.016" y="1.67" class="j">is</text><text x="11.022" y="1.67" class="j">not</text><text x="15.03" y="1.67" class="j">supported&quot;</text></symbol><symbol id="27"><text y="1.67" class="f">63f943c</text><text x="8.016" y="1.67" class="c">-</text><text x="10.02" y="1.67" class="c">Revert</text><text x="17.034" y="1.67" class="c">temporary</text><text x="27.054" y="1.67" class="c">workaround</text><text x="38.076" y="1.67" class="c">with</text><text x="43.086" y="1.67" class="c">qemu</text><text x="48.096" y="1.67" class="c">version</text><text x="56.112" y="1.67" class="c">for</text><text x="60.12" y="1.67" class="c">ARM</text><text x="64.128" y="1.67" class="c">builds</text></symbol><symbol id="28"><text x="2.004" y="1.67" class="j">✔</text><text x="4.008" y="1.67" class="j">docker/setup-qemu-action#</text><text x="29.058" y="1.67" class="g">198</text><text x="33.066" y="1.67" class="c">→</text><text x="35.07" y="1.67" class="e">CLOSED</text><text x="42.084" y="1.67" class="c">-</text><text x="44.088" y="1.67" class="c">`tonistiigi/binfmt:latest`</text><text x="71.142" y="1.67" class="e">(</text><text x="72.144" y="1.67" class="c">qemu</text><text x="77.154" y="1.67" class="f">9.2</text><text x="80.16" y="1.67" class="c">.</text><text x="81.162" y="1.67" class="f">0</text><text x="82.164" y="1.67" class="e">)</text><text x="84.168" y="1.67" class="c">segfault</text><text x="93.186" y="1.67" class="c">on</text><text x="96.192" y="1.67" class="c">ubuntu-</text><text x="103.206" y="1.67" class="f">24.04</text><text x="109.218" y="1.67" class="h">/</text></symbol><symbol id="29"><text y="1.67" class="c">ubuntu-latest</text></symbol><symbol id="30"><text y="1.67" class="f">43e5fec</text><text x="8.016" y="1.67" class="c">-</text><text x="10.02" y="1.67" class="c">Pin</text><text x="14.028" y="1.67" class="c">qemu-action</text><text x="26.052" y="1.67" class="c">to</text><text x="29.058" y="1.67" class="c">qemu-v7.</text><text x="37.074" y="1.67" class="f">0.0</text><text x="40.08" y="1.67" class="c">-</text><text x="41.082" y="1.67" class="f">28</text></symbol><symbol id="a"><path fill="transparent" d="M0 0h110v36H0z"/></symbol><symbol id="b"><path fill="#6f7683" d="M0 0h1.102v2.171H0z"/></symbol></defs><path class="a" d="M0 0h110v78.156H0z"/><g style="animation-duration:18.717827s;animation-iteration-count:infinite;animation-name:m;animation-timing-function:steps(1,end)"><svg width="5720"><svg><use xlink:href="#a"/><use xlink:href="#b" x="-.004"/></svg><svg x="110"><use xlink:href="#a"/><use xlink:href="#b" x="1.996"/><use xlink:href="#1"/></svg><svg x="220"><use xlink:href="#a"/><use xlink:href="#b" x="2.996"/><use xlink:href="#2"/></svg><svg x="330"><use xlink:href="#a"/><use xlink:href="#b" x="3.996"/><use xlink:href="#3"/></svg><svg x="440"><use xlink:href="#a"/><use xlink:href="#b" x="4.996"/><use xlink:href="#4"/></svg><svg x="550"><use xlink:href="#a"/><use xlink:href="#b" x="5.996"/><use xlink:href="#5"/></svg><svg x="660"><use xlink:href="#a"/><use xlink:href="#b" x="6.996"/><use xlink:href="#6"/></svg><svg x="770"><use xlink:href="#a"/><use xlink:href="#b" x="7.996"/><use xlink:href="#7"/></svg><svg x="880"><use xlink:href="#a"/><use xlink:href="#b" x="24.996"/><use xlink:href="#8"/></svg><svg x="990"><use xlink:href="#a"/><use xlink:href="#b" x="25.996"/><text y="1.67" class="c">$</text><text x="2.004" y="1.67" class="c">external-issue-checker</text><text x="25.05" y="1.67" class="c">-</text></svg><svg x="1100"><use xlink:href="#a"/><use xlink:href="#b" x="26.996"/><text y="1.67" class="c">$</text><text x="2.004" y="1.67" class="c">external-issue-checker</text><text x="25.05" y="1.67" class="c">--</text></svg><svg x="1210"><use xlink:href="#a"/><use xlink:href="#b" x="27.996"/><text y="1.67" class="c">$</text><text x="2.004" y="1.67" class="c">external-issue-checker</text><text x="25.05" y="1.67" class="c">--h</text></svg><svg x="1320"><use xlink:href="#a"/><use xlink:href="#b" x="28.996"/><text y="1.67" class="c">$</text><text x="2.004" y="1.67" class="c">external-issue-checker</text><text x="25.05" y="1.67" class="c">--he</text></svg><svg x="1430"><use xlink:href="#a"/><use xlink:href="#b" x="29.996"/><text y="1.67" class="c">$</text><text x="2.004" y="1.67" class="c">external-issue-checker</text><text x="25.05" y="1.67" class="c">--hel</text></svg><svg x="1540"><use xlink:href="#a"/><use xlink:href="#b" x="30.996"/><use xlink:href="#9"/></svg><svg x="1650"><use xlink:href="#a"/><use xlink:href="#b" x="-.004" y="2.146"/><use xlink:href="#9"/></svg><svg x="1760"><use xlink:href="#a"/><use xlink:href="#b" x="-.004" y="8.659"/><use xlink:href="#9"/><use xlink:href="#10" y="4.342"/></svg><svg x="1870"><use xlink:href="#a"/><use xlink:href="#b" x="-.004" y="17.343"/><use xlink:href="#9"/><use xlink:href="#10" y="4.342"/><use xlink:href="#11" y="8.684"/><use xlink:href="#12" y="13.026"/></svg><svg x="1980"><use xlink:href="#a"/><use xlink:href="#b" x="-.004" y="23.856"/><use xlink:href="#9"/><use xlink:href="#10" y="4.342"/><use xlink:href="#11" y="8.684"/><use xlink:href="#12" y="13.026"/><use xlink:href="#13" y="17.368"/><use xlink:href="#14" y="19.539"/><use xlink:href="#15" y="21.71"/></svg><svg x="2090"><use xlink:href="#a"/><use xlink:href="#b" x="-.004" y="39.053"/><use xlink:href="#9"/><use xlink:href="#10" y="4.342"/><use xlink:href="#11" y="8.684"/><use xlink:href="#12" y="13.026"/><use xlink:href="#13" y="17.368"/><use xlink:href="#14" y="19.539"/><use xlink:href="#15" y="21.71"/><use xlink:href="#16" y="23.881"/><use xlink:href="#17" y="26.052"/><use xlink:href="#18" y="28.223"/><use xlink:href="#19" y="30.394"/><use xlink:href="#20" y="32.565"/><use xlink:href="#21" y="34.736"/><use xlink:href="#15" y="36.907"/></svg><svg x="2200"><use xlink:href="#a"/><use xlink:href="#b" x="-.004" y="41.224"/><use xlink:href="#9"/><use xlink:href="#10" y="4.342"/><use xlink:href="#11" y="8.684"/><use xlink:href="#12" y="13.026"/><use xlink:href="#13" y="17.368"/><use xlink:href="#14" y="19.539"/><use xlink:href="#15" y="21.71"/><use xlink:href="#16" y="23.881"/><use xlink:href="#17" y="26.052"/><use xlink:href="#18" y="28.223"/><use xlink:href="#19" y="30.394"/><use xlink:href="#20" y="32.565"/><use xlink:href="#21" y="34.736"/><use xlink:href="#15" y="36.907"/></svg><svg x="2310"><use xlink:href="#a"/><use xlink:href="#b" x="1.996" y="41.224"/><use xlink:href="#9"/><use xlink:href="#10" y="4.342"/><use xlink:href="#11" y="8.684"/><use xlink:href="#12" y="13.026"/><use xlink:href="#13" y="17.368"/><use xlink:href="#14" y="19.539"/><use xlink:href="#15" y="21.71"/><use xlink:href="#16" y="23.881"/><use xlink:href="#17" y="26.052"/><use xlink:href="#18" y="28.223"/><use xlink:href="#19" y="30.394"/><use xlink:href="#20" y="32.565"/><use xlink:href="#21" y="34.736"/><use xlink:href="#15" y="36.907"/><use xlink:href="#1" y="41.249"/></svg><svg x="2420"><use xlink:href="#a"/><use xlink:href="#b" x="2.996" y="41.224"/><use xlink:href="#9"/><use xlink:href="#10" y="4.342"/><use xlink:href="#11" y="8.684"/><use xlink:href="#12" y="13.026"/><use xlink:href="#13" y="17.368"/><use xlink:href="#14" y="19.539"/><use xlink:href="#15" y="21.71"/><use xlink:href="#16" y="23.881"/><use xlink:href="#17" y="26.052"/><use xlink:href="#18" y="28.223"/><use xlink:href="#19" y="30.394"/><use xlink:href="#20" y="32.565"/><use xlink:href="#21" y="34.736"/><use xlink:href="#15" y="36.907"/><use xlink:href="#2" y="41.249"/></svg><svg x="2530"><use xlink:href="#a"/><use xlink:href="#b" x="3.996" y="41.224"/><use xlink:href="#9"/><use xlink:href="#10" y="4.342"/><use xlink:href="#11" y="8.684"/><use xlink:href="#12" y="13.026"/><use xlink:href="#13" y="17.368"/><use xlink:href="#14" y="19.539"/><use xlink:href="#15" y="21.71"/><use xlink:href="#16" y="23.881"/><use xlink:href="#17" y="26.052"/><use xlink:href="#18" y="28.223"/><use xlink:href="#19" y="30.394"/><use xlink:href="#20" y="32.565"/><use xlink:href="#21" y="34.736"/><use xlink:href="#15" y="36.907"/><use xlink:href="#3" y="41.249"/></svg><svg x="2640"><use xlink:href="#a"/><use xlink:href="#b" x="4.996" y="41.224"/><use xlink:href="#9"/><use xlink:href="#10" y="4.342"/><use xlink:href="#11" y="8.684"/><use xlink:href="#12" y="13.026"/><use xlink:href="#13" y="17.368"/><use xlink:href="#14" y="19.539"/><use xlink:href="#15" y="21.71"/><use xlink:href="#16" y="23.881"/><use xlink:href="#17" y="26.052"/><use xlink:href="#18" y="28.223"/><use xlink:href="#19" y="30.394"/><use xlink:href="#20" y="32.565"/><use xlink:href="#21" y="34.736"/><use xlink:href="#15" y="36.907"/><use xlink:href="#4" y="41.249"/></svg><svg x="2750"><use xlink:href="#a"/><use xlink:href="#b" x="5.996" y="41.224"/><use xlink:href="#9"/><use xlink:href="#10" y="4.342"/><use xlink:href="#11" y="8.684"/><use xlink:href="#12" y="13.026"/><use xlink:href="#13" y="17.368"/><use xlink:href="#14" y="19.539"/><use xlink:href="#15" y="21.71"/><use xlink:href="#16" y="23.881"/><use xlink:href="#17" y="26.052"/><use xlink:href="#18" y="28.223"/><use xlink:href="#19" y="30.394"/><use xlink:href="#20" y="32.565"/><use xlink:href="#21" y="34.736"/><use xlink:href="#15" y="36.907"/><use xlink:href="#5" y="41.249"/></svg><svg x="2860"><use xlink:href="#a"/><use xlink:href="#b" x="6.996" y="41.224"/><use xlink:href="#9"/><use xlink:href="#10" y="4.342"/><use xlink:href="#11" y="8.684"/><use xlink:href="#12" y="13.026"/><use xlink:href="#13" y="17.368"/><use xlink:href="#14" y="19.539"/><use xlink:href="#15" y="21.71"/><use xlink:href="#16" y="23.881"/><use xlink:href="#17" y="26.052"/><use xlink:href="#18" y="28.223"/><use xlink:href="#19" y="30.394"/><use xlink:href="#20" y="32.565"/><use xlink:href="#21" y="34.736"/><use xlink:href="#15" y="36.907"/><use xlink:href="#6" y="41.249"/></svg><svg x="2970"><use xlink:href="#a"/><use xlink:href="#b" x="7.996" y="41.224"/><use xlink:href="#9"/><use xlink:href="#10" y="4.342"/><use xlink:href="#11" y="8.684"/><use xlink:href="#12" y="13.026"/><use xlink:href="#13" y="17.368"/><use xlink:href="#14" y="19.539"/><use xlink:href="#15" y="21.71"/><use xlink:href="#16" y="23.881"/><use xlink:href="#17" y="26.052"/><use xlink:href="#18" y="28.223"/><use xlink:href="#19" y="30.394"/><use xlink:href="#20" y="32.565"/><use xlink:href="#21" y="34.736"/><use xlink:href="#15" y="36.907"/><use xlink:href="#7" y="41.249"/></svg><svg x="3080"><use xlink:href="#a"/><use xlink:href="#b" x="24.996" y="41.224"/><use xlink:href="#9"/><use xlink:href="#10" y="4.342"/><use xlink:href="#11" y="8.684"/><use xlink:href="#12" y="13.026"/><use xlink:href="#13" y="17.368"/><use xlink:href="#14" y="19.539"/><use xlink:href="#15" y="21.71"/><use xlink:href="#16" y="23.881"/><use xlink:href="#17" y="26.052"/><use xlink:href="#18" y="28.223"/><use xlink:href="#19" y="30.394"/><use xlink:href="#20" y="32.565"/><use xlink:href="#21" y="34.736"/><use xlink:href="#15" y="36.907"/><use xlink:href="#8" y="41.249"/></svg><svg x="3190"><use xlink:href="#a"/><use xlink:href="#b" x="25.996" y="41.224"/><use xlink:href="#9"/><use xlink:href="#10" y="4.342"/><use xlink:href="#11" y="8.684"/><use xlink:href="#12" y="13.026"/><use xlink:href="#13" y="17.368"/><use xlink:href="#14" y="19.539"/><use xlink:href="#15" y="21.71"/><use xlink:href="#16" y="23.881"/><use xlink:href="#17" y="26.052"/><use xlink:href="#18" y="28.223"/><use xlink:href="#19" y="30.394"/><use xlink:href="#20" y="32.565"/><use xlink:href="#21" y="34.736"/><use xlink:href="#15" y="36.907"/><text y="42.919" class="c">$</text><text x="2.004" y="42.919" class="c">external-issue-checker</text><text x="25.05" y="42.919" class="c">~</text></svg><svg x="3300"><use xlink:href="#a"/><use xlink:href="#b" x="26.996" y="41.224"/><use xlink:href="#9"/><use xlink:href="#10" y="4.342"/><use xlink:href="#11" y="8.684"/><use xlink:href="#12" y="13.026"/><use xlink:href="#13" y="17.368"/><use xlink:href="#14" y="19.539"/><use xlink:href="#15" y="21.71"/><use xlink:href="#16" y="23.881"/><use xlink:href="#17" y="26.052"/><use xlink:href="#18" y="28.223"/><use xlink:href="#19" y="30.394"/><use xlink:href="#20" y="32.565"/><use xlink:href="#21" y="34.736"/><use xlink:href="#15" y="36.907"/><text y="42.919" class="c">$</text><text x="2.004" y="42.919" class="c">external-issue-checker</text><text x="25.05" y="42.919" class="c">~/</text></svg><svg x="3410"><use xlink:href="#a"/><use xlink:href="#b" x="27.996" y="41.224"/><use xlink:href="#9"/><use xlink:href="#10" y="4.342"/><use xlink:href="#11" y="8.684"/><use xlink:href="#12" y="13.026"/><use xlink:href="#13" y="17.368"/><use xlink:href="#14" y="19.539"/><use xlink:href="#15" y="21.71"/><use xlink:href="#16" y="23.881"/><use xlink:href="#17" y="26.052"/><use xlink:href="#18" y="28.223"/><use xlink:href="#19" y="30.394"/><use xlink:href="#20" y="32.565"/><use xlink:href="#21" y="34.736"/><use xlink:href="#15" y="36.907"/><text y="42.919" class="c">$</text><text x="2.004" y="42.919" class="c">external-issue-checker</text><text x="25.05" y="42.919" class="c">~/c</text></svg><svg x="3520"><use xlink:href="#a"/><use xlink:href="#b" x="28.996" y="41.224"/><use xlink:href="#9"/><use xlink:href="#10" y="4.342"/><use xlink:href="#11" y="8.684"/><use xlink:href="#12" y="13.026"/><use xlink:href="#13" y="17.368"/><use xlink:href="#14" y="19.539"/><use xlink:href="#15" y="21.71"/><use xlink:href="#16" y="23.881"/><use xlink:href="#17" y="26.052"/><use xlink:href="#18" y="28.223"/><use xlink:href="#19" y="30.394"/><use xlink:href="#20" y="32.565"/><use xlink:href="#21" y="34.736"/><use xlink:href="#15" y="36.907"/><text y="42.919" class="c">$</text><text x="2.004" y="42.919" class="c">external-issue-checker</text><text x="25.05" y="42.919" class="c">~/co</text></svg><svg x="3630"><use xlink:href="#a"/><use xlink:href="#b" x="29.996" y="41.224"/><use xlink:href="#9"/><use xlink:href="#10" y="4.342"/><use xlink:href="#11" y="8.684"/><use xlink:href="#12" y="13.026"/><use xlink:href="#13" y="17.368"/><use xlink:href="#14" y="19.539"/><use xlink:href="#15" y="21.71"/><use xlink:href="#16" y="23.881"/><use xlink:href="#17" y="26.052"/><use xlink:href="#18" y="28.223"/><use xlink:href="#19" y="30.394"/><use xlink:href="#20" y="32.565"/><use xlink:href="#21" y="34.736"/><use xlink:href="#15" y="36.907"/><text y="42.919" class="c">$</text><text x="2.004" y="42.919" class="c">external-issue-checker</text><text x="25.05" y="42.919" class="c">~/cod</text></svg><svg x="3740"><use xlink:href="#a"/><use xlink:href="#b" x="30.996" y="41.224"/><use xlink:href="#9"/><use xlink:href="#10" y="4.342"/><use xlink:href="#11" y="8.684"/><use xlink:href="#12" y="13.026"/><use xlink:href="#13" y="17.368"/><use xlink:href="#14" y="19.539"/><use xlink:href="#15" y="21.71"/><use xlink:href="#16" y="23.881"/><use xlink:href="#17" y="26.052"/><use xlink:href="#18" y="28.223"/><use xlink:href="#19" y="30.394"/><use xlink:href="#20" y="32.565"/><use xlink:href="#21" y="34.736"/><use xlink:href="#15" y="36.907"/><text y="42.919" class="c">$</text><text x="2.004" y="42.919" class="c">external-issue-checker</text><text x="25.05" y="42.919" class="c">~/code</text></svg><svg x="3850"><use xlink:href="#a"/><use xlink:href="#b" x="31.996" y="41.224"/><use xlink:href="#9"/><use xlink:href="#10" y="4.342"/><use xlink:href="#11" y="8.684"/><use xlink:href="#12" y="13.026"/><use xlink:href="#13" y="17.368"/><use xlink:href="#14" y="19.539"/><use xlink:href="#15" y="21.71"/><use xlink:href="#16" y="23.881"/><use xlink:href="#17" y="26.052"/><use xlink:href="#18" y="28.223"/><use xlink:href="#19" y="30.394"/><use xlink:href="#20" y="32.565"/><use xlink:href="#21" y="34.736"/><use xlink:href="#15" y="36.907"/><text y="42.919" class="c">$</text><text x="2.004" y="42.919" class="c">external-issue-checker</text><text x="25.05" y="42.919" class="c">~/code/</text></svg><svg x="3960"><use xlink:href="#a"/><use xlink:href="#b" x="32.996" y="41.224"/><use xlink:href="#9"/><use xlink:href="#10" y="4.342"/><use xlink:href="#11" y="8.684"/><use xlink:href="#12" y="13.026"/><use xlink:href="#13" y="17.368"/><use xlink:href="#14" y="19.539"/><use xlink:href="#15" y="21.71"/><use xlink:href="#16" y="23.881"/><use xlink:href="#17" y="26.052"/><use xlink:href="#18" y="28.223"/><use xlink:href="#19" y="30.394"/><use xlink:href="#20" y="32.565"/><use xlink:href="#21" y="34.736"/><use xlink:href="#15" y="36.907"/><text y="42.919" class="c">$</text><text x="2.004" y="42.919" class="c">external-issue-checker</text><text x="25.05" y="42.919" class="c">~/code/m</text></svg><svg x="4070"><use xlink:href="#a"/><use xlink:href="#b" x="33.996" y="41.224"/><use xlink:href="#9"/><use xlink:href="#10" y="4.342"/><use xlink:href="#11" y="8.684"/><use xlink:href="#12" y="13.026"/><use xlink:href="#13" y="17.368"/><use xlink:href="#14" y="19.539"/><use xlink:href="#15" y="21.71"/><use xlink:href="#16" y="23.881"/><use xlink:href="#17" y="26.052"/><use xlink:href="#18" y="28.223"/><use xlink:href="#19" y="30.394"/><use xlink:href="#20" y="32.565"/><use xlink:href="#21" y="34.736"/><use xlink:href="#15" y="36.907"/><text y="42.919" class="c">$</text><text x="2.004" y="42.919" class="c">external-issue-checker</text><text x="25.05" y="42.919" class="c">~/code/ma</text></svg><svg x="4180"><use xlink:href="#a"/><use xlink:href="#b" x="34.996" y="41.224"/><use xlink:href="#9"/><use xlink:href="#10" y="4.342"/><use xlink:href="#11" y="8.684"/><use xlink:href="#12" y="13.026"/><use xlink:href="#13" y="17.368"/><use xlink:href="#14" y="19.539"/><use xlink:href="#15" y="21.71"/><use xlink:href="#16" y="23.881"/><use xlink:href="#17" y="26.052"/><use xlink:href="#18" y="28.223"/><use xlink:href="#19" y="30.394"/><use xlink:href="#20" y="32.565"/><use xlink:href="#21" y="34.736"/><use xlink:href="#15" y="36.907"/><text y="42.919" class="c">$</text><text x="2.004" y="42.919" class="c">external-issue-checker</text><text x="25.05" y="42.919" class="c">~/code/mag</text></svg><svg x="4290"><use xlink:href="#a"/><use xlink:href="#b" x="35.996" y="41.224"/><use xlink:href="#9"/><use xlink:href="#10" y="4.342"/><use xlink:href="#11" y="8.684"/><use xlink:href="#12" y="13.026"/><use xlink:href="#13" y="17.368"/><use xlink:href="#14" y="19.539"/><use xlink:href="#15" y="21.71"/><use xlink:href="#16" y="23.881"/><use xlink:href="#17" y="26.052"/><use xlink:href="#18" y="28.223"/><use xlink:href="#19" y="30.394"/><use xlink:href="#20" y="32.565"/><use xlink:href="#21" y="34.736"/><use xlink:href="#15" y="36.907"/><text y="42.919" class="c">$</text><text x="2.004" y="42.919" class="c">external-issue-checker</text><text x="25.05" y="42.919" class="c">~/code/magr</text></svg><svg x="4400"><use xlink:href="#a"/><use xlink:href="#b" x="36.996" y="41.224"/><use xlink:href="#9"/><use xlink:href="#10" y="4.342"/><use xlink:href="#11" y="8.684"/><use xlink:href="#12" y="13.026"/><use xlink:href="#13" y="17.368"/><use xlink:href="#14" y="19.539"/><use xlink:href="#15" y="21.71"/><use xlink:href="#16" y="23.881"/><use xlink:href="#17" y="26.052"/><use xlink:href="#18" y="28.223"/><use xlink:href="#19" y="30.394"/><use xlink:href="#20" y="32.565"/><use xlink:href="#21" y="34.736"/><use xlink:href="#15" y="36.907"/><text y="42.919" class="c">$</text><text x="2.004" y="42.919" class="c">external-issue-checker</text><text x="25.05" y="42.919" class="c">~/code/magri</text></svg><svg x="4510"><use xlink:href="#a"/><use xlink:href="#b" x="37.996" y="41.224"/><use xlink:href="#9"/><use xlink:href="#10" y="4.342"/><use xlink:href="#11" y="8.684"/><use xlink:href="#12" y="13.026"/><use xlink:href="#13" y="17.368"/><use xlink:href="#14" y="19.539"/><use xlink:href="#15" y="21.71"/><use xlink:href="#16" y="23.881"/><use xlink:href="#17" y="26.052"/><use xlink:href="#18" y="28.223"/><use xlink:href="#19" y="30.394"/><use xlink:href="#20" y="32.565"/><use xlink:href="#21" y="34.736"/><use xlink:href="#15" y="36.907"/><use xlink:href="#22" y="41.249"/></svg><svg x="4620"><use xlink:href="#a"/><use xlink:href="#b" x="-.004" y="43.395"/><use xlink:href="#9"/><use xlink:href="#10" y="4.342"/><use xlink:href="#11" y="8.684"/><use xlink:href="#12" y="13.026"/><use xlink:href="#13" y="17.368"/><use xlink:href="#14" y="19.539"/><use xlink:href="#15" y="21.71"/><use xlink:href="#16" y="23.881"/><use xlink:href="#17" y="26.052"/><use xlink:href="#18" y="28.223"/><use xlink:href="#19" y="30.394"/><use xlink:href="#20" y="32.565"/><use xlink:href="#21" y="34.736"/><use xlink:href="#15" y="36.907"/><use xlink:href="#22" y="41.249"/></svg><svg x="4730"><use xlink:href="#a"/><use xlink:href="#b" x="-.004" y="45.566"/><use xlink:href="#9"/><use xlink:href="#10" y="4.342"/><use xlink:href="#11" y="8.684"/><use xlink:href="#12" y="13.026"/><use xlink:href="#13" y="17.368"/><use xlink:href="#14" y="19.539"/><use xlink:href="#15" y="21.71"/><use xlink:href="#16" y="23.881"/><use xlink:href="#17" y="26.052"/><use xlink:href="#18" y="28.223"/><use xlink:href="#19" y="30.394"/><use xlink:href="#20" y="32.565"/><use xlink:href="#21" y="34.736"/><use xlink:href="#15" y="36.907"/><use xlink:href="#22" y="41.249"/><use xlink:href="#23" y="43.42"/></svg><svg x="4840"><use xlink:href="#a"/><use xlink:href="#b" x="-.004" y="49.908"/><use xlink:href="#9"/><use xlink:href="#10" y="4.342"/><use xlink:href="#11" y="8.684"/><use xlink:href="#12" y="13.026"/><use xlink:href="#13" y="17.368"/><use xlink:href="#14" y="19.539"/><use xlink:href="#15" y="21.71"/><use xlink:href="#16" y="23.881"/><use xlink:href="#17" y="26.052"/><use xlink:href="#18" y="28.223"/><use xlink:href="#19" y="30.394"/><use xlink:href="#20" y="32.565"/><use xlink:href="#21" y="34.736"/><use xlink:href="#15" y="36.907"/><use xlink:href="#22" y="41.249"/><use xlink:href="#23" y="43.42"/><use xlink:href="#24" y="47.762"/></svg><svg x="4950"><use xlink:href="#a"/><use xlink:href="#b" x="-.004" y="54.25"/><use xlink:href="#9"/><use xlink:href="#10" y="4.342"/><use xlink:href="#11" y="8.684"/><use xlink:href="#12" y="13.026"/><use xlink:href="#13" y="17.368"/><use xlink:href="#14" y="19.539"/><use xlink:href="#15" y="21.71"/><use xlink:href="#16" y="23.881"/><use xlink:href="#17" y="26.052"/><use xlink:href="#18" y="28.223"/><use xlink:href="#19" y="30.394"/><use xlink:href="#20" y="32.565"/><use xlink:href="#21" y="34.736"/><use xlink:href="#15" y="36.907"/><use xlink:href="#22" y="41.249"/><use xlink:href="#23" y="43.42"/><use xlink:href="#24" y="47.762"/><use xlink:href="#25" y="49.933"/><use xlink:href="#26" y="52.104"/></svg><svg x="5060"><use xlink:href="#a"/><use xlink:href="#b" x="-.004" y="58.592"/><use xlink:href="#9"/><use xlink:href="#10" y="4.342"/><use xlink:href="#11" y="8.684"/><use xlink:href="#12" y="13.026"/><use xlink:href="#13" y="17.368"/><use xlink:href="#14" y="19.539"/><use xlink:href="#15" y="21.71"/><use xlink:href="#16" y="23.881"/><use xlink:href="#17" y="26.052"/><use xlink:href="#18" y="28.223"/><use xlink:href="#19" y="30.394"/><use xlink:href="#20" y="32.565"/><use xlink:href="#21" y="34.736"/><use xlink:href="#15" y="36.907"/><use xlink:href="#22" y="41.249"/><use xlink:href="#23" y="43.42"/><use xlink:href="#24" y="47.762"/><use xlink:href="#25" y="49.933"/><use xlink:href="#26" y="52.104"/><use xlink:href="#27" y="56.446"/></svg><svg x="5170"><use xlink:href="#a"/><use xlink:href="#b" x="-.004" y="62.934"/><use xlink:href="#9"/><use xlink:href="#10" y="4.342"/><use xlink:href="#11" y="8.684"/><use xlink:href="#12" y="13.026"/><use xlink:href="#13" y="17.368"/><use xlink:href="#14" y="19.539"/><use xlink:href="#15" y="21.71"/><use xlink:href="#16" y="23.881"/><use xlink:href="#17" y="26.052"/><use xlink:href="#18" y="28.223"/><use xlink:href="#19" y="30.394"/><use xlink:href="#20" y="32.565"/><use xlink:href="#21" y="34.736"/><use xlink:href="#15" y="36.907"/><use xlink:href="#22" y="41.249"/><use xlink:href="#23" y="43.42"/><use xlink:href="#24" y="47.762"/><use xlink:href="#25" y="49.933"/><use xlink:href="#26" y="52.104"/><use xlink:href="#27" y="56.446"/><use xlink:href="#28" y="58.617"/><use xlink:href="#29" y="60.788"/></svg><svg x="5280"><use xlink:href="#a"/><use xlink:href="#b" x="-.004" y="67.276"/><use xlink:href="#9"/><use xlink:href="#10" y="4.342"/><use xlink:href="#11" y="8.684"/><use xlink:href="#12" y="13.026"/><use xlink:href="#13" y="17.368"/><use xlink:href="#14" y="19.539"/><use xlink:href="#15" y="21.71"/><use xlink:href="#16" y="23.881"/><use xlink:href="#17" y="26.052"/><use xlink:href="#18" y="28.223"/><use xlink:href="#19" y="30.394"/><use xlink:href="#20" y="32.565"/><use xlink:href="#21" y="34.736"/><use xlink:href="#15" y="36.907"/><use xlink:href="#22" y="41.249"/><use xlink:href="#23" y="43.42"/><use xlink:href="#24" y="47.762"/><use xlink:href="#25" y="49.933"/><use xlink:href="#26" y="52.104"/><use xlink:href="#27" y="56.446"/><use xlink:href="#28" y="58.617"/><use xlink:href="#29" y="60.788"/><use xlink:href="#30" y="65.13"/></svg><svg x="5390"><use xlink:href="#a"/><use xlink:href="#b" x="-.004" y="71.618"/><use xlink:href="#9"/><use xlink:href="#10" y="4.342"/><use xlink:href="#11" y="8.684"/><use xlink:href="#12" y="13.026"/><use xlink:href="#13" y="17.368"/><use xlink:href="#14" y="19.539"/><use xlink:href="#15" y="21.71"/><use xlink:href="#16" y="23.881"/><use xlink:href="#17" y="26.052"/><use xlink:href="#18" y="28.223"/><use xlink:href="#19" y="30.394"/><use xlink:href="#20" y="32.565"/><use xlink:href="#21" y="34.736"/><use xlink:href="#15" y="36.907"/><use xlink:href="#22" y="41.249"/><use xlink:href="#23" y="43.42"/><use xlink:href="#24" y="47.762"/><use xlink:href="#25" y="49.933"/><use xlink:href="#26" y="52.104"/><use xlink:href="#27" y="56.446"/><use xlink:href="#28" y="58.617"/><use xlink:href="#29" y="60.788"/><use xlink:href="#30" y="65.13"/><use xlink:href="#28" y="67.301"/><use xlink:href="#29" y="69.472"/></svg><svg x="5500"><use xlink:href="#a"/><use xlink:href="#b" x="1.996" y="71.618"/><use xlink:href="#9"/><use xlink:href="#10" y="4.342"/><use xlink:href="#11" y="8.684"/><use xlink:href="#12" y="13.026"/><use xlink:href="#13" y="17.368"/><use xlink:href="#14" y="19.539"/><use xlink:href="#15" y="21.71"/><use xlink:href="#16" y="23.881"/><use xlink:href="#17" y="26.052"/><use xlink:href="#18" y="28.223"/><use xlink:href="#19" y="30.394"/><use xlink:href="#20" y="32.565"/><use xlink:href="#21" y="34.736"/><use xlink:href="#15" y="36.907"/><use xlink:href="#22" y="41.249"/><use xlink:href="#23" y="43.42"/><use xlink:href="#24" y="47.762"/><use xlink:href="#25" y="49.933"/><use xlink:href="#26" y="52.104"/><use xlink:href="#27" y="56.446"/><use xlink:href="#28" y="58.617"/><use xlink:href="#29" y="60.788"/><use xlink:href="#30" y="65.13"/><use xlink:href="#28" y="67.301"/><use xlink:href="#29" y="69.472"/><use xlink:href="#1" y="71.643"/></svg><svg x="5610"><use xlink:href="#a"/><use xlink:href="#b" x="-.004" y="75.96"/><use xlink:href="#9"/><use xlink:href="#10" y="4.342"/><use xlink:href="#11" y="8.684"/><use xlink:href="#12" y="13.026"/><use xlink:href="#13" y="17.368"/><use xlink:href="#14" y="19.539"/><use xlink:href="#15" y="21.71"/><use xlink:href="#16" y="23.881"/><use xlink:href="#17" y="26.052"/><use xlink:href="#18" y="28.223"/><use xlink:href="#19" y="30.394"/><use xlink:href="#20" y="32.565"/><use xlink:href="#21" y="34.736"/><use xlink:href="#15" y="36.907"/><use xlink:href="#22" y="41.249"/><use xlink:href="#23" y="43.42"/><use xlink:href="#24" y="47.762"/><use xlink:href="#25" y="49.933"/><use xlink:href="#26" y="52.104"/><use xlink:href="#27" y="56.446"/><use xlink:href="#28" y="58.617"/><use xlink:href="#29" y="60.788"/><use xlink:href="#30" y="65.13"/><use xlink:href="#28" y="67.301"/><use xlink:href="#29" y="69.472"/><use xlink:href="#1" y="71.643"/><text y="75.484" class="c">exit</text></svg></svg></g></g></svg></svg>