<svg xmlns="http://www.w3.org/2000/svg" xmlns:xlink="http://www.w3.org/1999/xlink" width="1200" height="933.53"><rect width="1200" height="933.53" rx="0" ry="0" class="a"/><svg height="933.53" viewBox="0 0 120 93.353" width="1200" xmlns="http://www.w3.org/2000/svg" xmlns:xlink="http://www.w3.org/1999/xlink"><style>@keyframes n{0%{transform:translateX(-120px)}3.6%{transform:translateX(-240px)}5.1%{transform:translateX(-360px)}6.9%{transform:translateX(-480px)}8%{transform:translateX(-600px)}8.4%{transform:translateX(-720px)}9.4%{transform:translateX(-840px)}10.5%{transform:translateX(-960px)}17.6%{transform:translateX(-1080px)}18.5%{transform:translateX(-1200px)}20.1%{transform:translateX(-1320px)}20.8%{transform:translateX(-1440px)}22.6%{transform:translateX(-1560px)}24.1%{transform:translateX(-1680px)}26.8%{transform:translateX(-1800px)}27.9%{transform:translateX(-2400px)}28.1%{transform:translateX(-2520px)}36.3%{transform:translateX(-2640px)}37.8%{transform:translateX(-2760px)}39.3%{transform:translateX(-2880px)}40.2%{transform:translateX(-3000px)}40.6%{transform:translateX(-3120px)}41.7%{transform:translateX(-3240px)}44.2%{transform:translateX(-3360px)}46.8%{transform:translateX(-3480px)}47.3%{transform:translateX(-3600px)}58.2%{transform:translateX(-3720px)}61.2%{transform:translateX(-3840px)}62.9%{transform:translateX(-3960px)}63.5%{transform:translateX(-4080px)}64.4%{transform:translateX(-4200px)}64.8%{transform:translateX(-4320px)}67.2%{transform:translateX(-4440px)}68.6%{transform:translateX(-4560px)}68.8%{transform:translateX(-4680px)}70.4%{transform:translateX(-4800px)}70.7%{transform:translateX(-4920px)}72.3%{transform:translateX(-5040px)}72.6%{transform:translateX(-5160px)}75.9%{transform:translateX(-5280px)}77%{transform:translateX(-5400px)}77.6%{transform:translateX(-5520px)}81.7%{transform:translateX(-5760px)}85%{transform:translateX(-6000px)}87.2%{transform:translateX(-6120px)}87.5%{transform:translateX(-6240px)}93%{transform:translateX(-6360px)}94.6%{transform:translateX(-6480px)}95.9%{transform:translateX(-6600px)}96.4%{transform:translateX(-6720px)}to{transform:translateX(-6960px)}}.a{fill:#282d35}.c{fill:#b9c0cb;white-space:pre}.d{fill:#dbab79;font-weight:700}.d,.e,.f{white-space:pre}.e{fill:#b9c0cb;font-weight:700}.f{fill:#e88388}.g{fill:#66c2cd;font-weight:700}.g,.h,.i,.k{white-space:pre}.h{fill:#a8cc8c;font-weight:700}.i,.k{fill:#d290e4}.k{fill:#a8cc8c}</style><g font-family="Monaco,Consolas,Menlo,'Bitstream Vera Sans Mono','Powerline Symbols',monospace" font-size="1.67"><defs><symbol id="1"><text y="1.67" class="c">$</text></symbol><symbol id="2"><text y="1.67" class="c">$</text><text x="2.004" y="1.67" class="c">e</text></symbol><symbol id="3"><text y="1.67" class="c">$</text><text x="2.004" y="1.67" class="c">ex</text></symbol><symbol id="4"><text y="1.67" class="c">$</text><text x="2.004" y="1.67" class="c">ext</text></symbol><symbol id="5"><text y="1.67" class="c">$</text><text x="2.004" y="1.67" class="c">exte</text></symbol><symbol id="6"><text y="1.67" class="c">$</text><text x="2.004" y="1.67" class="c">exter</text></symbol><symbol id="7"><text y="1.67" class="c">$</text><text x="2.004" y="1.67" class="c">extern</text></symbol><symbol id="8"><text y="1.67" class="c">$</text><text x="2.004" y="1.67" class="c">external-issue-checker</text></symbol><symbol id="9"><text y="1.67" class="c">$</text><text x="2.004" y="1.67" class="c">external-issue-checker</text><text x="25.05" y="1.67" class="c">--help</text></symbol><symbol id="10"><text x="1.002" y="1.67" class="d">Usage:</text><text x="8.016" y="1.67" class="e">external-issue-checker</text><text x="31.062" y="1.67" class="e">[OPTIONS]</text><text x="41.082" y="1.67" class="e">PATH</text></symbol><symbol id="11"><text x="1.002" y="1.67" class="c">Scans</text><text x="7.014" y="1.67" class="c">the</text><text x="11.022" y="1.67" class="c">commits</text><text x="19.038" y="1.67" class="c">of</text><text x="22.044" y="1.67" class="c">a</text><text x="24.048" y="1.67" class="c">Git</text><text x="28.056" y="1.67" class="c">repository</text><text x="39.078" y="1.67" class="c">and</text><text x="43.086" y="1.67" class="c">detects</text><text x="51.102" y="1.67" class="c">references</text><text x="62.124" y="1.67" class="c">to</text><text x="65.13" y="1.67" class="c">external</text><text x="74.148" y="1.67" class="c">GitHub</text><text x="81.162" y="1.67" class="c">issues.</text></symbol><symbol id="12"><text x="1.002" y="1.67" class="c">For</text><text x="5.01" y="1.67" class="c">each</text><text x="10.02" y="1.67" class="c">reference</text><text x="20.04" y="1.67" class="c">found,</text><text x="27.054" y="1.67" class="c">queries</text><text x="35.07" y="1.67" class="c">the</text><text x="39.078" y="1.67" class="c">GitHub</text><text x="46.092" y="1.67" class="c">API</text><text x="50.1" y="1.67" class="c">to</text><text x="53.106" y="1.67" class="c">display</text><text x="61.122" y="1.67" class="c">the</text><text x="65.13" y="1.67" class="c">current</text><text x="73.146" y="1.67" class="c">status</text><text x="80.16" y="1.67" class="c">of</text><text x="83.166" y="1.67" class="c">the</text><text x="87.174" y="1.67" class="c">issue.</text></symbol><symbol id="13"><text y="1.67" class="c">╭─</text><text x="3.006" y="1.67" class="c">Arguments</text><text x="13.026" y="1.67" class="c">──────────────────────────────────────────────────────────────────────────────────────────────────────────╮</text></symbol><symbol id="14"><text y="1.67" class="c">│</text><text x="2.004" y="1.67" class="f">*</text><text x="7.014" y="1.67" class="c">path</text><text x="17.034" y="1.67" class="d">TEXT</text><text x="23.046" y="1.67" class="c">Path</text><text x="28.056" y="1.67" class="c">to</text><text x="31.062" y="1.67" class="c">the</text><text x="35.07" y="1.67" class="c">local</text><text x="41.082" y="1.67" class="c">Git</text><text x="45.09" y="1.67" class="c">repository</text><text x="56.112" y="1.67" class="c">to</text><text x="59.118" y="1.67" class="c">analyze</text><text x="67.134" y="1.67" class="c">[default:</text><text x="77.154" y="1.67" class="c">None]</text><text x="83.166" y="1.67" class="f">[required]</text><text x="119.238" y="1.67" class="c">│</text></symbol><symbol id="15"><text y="1.67" class="c">╰──────────────────────────────────────────────────────────────────────────────────────────────────────────────────────╯</text></symbol><symbol id="16"><text y="1.67" class="c">╭─</text><text x="3.006" y="1.67" class="c">Options</text><text x="11.022" y="1.67" class="c">────────────────────────────────────────────────────────────────────────────────────────────────────────────╮</text></symbol><symbol id="17"><text y="1.67" class="c">│</text><text x="2.004" y="1.67" class="g">--token</text><text x="24.048" y="1.67" class="h">-t</text><text x="32.064" y="1.67" class="d">TEXT</text><text x="38.076" y="1.67" class="c">Personal</text><text x="47.094" y="1.67" class="c">GitHub</text><text x="54.108" y="1.67" class="c">token</text><text x="60.12" y="1.67" class="c">to</text><text x="63.126" y="1.67" class="c">avoid</text><text x="69.138" y="1.67" class="c">API</text><text x="73.146" y="1.67" class="c">limitations.</text><text x="86.172" y="1.67" class="c">[default:</text><text x="96.192" y="1.67" class="c">None]</text><text x="119.238" y="1.67" class="c">│</text></symbol><symbol id="18"><text y="1.67" class="c">│</text><text x="2.004" y="1.67" class="g">--install-completion</text><text x="38.076" y="1.67" class="c">Install</text><text x="46.092" y="1.67" class="c">completion</text><text x="57.114" y="1.67" class="c">for</text><text x="61.122" y="1.67" class="c">the</text><text x="65.13" y="1.67" class="c">current</text><text x="73.146" y="1.67" class="c">shell.</text><text x="119.238" y="1.67" class="c">│</text></symbol><symbol id="19"><text y="1.67" class="c">│</text><text x="2.004" y="1.67" class="g">--show-completion</text><text x="38.076" y="1.67" class="c">Show</text><text x="43.086" y="1.67" class="c">completion</text><text x="54.108" y="1.67" class="c">for</text><text x="58.116" y="1.67" class="c">the</text><text x="62.124" y="1.67" class="c">current</text><text x="70.14" y="1.67" class="c">shell,</text><text x="77.154" y="1.67" class="c">to</text><text x="80.16" y="1.67" class="c">copy</text><text x="85.17" y="1.67" class="c">it</text><text x="88.176" y="1.67" class="c">or</text><text x="91.182" y="1.67" class="c">customize</text><text x="101.202" y="1.67" class="c">the</text><text x="105.21" y="1.67" class="c">installation.</text><text x="119.238" y="1.67" class="c">│</text></symbol><symbol id="20"><text y="1.67" class="c">│</text><text x="2.004" y="1.67" class="g">--help</text><text x="38.076" y="1.67" class="c">Show</text><text x="43.086" y="1.67" class="c">this</text><text x="48.096" y="1.67" class="c">message</text><text x="56.112" y="1.67" class="c">and</text><text x="60.12" y="1.67" class="c">exit.</text><text x="119.238" y="1.67" class="c">│</text></symbol><symbol id="21"><text y="1.67" class="c">$</text><text x="2.004" y="1.67" class="c">external-issue-checker</text><text x="25.05" y="1.67" class="c">~/code/magrit</text></symbol><symbol id="22"><text y="1.67" class="e">Analyzing</text><text x="10.02" y="1.67" class="e">repository:</text><text x="22.044" y="1.67" class="i">/home/mthh/code/</text><text x="38.076" y="1.67" style="white-space:pre" fill="#d290e3">magrit</text></symbol><symbol id="23"><text y="1.67" class="g">be3b6b3</text><text x="8.016" y="1.67" class="c">-</text><text x="10.02" y="1.67" class="c">Fix</text><text x="14.028" y="1.67" class="c">launching</text><text x="24.048" y="1.67" class="c">of</text><text x="27.054" y="1.67" class="c">electron</text><text x="36.072" y="1.67" class="c">version</text><text x="44.088" y="1.67" class="c">on</text><text x="47.094" y="1.67" class="c">Linux</text></symbol><symbol id="24"><text x="2.004" y="1.67" class="k">✔</text><text x="4.008" y="1.67" class="k">electron/electron#</text><text x="22.044" y="1.67" class="h">46538</text><text x="28.056" y="1.67" class="c">→</text><text x="30.06" y="1.67" class="e">OPEN</text><text x="35.07" y="1.67" class="c">-</text><text x="37.074" y="1.67" class="c">Electron</text><text x="46.092" y="1.67" class="g">36</text><text x="49.098" y="1.67" class="c">fails</text><text x="55.11" y="1.67" class="c">to</text><text x="58.116" y="1.67" class="c">launch</text><text x="65.13" y="1.67" class="c">because</text><text x="73.146" y="1.67" class="k">&quot;Using</text><text x="80.16" y="1.67" class="k">GTK</text><text x="84.168" y="1.67" class="k">2/3</text><text x="88.176" y="1.67" class="k">and</text><text x="92.184" y="1.67" class="k">GTK</text><text x="96.192" y="1.67" class="k">4</text><text x="98.196" y="1.67" class="k">in</text><text x="101.202" y="1.67" class="k">the</text><text x="105.21" y="1.67" class="k">same</text><text x="110.22" y="1.67" class="k">process</text><text x="118.236" y="1.67" class="k">is</text></symbol><symbol id="25"><text y="1.67" class="k">not</text><text x="4.008" y="1.67" class="k">supported&quot;</text></symbol><symbol id="26"><text y="1.67" class="g">63f943c</text><text x="8.016" y="1.67" class="c">-</text><text x="10.02" y="1.67" class="c">Revert</text><text x="17.034" y="1.67" class="c">temporary</text><text x="27.054" y="1.67" class="c">workaround</text><text x="38.076" y="1.67" class="c">with</text><text x="43.086" y="1.67" class="c">qemu</text><text x="48.096" y="1.67" class="c">version</text><text x="56.112" y="1.67" class="c">for</text><text x="60.12" y="1.67" class="c">ARM</text><text x="64.128" y="1.67" class="c">builds</text></symbol><symbol id="27"><text x="2.004" y="1.67" class="k">✔</text><text x="4.008" y="1.67" class="k">docker/setup-qemu-action#</text><text x="29.058" y="1.67" class="h">198</text><text x="33.066" y="1.67" class="c">→</text><text x="35.07" y="1.67" class="e">CLOSED</text><text x="42.084" y="1.67" class="c">-</text><text x="44.088" y="1.67" class="c">`tonistiigi/binfmt:latest`</text><text x="71.142" y="1.67" class="e">(</text><text x="72.144" y="1.67" class="c">qemu</text><text x="77.154" y="1.67" class="g">9.2</text><text x="80.16" y="1.67" class="c">.</text><text x="81.162" y="1.67" class="g">0</text><text x="82.164" y="1.67" class="e">)</text><text x="84.168" y="1.67" class="c">segfault</text><text x="93.186" y="1.67" class="c">on</text><text x="96.192" y="1.67" class="c">ubuntu-</text><text x="103.206" y="1.67" class="g">24.04</text><text x="109.218" y="1.67" class="i">/</text></symbol><symbol id="28"><text y="1.67" class="c">ubuntu-latest</text></symbol><symbol id="29"><text y="1.67" class="g">43e5fec</text><text x="8.016" y="1.67" class="c">-</text><text x="10.02" y="1.67" class="c">Pin</text><text x="14.028" y="1.67" class="c">qemu-action</text><text x="26.052" y="1.67" class="c">to</text><text x="29.058" y="1.67" class="c">qemu-v7.</text><text x="37.074" y="1.67" class="g">0.0</text><text x="40.08" y="1.67" class="c">-</text><text x="41.082" y="1.67" class="g">28</text></symbol><symbol id="30"><text y="1.67" class="c">$</text><text x="2.004" y="1.67" class="c">exit</text></symbol><symbol id="a"><path fill="transparent" d="M0 0h120v43H0z"/></symbol><symbol id="b"><path fill="#6f7683" d="M0 0h1.102v2.171H0z"/></symbol></defs><path class="a" d="M0 0h120v93.353H0z"/><g style="animation-duration:14.548084s;animation-iteration-count:infinite;animation-name:n;animation-timing-function:steps(1,end)"><svg width="7080"><svg><use xlink:href="#a"/><use xlink:href="#b" x="-.004"/></svg><svg x="120"><use xlink:href="#a"/><use xlink:href="#b" x="1.996"/><use xlink:href="#1"/></svg><svg x="240"><use xlink:href="#a"/><use xlink:href="#b" x="2.996"/><use xlink:href="#2"/></svg><svg x="360"><use xlink:href="#a"/><use xlink:href="#b" x="3.996"/><use xlink:href="#3"/></svg><svg x="480"><use xlink:href="#a"/><use xlink:href="#b" x="4.996"/><use xlink:href="#4"/></svg><svg x="600"><use xlink:href="#a"/><use xlink:href="#b" x="5.996"/><use xlink:href="#5"/></svg><svg x="720"><use xlink:href="#a"/><use xlink:href="#b" x="6.996"/><use xlink:href="#6"/></svg><svg x="840"><use xlink:href="#a"/><use xlink:href="#b" x="7.996"/><use xlink:href="#7"/></svg><svg x="960"><use xlink:href="#a"/><use xlink:href="#b" x="24.996"/><use xlink:href="#8"/></svg><svg x="1080"><use xlink:href="#a"/><use xlink:href="#b" x="25.996"/><text y="1.67" class="c">$</text><text x="2.004" y="1.67" class="c">external-issue-checker</text><text x="25.05" y="1.67" class="c">-</text></svg><svg x="1200"><use xlink:href="#a"/><use xlink:href="#b" x="26.996"/><text y="1.67" class="c">$</text><text x="2.004" y="1.67" class="c">external-issue-checker</text><text x="25.05" y="1.67" class="c">--</text></svg><svg x="1320"><use xlink:href="#a"/><use xlink:href="#b" x="27.996"/><text y="1.67" class="c">$</text><text x="2.004" y="1.67" class="c">external-issue-checker</text><text x="25.05" y="1.67" class="c">--h</text></svg><svg x="1440"><use xlink:href="#a"/><use xlink:href="#b" x="28.996"/><text y="1.67" class="c">$</text><text x="2.004" y="1.67" class="c">external-issue-checker</text><text x="25.05" y="1.67" class="c">--he</text></svg><svg x="1560"><use xlink:href="#a"/><use xlink:href="#b" x="29.996"/><text y="1.67" class="c">$</text><text x="2.004" y="1.67" class="c">external-issue-checker</text><text x="25.05" y="1.67" class="c">--hel</text></svg><svg x="1680"><use xlink:href="#a"/><use xlink:href="#b" x="30.996"/><use xlink:href="#9"/></svg><svg x="1800"><use xlink:href="#a"/><use xlink:href="#b" x="-.004" y="2.146"/><use xlink:href="#9"/></svg><svg x="1920"><use xlink:href="#a"/><use xlink:href="#b" x="-.004" y="8.659"/><use xlink:href="#9"/><use xlink:href="#10" y="4.342"/></svg><svg x="2040"><use xlink:href="#a"/><use xlink:href="#b" x="-.004" y="17.343"/><use xlink:href="#9"/><use xlink:href="#10" y="4.342"/><use xlink:href="#11" y="8.684"/><use xlink:href="#12" y="13.026"/></svg><svg x="2160"><use xlink:href="#a"/><use xlink:href="#b" x="-.004" y="23.856"/><use xlink:href="#9"/><use xlink:href="#10" y="4.342"/><use xlink:href="#11" y="8.684"/><use xlink:href="#12" y="13.026"/><use xlink:href="#13" y="17.368"/><use xlink:href="#14" y="19.539"/><use xlink:href="#15" y="21.71"/></svg><svg x="2280"><use xlink:href="#a"/><use xlink:href="#b" x="-.004" y="36.882"/><use xlink:href="#9"/><use xlink:href="#10" y="4.342"/><use xlink:href="#11" y="8.684"/><use xlink:href="#12" y="13.026"/><use xlink:href="#13" y="17.368"/><use xlink:href="#14" y="19.539"/><use xlink:href="#15" y="21.71"/><use xlink:href="#16" y="23.881"/><use xlink:href="#17" y="26.052"/><use xlink:href="#18" y="28.223"/><use xlink:href="#19" y="30.394"/><use xlink:href="#20" y="32.565"/><use xlink:href="#15" y="34.736"/></svg><svg x="2400"><use xlink:href="#a"/><use xlink:href="#b" x="-.004" y="39.053"/><use xlink:href="#9"/><use xlink:href="#10" y="4.342"/><use xlink:href="#11" y="8.684"/><use xlink:href="#12" y="13.026"/><use xlink:href="#13" y="17.368"/><use xlink:href="#14" y="19.539"/><use xlink:href="#15" y="21.71"/><use xlink:href="#16" y="23.881"/><use xlink:href="#17" y="26.052"/><use xlink:href="#18" y="28.223"/><use xlink:href="#19" y="30.394"/><use xlink:href="#20" y="32.565"/><use xlink:href="#15" y="34.736"/></svg><svg x="2520"><use xlink:href="#a"/><use xlink:href="#b" x="1.996" y="39.053"/><use xlink:href="#9"/><use xlink:href="#10" y="4.342"/><use xlink:href="#11" y="8.684"/><use xlink:href="#12" y="13.026"/><use xlink:href="#13" y="17.368"/><use xlink:href="#14" y="19.539"/><use xlink:href="#15" y="21.71"/><use xlink:href="#16" y="23.881"/><use xlink:href="#17" y="26.052"/><use xlink:href="#18" y="28.223"/><use xlink:href="#19" y="30.394"/><use xlink:href="#20" y="32.565"/><use xlink:href="#15" y="34.736"/><use xlink:href="#1" y="39.078"/></svg><svg x="2640"><use xlink:href="#a"/><use xlink:href="#b" x="2.996" y="39.053"/><use xlink:href="#9"/><use xlink:href="#10" y="4.342"/><use xlink:href="#11" y="8.684"/><use xlink:href="#12" y="13.026"/><use xlink:href="#13" y="17.368"/><use xlink:href="#14" y="19.539"/><use xlink:href="#15" y="21.71"/><use xlink:href="#16" y="23.881"/><use xlink:href="#17" y="26.052"/><use xlink:href="#18" y="28.223"/><use xlink:href="#19" y="30.394"/><use xlink:href="#20" y="32.565"/><use xlink:href="#15" y="34.736"/><use xlink:href="#2" y="39.078"/></svg><svg x="2760"><use xlink:href="#a"/><use xlink:href="#b" x="3.996" y="39.053"/><use xlink:href="#9"/><use xlink:href="#10" y="4.342"/><use xlink:href="#11" y="8.684"/><use xlink:href="#12" y="13.026"/><use xlink:href="#13" y="17.368"/><use xlink:href="#14" y="19.539"/><use xlink:href="#15" y="21.71"/><use xlink:href="#16" y="23.881"/><use xlink:href="#17" y="26.052"/><use xlink:href="#18" y="28.223"/><use xlink:href="#19" y="30.394"/><use xlink:href="#20" y="32.565"/><use xlink:href="#15" y="34.736"/><use xlink:href="#3" y="39.078"/></svg><svg x="2880"><use xlink:href="#a"/><use xlink:href="#b" x="4.996" y="39.053"/><use xlink:href="#9"/><use xlink:href="#10" y="4.342"/><use xlink:href="#11" y="8.684"/><use xlink:href="#12" y="13.026"/><use xlink:href="#13" y="17.368"/><use xlink:href="#14" y="19.539"/><use xlink:href="#15" y="21.71"/><use xlink:href="#16" y="23.881"/><use xlink:href="#17" y="26.052"/><use xlink:href="#18" y="28.223"/><use xlink:href="#19" y="30.394"/><use xlink:href="#20" y="32.565"/><use xlink:href="#15" y="34.736"/><use xlink:href="#4" y="39.078"/></svg><svg x="3000"><use xlink:href="#a"/><use xlink:href="#b" x="5.996" y="39.053"/><use xlink:href="#9"/><use xlink:href="#10" y="4.342"/><use xlink:href="#11" y="8.684"/><use xlink:href="#12" y="13.026"/><use xlink:href="#13" y="17.368"/><use xlink:href="#14" y="19.539"/><use xlink:href="#15" y="21.71"/><use xlink:href="#16" y="23.881"/><use xlink:href="#17" y="26.052"/><use xlink:href="#18" y="28.223"/><use xlink:href="#19" y="30.394"/><use xlink:href="#20" y="32.565"/><use xlink:href="#15" y="34.736"/><use xlink:href="#5" y="39.078"/></svg><svg x="3120"><use xlink:href="#a"/><use xlink:href="#b" x="6.996" y="39.053"/><use xlink:href="#9"/><use xlink:href="#10" y="4.342"/><use xlink:href="#11" y="8.684"/><use xlink:href="#12" y="13.026"/><use xlink:href="#13" y="17.368"/><use xlink:href="#14" y="19.539"/><use xlink:href="#15" y="21.71"/><use xlink:href="#16" y="23.881"/><use xlink:href="#17" y="26.052"/><use xlink:href="#18" y="28.223"/><use xlink:href="#19" y="30.394"/><use xlink:href="#20" y="32.565"/><use xlink:href="#15" y="34.736"/><use xlink:href="#6" y="39.078"/></svg><svg x="3240"><use xlink:href="#a"/><use xlink:href="#b" x="7.996" y="39.053"/><use xlink:href="#9"/><use xlink:href="#10" y="4.342"/><use xlink:href="#11" y="8.684"/><use xlink:href="#12" y="13.026"/><use xlink:href="#13" y="17.368"/><use xlink:href="#14" y="19.539"/><use xlink:href="#15" y="21.71"/><use xlink:href="#16" y="23.881"/><use xlink:href="#17" y="26.052"/><use xlink:href="#18" y="28.223"/><use xlink:href="#19" y="30.394"/><use xlink:href="#20" y="32.565"/><use xlink:href="#15" y="34.736"/><use xlink:href="#7" y="39.078"/></svg><svg x="3360"><use xlink:href="#a"/><use xlink:href="#b" x="8.996" y="39.053"/><use xlink:href="#9"/><use xlink:href="#10" y="4.342"/><use xlink:href="#11" y="8.684"/><use xlink:href="#12" y="13.026"/><use xlink:href="#13" y="17.368"/><use xlink:href="#14" y="19.539"/><use xlink:href="#15" y="21.71"/><use xlink:href="#16" y="23.881"/><use xlink:href="#17" y="26.052"/><use xlink:href="#18" y="28.223"/><use xlink:href="#19" y="30.394"/><use xlink:href="#20" y="32.565"/><use xlink:href="#15" y="34.736"/><text y="40.748" class="c">$</text><text x="2.004" y="40.748" class="c">extern-</text></svg><svg x="3480"><use xlink:href="#a"/><use xlink:href="#b" x="7.996" y="39.053"/><use xlink:href="#9"/><use xlink:href="#10" y="4.342"/><use xlink:href="#11" y="8.684"/><use xlink:href="#12" y="13.026"/><use xlink:href="#13" y="17.368"/><use xlink:href="#14" y="19.539"/><use xlink:href="#15" y="21.71"/><use xlink:href="#16" y="23.881"/><use xlink:href="#17" y="26.052"/><use xlink:href="#18" y="28.223"/><use xlink:href="#19" y="30.394"/><use xlink:href="#20" y="32.565"/><use xlink:href="#15" y="34.736"/><use xlink:href="#7" y="39.078"/></svg><svg x="3600"><use xlink:href="#a"/><use xlink:href="#b" x="24.996" y="39.053"/><use xlink:href="#9"/><use xlink:href="#10" y="4.342"/><use xlink:href="#11" y="8.684"/><use xlink:href="#12" y="13.026"/><use xlink:href="#13" y="17.368"/><use xlink:href="#14" y="19.539"/><use xlink:href="#15" y="21.71"/><use xlink:href="#16" y="23.881"/><use xlink:href="#17" y="26.052"/><use xlink:href="#18" y="28.223"/><use xlink:href="#19" y="30.394"/><use xlink:href="#20" y="32.565"/><use xlink:href="#15" y="34.736"/><use xlink:href="#8" y="39.078"/></svg><svg x="3720"><use xlink:href="#a"/><use xlink:href="#b" x="25.996" y="39.053"/><use xlink:href="#9"/><use xlink:href="#10" y="4.342"/><use xlink:href="#11" y="8.684"/><use xlink:href="#12" y="13.026"/><use xlink:href="#13" y="17.368"/><use xlink:href="#14" y="19.539"/><use xlink:href="#15" y="21.71"/><use xlink:href="#16" y="23.881"/><use xlink:href="#17" y="26.052"/><use xlink:href="#18" y="28.223"/><use xlink:href="#19" y="30.394"/><use xlink:href="#20" y="32.565"/><use xlink:href="#15" y="34.736"/><text y="40.748" class="c">$</text><text x="2.004" y="40.748" class="c">external-issue-checker</text><text x="25.05" y="40.748" class="c">~</text></svg><svg x="3840"><use xlink:href="#a"/><use xlink:href="#b" x="26.996" y="39.053"/><use xlink:href="#9"/><use xlink:href="#10" y="4.342"/><use xlink:href="#11" y="8.684"/><use xlink:href="#12" y="13.026"/><use xlink:href="#13" y="17.368"/><use xlink:href="#14" y="19.539"/><use xlink:href="#15" y="21.71"/><use xlink:href="#16" y="23.881"/><use xlink:href="#17" y="26.052"/><use xlink:href="#18" y="28.223"/><use xlink:href="#19" y="30.394"/><use xlink:href="#20" y="32.565"/><use xlink:href="#15" y="34.736"/><text y="40.748" class="c">$</text><text x="2.004" y="40.748" class="c">external-issue-checker</text><text x="25.05" y="40.748" class="c">~/</text></svg><svg x="3960"><use xlink:href="#a"/><use xlink:href="#b" x="27.996" y="39.053"/><use xlink:href="#9"/><use xlink:href="#10" y="4.342"/><use xlink:href="#11" y="8.684"/><use xlink:href="#12" y="13.026"/><use xlink:href="#13" y="17.368"/><use xlink:href="#14" y="19.539"/><use xlink:href="#15" y="21.71"/><use xlink:href="#16" y="23.881"/><use xlink:href="#17" y="26.052"/><use xlink:href="#18" y="28.223"/><use xlink:href="#19" y="30.394"/><use xlink:href="#20" y="32.565"/><use xlink:href="#15" y="34.736"/><text y="40.748" class="c">$</text><text x="2.004" y="40.748" class="c">external-issue-checker</text><text x="25.05" y="40.748" class="c">~/c</text></svg><svg x="4080"><use xlink:href="#a"/><use xlink:href="#b" x="28.996" y="39.053"/><use xlink:href="#9"/><use xlink:href="#10" y="4.342"/><use xlink:href="#11" y="8.684"/><use xlink:href="#12" y="13.026"/><use xlink:href="#13" y="17.368"/><use xlink:href="#14" y="19.539"/><use xlink:href="#15" y="21.71"/><use xlink:href="#16" y="23.881"/><use xlink:href="#17" y="26.052"/><use xlink:href="#18" y="28.223"/><use xlink:href="#19" y="30.394"/><use xlink:href="#20" y="32.565"/><use xlink:href="#15" y="34.736"/><text y="40.748" class="c">$</text><text x="2.004" y="40.748" class="c">external-issue-checker</text><text x="25.05" y="40.748" class="c">~/co</text></svg><svg x="4200"><use xlink:href="#a"/><use xlink:href="#b" x="29.996" y="39.053"/><use xlink:href="#9"/><use xlink:href="#10" y="4.342"/><use xlink:href="#11" y="8.684"/><use xlink:href="#12" y="13.026"/><use xlink:href="#13" y="17.368"/><use xlink:href="#14" y="19.539"/><use xlink:href="#15" y="21.71"/><use xlink:href="#16" y="23.881"/><use xlink:href="#17" y="26.052"/><use xlink:href="#18" y="28.223"/><use xlink:href="#19" y="30.394"/><use xlink:href="#20" y="32.565"/><use xlink:href="#15" y="34.736"/><text y="40.748" class="c">$</text><text x="2.004" y="40.748" class="c">external-issue-checker</text><text x="25.05" y="40.748" class="c">~/cod</text></svg><svg x="4320"><use xlink:href="#a"/><use xlink:href="#b" x="30.996" y="39.053"/><use xlink:href="#9"/><use xlink:href="#10" y="4.342"/><use xlink:href="#11" y="8.684"/><use xlink:href="#12" y="13.026"/><use xlink:href="#13" y="17.368"/><use xlink:href="#14" y="19.539"/><use xlink:href="#15" y="21.71"/><use xlink:href="#16" y="23.881"/><use xlink:href="#17" y="26.052"/><use xlink:href="#18" y="28.223"/><use xlink:href="#19" y="30.394"/><use xlink:href="#20" y="32.565"/><use xlink:href="#15" y="34.736"/><text y="40.748" class="c">$</text><text x="2.004" y="40.748" class="c">external-issue-checker</text><text x="25.05" y="40.748" class="c">~/code</text></svg><svg x="4440"><use xlink:href="#a"/><use xlink:href="#b" x="31.996" y="39.053"/><use xlink:href="#9"/><use xlink:href="#10" y="4.342"/><use xlink:href="#11" y="8.684"/><use xlink:href="#12" y="13.026"/><use xlink:href="#13" y="17.368"/><use xlink:href="#14" y="19.539"/><use xlink:href="#15" y="21.71"/><use xlink:href="#16" y="23.881"/><use xlink:href="#17" y="26.052"/><use xlink:href="#18" y="28.223"/><use xlink:href="#19" y="30.394"/><use xlink:href="#20" y="32.565"/><use xlink:href="#15" y="34.736"/><text y="40.748" class="c">$</text><text x="2.004" y="40.748" class="c">external-issue-checker</text><text x="25.05" y="40.748" class="c">~/code/</text></svg><svg x="4560"><use xlink:href="#a"/><use xlink:href="#b" x="32.996" y="39.053"/><use xlink:href="#9"/><use xlink:href="#10" y="4.342"/><use xlink:href="#11" y="8.684"/><use xlink:href="#12" y="13.026"/><use xlink:href="#13" y="17.368"/><use xlink:href="#14" y="19.539"/><use xlink:href="#15" y="21.71"/><use xlink:href="#16" y="23.881"/><use xlink:href="#17" y="26.052"/><use xlink:href="#18" y="28.223"/><use xlink:href="#19" y="30.394"/><use xlink:href="#20" y="32.565"/><use xlink:href="#15" y="34.736"/><text y="40.748" class="c">$</text><text x="2.004" y="40.748" class="c">external-issue-checker</text><text x="25.05" y="40.748" class="c">~/code/m</text></svg><svg x="4680"><use xlink:href="#a"/><use xlink:href="#b" x="33.996" y="39.053"/><use xlink:href="#9"/><use xlink:href="#10" y="4.342"/><use xlink:href="#11" y="8.684"/><use xlink:href="#12" y="13.026"/><use xlink:href="#13" y="17.368"/><use xlink:href="#14" y="19.539"/><use xlink:href="#15" y="21.71"/><use xlink:href="#16" y="23.881"/><use xlink:href="#17" y="26.052"/><use xlink:href="#18" y="28.223"/><use xlink:href="#19" y="30.394"/><use xlink:href="#20" y="32.565"/><use xlink:href="#15" y="34.736"/><text y="40.748" class="c">$</text><text x="2.004" y="40.748" class="c">external-issue-checker</text><text x="25.05" y="40.748" class="c">~/code/ma</text></svg><svg x="4800"><use xlink:href="#a"/><use xlink:href="#b" x="34.996" y="39.053"/><use xlink:href="#9"/><use xlink:href="#10" y="4.342"/><use xlink:href="#11" y="8.684"/><use xlink:href="#12" y="13.026"/><use xlink:href="#13" y="17.368"/><use xlink:href="#14" y="19.539"/><use xlink:href="#15" y="21.71"/><use xlink:href="#16" y="23.881"/><use xlink:href="#17" y="26.052"/><use xlink:href="#18" y="28.223"/><use xlink:href="#19" y="30.394"/><use xlink:href="#20" y="32.565"/><use xlink:href="#15" y="34.736"/><text y="40.748" class="c">$</text><text x="2.004" y="40.748" class="c">external-issue-checker</text><text x="25.05" y="40.748" class="c">~/code/mag</text></svg><svg x="4920"><use xlink:href="#a"/><use xlink:href="#b" x="35.996" y="39.053"/><use xlink:href="#9"/><use xlink:href="#10" y="4.342"/><use xlink:href="#11" y="8.684"/><use xlink:href="#12" y="13.026"/><use xlink:href="#13" y="17.368"/><use xlink:href="#14" y="19.539"/><use xlink:href="#15" y="21.71"/><use xlink:href="#16" y="23.881"/><use xlink:href="#17" y="26.052"/><use xlink:href="#18" y="28.223"/><use xlink:href="#19" y="30.394"/><use xlink:href="#20" y="32.565"/><use xlink:href="#15" y="34.736"/><text y="40.748" class="c">$</text><text x="2.004" y="40.748" class="c">external-issue-checker</text><text x="25.05" y="40.748" class="c">~/code/magr</text></svg><svg x="5040"><use xlink:href="#a"/><use xlink:href="#b" x="36.996" y="39.053"/><use xlink:href="#9"/><use xlink:href="#10" y="4.342"/><use xlink:href="#11" y="8.684"/><use xlink:href="#12" y="13.026"/><use xlink:href="#13" y="17.368"/><use xlink:href="#14" y="19.539"/><use xlink:href="#15" y="21.71"/><use xlink:href="#16" y="23.881"/><use xlink:href="#17" y="26.052"/><use xlink:href="#18" y="28.223"/><use xlink:href="#19" y="30.394"/><use xlink:href="#20" y="32.565"/><use xlink:href="#15" y="34.736"/><text y="40.748" class="c">$</text><text x="2.004" y="40.748" class="c">external-issue-checker</text><text x="25.05" y="40.748" class="c">~/code/magri</text></svg><svg x="5160"><use xlink:href="#a"/><use xlink:href="#b" x="37.996" y="39.053"/><use xlink:href="#9"/><use xlink:href="#10" y="4.342"/><use xlink:href="#11" y="8.684"/><use xlink:href="#12" y="13.026"/><use xlink:href="#13" y="17.368"/><use xlink:href="#14" y="19.539"/><use xlink:href="#15" y="21.71"/><use xlink:href="#16" y="23.881"/><use xlink:href="#17" y="26.052"/><use xlink:href="#18" y="28.223"/><use xlink:href="#19" y="30.394"/><use xlink:href="#20" y="32.565"/><use xlink:href="#15" y="34.736"/><use xlink:href="#21" y="39.078"/></svg><svg x="5280"><use xlink:href="#a"/><use xlink:href="#b" x="-.004" y="41.224"/><use xlink:href="#9"/><use xlink:href="#10" y="4.342"/><use xlink:href="#11" y="8.684"/><use xlink:href="#12" y="13.026"/><use xlink:href="#13" y="17.368"/><use xlink:href="#14" y="19.539"/><use xlink:href="#15" y="21.71"/><use xlink:href="#16" y="23.881"/><use xlink:href="#17" y="26.052"/><use xlink:href="#18" y="28.223"/><use xlink:href="#19" y="30.394"/><use xlink:href="#20" y="32.565"/><use xlink:href="#15" y="34.736"/><use xlink:href="#21" y="39.078"/></svg><svg x="5400"><use xlink:href="#a"/><use xlink:href="#b" x="-.004" y="43.395"/><use xlink:href="#9"/><use xlink:href="#10" y="4.342"/><use xlink:href="#11" y="8.684"/><use xlink:href="#12" y="13.026"/><use xlink:href="#13" y="17.368"/><use xlink:href="#14" y="19.539"/><use xlink:href="#15" y="21.71"/><use xlink:href="#16" y="23.881"/><use xlink:href="#17" y="26.052"/><use xlink:href="#18" y="28.223"/><use xlink:href="#19" y="30.394"/><use xlink:href="#20" y="32.565"/><use xlink:href="#15" y="34.736"/><use xlink:href="#21" y="39.078"/><use xlink:href="#22" y="41.249"/></svg><svg x="5520"><use xlink:href="#a"/><use xlink:href="#b" x="-.004" y="47.737"/><use xlink:href="#9"/><use xlink:href="#10" y="4.342"/><use xlink:href="#11" y="8.684"/><use xlink:href="#12" y="13.026"/><use xlink:href="#13" y="17.368"/><use xlink:href="#14" y="19.539"/><use xlink:href="#15" y="21.71"/><use xlink:href="#16" y="23.881"/><use xlink:href="#17" y="26.052"/><use xlink:href="#18" y="28.223"/><use xlink:href="#19" y="30.394"/><use xlink:href="#20" y="32.565"/><use xlink:href="#15" y="34.736"/><use xlink:href="#21" y="39.078"/><use xlink:href="#22" y="41.249"/><use xlink:href="#23" y="45.591"/></svg><svg x="5640"><use xlink:href="#a"/><use xlink:href="#b" x="-.004" y="52.079"/><use xlink:href="#9"/><use xlink:href="#10" y="4.342"/><use xlink:href="#11" y="8.684"/><use xlink:href="#12" y="13.026"/><use xlink:href="#13" y="17.368"/><use xlink:href="#14" y="19.539"/><use xlink:href="#15" y="21.71"/><use xlink:href="#16" y="23.881"/><use xlink:href="#17" y="26.052"/><use xlink:href="#18" y="28.223"/><use xlink:href="#19" y="30.394"/><use xlink:href="#20" y="32.565"/><use xlink:href="#15" y="34.736"/><use xlink:href="#21" y="39.078"/><use xlink:href="#22" y="41.249"/><use xlink:href="#23" y="45.591"/><use xlink:href="#24" y="47.762"/><use xlink:href="#25" y="49.933"/></svg><svg x="5760"><use xlink:href="#a"/><use xlink:href="#b" x="-.004" y="56.421"/><use xlink:href="#9"/><use xlink:href="#10" y="4.342"/><use xlink:href="#11" y="8.684"/><use xlink:href="#12" y="13.026"/><use xlink:href="#13" y="17.368"/><use xlink:href="#14" y="19.539"/><use xlink:href="#15" y="21.71"/><use xlink:href="#16" y="23.881"/><use xlink:href="#17" y="26.052"/><use xlink:href="#18" y="28.223"/><use xlink:href="#19" y="30.394"/><use xlink:href="#20" y="32.565"/><use xlink:href="#15" y="34.736"/><use xlink:href="#21" y="39.078"/><use xlink:href="#22" y="41.249"/><use xlink:href="#23" y="45.591"/><use xlink:href="#24" y="47.762"/><use xlink:href="#25" y="49.933"/><use xlink:href="#26" y="54.275"/></svg><svg x="5880"><use xlink:href="#a"/><use xlink:href="#b" x="-.004" y="60.763"/><use xlink:href="#9"/><use xlink:href="#10" y="4.342"/><use xlink:href="#11" y="8.684"/><use xlink:href="#12" y="13.026"/><use xlink:href="#13" y="17.368"/><use xlink:href="#14" y="19.539"/><use xlink:href="#15" y="21.71"/><use xlink:href="#16" y="23.881"/><use xlink:href="#17" y="26.052"/><use xlink:href="#18" y="28.223"/><use xlink:href="#19" y="30.394"/><use xlink:href="#20" y="32.565"/><use xlink:href="#15" y="34.736"/><use xlink:href="#21" y="39.078"/><use xlink:href="#22" y="41.249"/><use xlink:href="#23" y="45.591"/><use xlink:href="#24" y="47.762"/><use xlink:href="#25" y="49.933"/><use xlink:href="#26" y="54.275"/><use xlink:href="#27" y="56.446"/><use xlink:href="#28" y="58.617"/></svg><svg x="6000"><use xlink:href="#a"/><use xlink:href="#b" x="-.004" y="65.105"/><use xlink:href="#9"/><use xlink:href="#10" y="4.342"/><use xlink:href="#11" y="8.684"/><use xlink:href="#12" y="13.026"/><use xlink:href="#13" y="17.368"/><use xlink:href="#14" y="19.539"/><use xlink:href="#15" y="21.71"/><use xlink:href="#16" y="23.881"/><use xlink:href="#17" y="26.052"/><use xlink:href="#18" y="28.223"/><use xlink:href="#19" y="30.394"/><use xlink:href="#20" y="32.565"/><use xlink:href="#15" y="34.736"/><use xlink:href="#21" y="39.078"/><use xlink:href="#22" y="41.249"/><use xlink:href="#23" y="45.591"/><use xlink:href="#24" y="47.762"/><use xlink:href="#25" y="49.933"/><use xlink:href="#26" y="54.275"/><use xlink:href="#27" y="56.446"/><use xlink:href="#28" y="58.617"/><use xlink:href="#29" y="62.959"/></svg><svg x="6120"><use xlink:href="#a"/><use xlink:href="#b" x="-.004" y="69.447"/><use xlink:href="#9"/><use xlink:href="#10" y="4.342"/><use xlink:href="#11" y="8.684"/><use xlink:href="#12" y="13.026"/><use xlink:href="#13" y="17.368"/><use xlink:href="#14" y="19.539"/><use xlink:href="#15" y="21.71"/><use xlink:href="#16" y="23.881"/><use xlink:href="#17" y="26.052"/><use xlink:href="#18" y="28.223"/><use xlink:href="#19" y="30.394"/><use xlink:href="#20" y="32.565"/><use xlink:href="#15" y="34.736"/><use xlink:href="#21" y="39.078"/><use xlink:href="#22" y="41.249"/><use xlink:href="#23" y="45.591"/><use xlink:href="#24" y="47.762"/><use xlink:href="#25" y="49.933"/><use xlink:href="#26" y="54.275"/><use xlink:href="#27" y="56.446"/><use xlink:href="#28" y="58.617"/><use xlink:href="#29" y="62.959"/><use xlink:href="#27" y="65.13"/><use xlink:href="#28" y="67.301"/></svg><svg x="6240"><use xlink:href="#a"/><use xlink:href="#b" x="1.996" y="69.447"/><use xlink:href="#9"/><use xlink:href="#10" y="4.342"/><use xlink:href="#11" y="8.684"/><use xlink:href="#12" y="13.026"/><use xlink:href="#13" y="17.368"/><use xlink:href="#14" y="19.539"/><use xlink:href="#15" y="21.71"/><use xlink:href="#16" y="23.881"/><use xlink:href="#17" y="26.052"/><use xlink:href="#18" y="28.223"/><use xlink:href="#19" y="30.394"/><use xlink:href="#20" y="32.565"/><use xlink:href="#15" y="34.736"/><use xlink:href="#21" y="39.078"/><use xlink:href="#22" y="41.249"/><use xlink:href="#23" y="45.591"/><use xlink:href="#24" y="47.762"/><use xlink:href="#25" y="49.933"/><use xlink:href="#26" y="54.275"/><use xlink:href="#27" y="56.446"/><use xlink:href="#28" y="58.617"/><use xlink:href="#29" y="62.959"/><use xlink:href="#27" y="65.13"/><use xlink:href="#28" y="67.301"/><use xlink:href="#1" y="69.472"/></svg><svg x="6360"><use xlink:href="#a"/><use xlink:href="#b" x="2.996" y="69.447"/><use xlink:href="#9"/><use xlink:href="#10" y="4.342"/><use xlink:href="#11" y="8.684"/><use xlink:href="#12" y="13.026"/><use xlink:href="#13" y="17.368"/><use xlink:href="#14" y="19.539"/><use xlink:href="#15" y="21.71"/><use xlink:href="#16" y="23.881"/><use xlink:href="#17" y="26.052"/><use xlink:href="#18" y="28.223"/><use xlink:href="#19" y="30.394"/><use xlink:href="#20" y="32.565"/><use xlink:href="#15" y="34.736"/><use xlink:href="#21" y="39.078"/><use xlink:href="#22" y="41.249"/><use xlink:href="#23" y="45.591"/><use xlink:href="#24" y="47.762"/><use xlink:href="#25" y="49.933"/><use xlink:href="#26" y="54.275"/><use xlink:href="#27" y="56.446"/><use xlink:href="#28" y="58.617"/><use xlink:href="#29" y="62.959"/><use xlink:href="#27" y="65.13"/><use xlink:href="#28" y="67.301"/><use xlink:href="#2" y="69.472"/></svg><svg x="6480"><use xlink:href="#a"/><use xlink:href="#b" x="3.996" y="69.447"/><use xlink:href="#9"/><use xlink:href="#10" y="4.342"/><use xlink:href="#11" y="8.684"/><use xlink:href="#12" y="13.026"/><use xlink:href="#13" y="17.368"/><use xlink:href="#14" y="19.539"/><use xlink:href="#15" y="21.71"/><use xlink:href="#16" y="23.881"/><use xlink:href="#17" y="26.052"/><use xlink:href="#18" y="28.223"/><use xlink:href="#19" y="30.394"/><use xlink:href="#20" y="32.565"/><use xlink:href="#15" y="34.736"/><use xlink:href="#21" y="39.078"/><use xlink:href="#22" y="41.249"/><use xlink:href="#23" y="45.591"/><use xlink:href="#24" y="47.762"/><use xlink:href="#25" y="49.933"/><use xlink:href="#26" y="54.275"/><use xlink:href="#27" y="56.446"/><use xlink:href="#28" y="58.617"/><use xlink:href="#29" y="62.959"/><use xlink:href="#27" y="65.13"/><use xlink:href="#28" y="67.301"/><use xlink:href="#3" y="69.472"/></svg><svg x="6600"><use xlink:href="#a"/><use xlink:href="#b" x="4.996" y="69.447"/><use xlink:href="#9"/><use xlink:href="#10" y="4.342"/><use xlink:href="#11" y="8.684"/><use xlink:href="#12" y="13.026"/><use xlink:href="#13" y="17.368"/><use xlink:href="#14" y="19.539"/><use xlink:href="#15" y="21.71"/><use xlink:href="#16" y="23.881"/><use xlink:href="#17" y="26.052"/><use xlink:href="#18" y="28.223"/><use xlink:href="#19" y="30.394"/><use xlink:href="#20" y="32.565"/><use xlink:href="#15" y="34.736"/><use xlink:href="#21" y="39.078"/><use xlink:href="#22" y="41.249"/><use xlink:href="#23" y="45.591"/><use xlink:href="#24" y="47.762"/><use xlink:href="#25" y="49.933"/><use xlink:href="#26" y="54.275"/><use xlink:href="#27" y="56.446"/><use xlink:href="#28" y="58.617"/><use xlink:href="#29" y="62.959"/><use xlink:href="#27" y="65.13"/><use xlink:href="#28" y="67.301"/><text y="71.142" class="c">$</text><text x="2.004" y="71.142" class="c">exi</text></svg><svg x="6720"><use xlink:href="#a"/><use xlink:href="#b" x="5.996" y="69.447"/><use xlink:href="#9"/><use xlink:href="#10" y="4.342"/><use xlink:href="#11" y="8.684"/><use xlink:href="#12" y="13.026"/><use xlink:href="#13" y="17.368"/><use xlink:href="#14" y="19.539"/><use xlink:href="#15" y="21.71"/><use xlink:href="#16" y="23.881"/><use xlink:href="#17" y="26.052"/><use xlink:href="#18" y="28.223"/><use xlink:href="#19" y="30.394"/><use xlink:href="#20" y="32.565"/><use xlink:href="#15" y="34.736"/><use xlink:href="#21" y="39.078"/><use xlink:href="#22" y="41.249"/><use xlink:href="#23" y="45.591"/><use xlink:href="#24" y="47.762"/><use xlink:href="#25" y="49.933"/><use xlink:href="#26" y="54.275"/><use xlink:href="#27" y="56.446"/><use xlink:href="#28" y="58.617"/><use xlink:href="#29" y="62.959"/><use xlink:href="#27" y="65.13"/><use xlink:href="#28" y="67.301"/><use xlink:href="#30" y="69.472"/></svg><svg x="6840"><use xlink:href="#a"/><use xlink:href="#b" x="-.004" y="71.618"/><use xlink:href="#9"/><use xlink:href="#10" y="4.342"/><use xlink:href="#11" y="8.684"/><use xlink:href="#12" y="13.026"/><use xlink:href="#13" y="17.368"/><use xlink:href="#14" y="19.539"/><use xlink:href="#15" y="21.71"/><use xlink:href="#16" y="23.881"/><use xlink:href="#17" y="26.052"/><use xlink:href="#18" y="28.223"/><use xlink:href="#19" y="30.394"/><use xlink:href="#20" y="32.565"/><use xlink:href="#15" y="34.736"/><use xlink:href="#21" y="39.078"/><use xlink:href="#22" y="41.249"/><use xlink:href="#23" y="45.591"/><use xlink:href="#24" y="47.762"/><use xlink:href="#25" y="49.933"/><use xlink:href="#26" y="54.275"/><use xlink:href="#27" y="56.446"/><use xlink:href="#28" y="58.617"/><use xlink:href="#29" y="62.959"/><use xlink:href="#27" y="65.13"/><use xlink:href="#28" y="67.301"/><use xlink:href="#30" y="69.472"/></svg><svg x="6960"><use xlink:href="#a"/><use xlink:href="#b" x="-.004" y="73.789"/><use xlink:href="#9"/><use xlink:href="#10" y="4.342"/><use xlink:href="#11" y="8.684"/><use xlink:href="#12" y="13.026"/><use xlink:href="#13" y="17.368"/><use xlink:href="#14" y="19.539"/><use xlink:href="#15" y="21.71"/><use xlink:href="#16" y="23.881"/><use xlink:href="#17" y="26.052"/><use xlink:href="#18" y="28.223"/><use xlink:href="#19" y="30.394"/><use xlink:href="#20" y="32.565"/><use xlink:href="#15" y="34.736"/><use xlink:href="#21" y="39.078"/><use xlink:href="#22" y="41.249"/><use xlink:href="#23" y="45.591"/><use xlink:href="#24" y="47.762"/><use xlink:href="#25" y="49.933"/><use xlink:href="#26" y="54.275"/><use xlink:href="#27" y="56.446"/><use xlink:href="#28" y="58.617"/><use xlink:href="#29" y="62.959"/><use xlink:href="#27" y="65.13"/><use xlink:href="#28" y="67.301"/><use xlink:href="#30" y="69.472"/><text y="73.313" class="c">exit</text></svg></svg></g></g></svg></svg>